<?xml version="1.0" encoding="UTF-8" standalone="no"?><!DOCTYPE svg PUBLIC "-//W3C//DTD SVG 1.1//EN" "http://www.w3.org/Graphics/SVG/1.1/DTD/svg11.dtd"><!-- Generated by graphviz version 2.40.1 (20161225.0304)
 --><!-- Title: devskills Pages: 1 --><svg xmlns="http://www.w3.org/2000/svg" xmlns:xlink="http://www.w3.org/1999/xlink" width="1214pt" height="180pt" viewBox="7.20 7.20 1207.20 172.35">
<g id="graph0" class="graph" transform="scale(.1385 .1385) rotate(0) translate(55.9674 1239.9674)">
<title>devskills</title>
<polygon fill="#ffffff" stroke="transparent" points="-4,4 -4,-1188 8657.237,-1188 8657.237,4 -4,4"/>
<!-- APIs -->
<g id="node1" class="node">
<title>APIs</title>
<polygon fill="#ffff99" stroke="#ffff99" points="4230.284,-1184 4094.332,-1184 4094.332,-1104 4230.284,-1104 4230.284,-1184"/>
<text text-anchor="middle" x="4162.308" y="-1126" font-family="Times,serif" font-size="60.00" fill="#000000">APIs</text>
</g>
<!-- Http Verbs -->
<g id="node2" class="node">
<title>Http Verbs</title>
<polygon fill="#b2dfee" stroke="#b2dfee" points="804.726,-816 523.89,-816 523.89,-736 804.726,-736 804.726,-816"/>
<text text-anchor="middle" x="664.308" y="-758" font-family="Times,serif" font-size="60.00" fill="#000000">Http Verbs</text>
</g>
<!-- APIs&#45;&gt;Http Verbs -->
<g id="edge1" class="edge">
<title>APIs-&gt;Http Verbs</title>
<path fill="none" stroke="#000000" d="M4094.0026,-1136.8141C3672.327,-1092.4525 1421.4323,-855.6517 814.9347,-791.8464"/>
<polygon fill="#000000" stroke="#000000" points="815.1294,-788.3476 804.818,-790.7821 814.3969,-795.3092 815.1294,-788.3476"/>
</g>
<!-- Http Status Codes -->
<g id="node3" class="node">
<title>Http Status Codes</title>
<polygon fill="#b2dfee" stroke="#b2dfee" points="4387.1221,-816 3937.4939,-816 3937.4939,-736 4387.1221,-736 4387.1221,-816"/>
<text text-anchor="middle" x="4162.308" y="-758" font-family="Times,serif" font-size="60.00" fill="#000000">Http Status Codes</text>
</g>
<!-- APIs&#45;&gt;Http Status Codes -->
<g id="edge2" class="edge">
<title>APIs-&gt;Http Status Codes</title>
<path fill="none" stroke="#000000" d="M4162.308,-1103.917C4162.308,-1036.4472 4162.308,-900.34 4162.308,-826.4659"/>
<polygon fill="#000000" stroke="#000000" points="4165.8081,-826.0335 4162.308,-816.0336 4158.8081,-826.0336 4165.8081,-826.0335"/>
</g>
<!-- Http Headers -->
<g id="node4" class="node">
<title>Http Headers</title>
<polygon fill="#b2dfee" stroke="#b2dfee" points="7630.4941,-816 7296.1219,-816 7296.1219,-736 7630.4941,-736 7630.4941,-816"/>
<text text-anchor="middle" x="7463.308" y="-758" font-family="Times,serif" font-size="60.00" fill="#000000">Http Headers</text>
</g>
<!-- APIs&#45;&gt;Http Headers -->
<g id="edge3" class="edge">
<title>APIs-&gt;Http Headers</title>
<path fill="none" stroke="#000000" d="M4230.4964,-1136.3983C4629.7592,-1091.8879 6668.0566,-864.6557 7285.6959,-795.8004"/>
<polygon fill="#000000" stroke="#000000" points="7286.4721,-799.2357 7296.0227,-794.6492 7285.6965,-792.2788 7286.4721,-799.2357"/>
</g>
<!-- GET -->
<g id="node9" class="node">
<title>GET</title>
<polygon fill="#b2dfee" stroke="#b2dfee" points="167.4305,-448 35.1855,-448 35.1855,-368 167.4305,-368 167.4305,-448"/>
<text text-anchor="middle" x="101.308" y="-390" font-family="Times,serif" font-size="60.00" fill="#000000">GET</text>
</g>
<!-- Http Verbs&#45;&gt;GET -->
<g id="edge8" class="edge">
<title>Http Verbs-&gt;GET</title>
<path fill="none" stroke="#000000" d="M602.9854,-735.917C497.4372,-666.9264 282.0939,-526.1691 171.02,-453.5667"/>
<polygon fill="#000000" stroke="#000000" points="172.8405,-450.5752 162.555,-448.0336 169.0105,-456.4346 172.8405,-450.5752"/>
</g>
<!-- POST -->
<g id="node10" class="node">
<title>POST</title>
<polygon fill="#b2dfee" stroke="#b2dfee" points="420.4843,-448 258.1317,-448 258.1317,-368 420.4843,-368 420.4843,-448"/>
<text text-anchor="middle" x="339.308" y="-390" font-family="Times,serif" font-size="60.00" fill="#000000">POST</text>
</g>
<!-- Http Verbs&#45;&gt;POST -->
<g id="edge9" class="edge">
<title>Http Verbs-&gt;POST</title>
<path fill="none" stroke="#000000" d="M628.9086,-735.917C568.5899,-667.6176 446.1542,-528.9827 381.4957,-455.7695"/>
<polygon fill="#000000" stroke="#000000" points="383.9067,-453.2121 374.6637,-448.0336 378.6599,-457.8459 383.9067,-453.2121"/>
</g>
<!-- PUT -->
<g id="node11" class="node">
<title>PUT</title>
<polygon fill="#b2dfee" stroke="#b2dfee" points="613.1304,-448 483.4856,-448 483.4856,-368 613.1304,-368 613.1304,-448"/>
<text text-anchor="middle" x="548.308" y="-390" font-family="Times,serif" font-size="60.00" fill="#000000">PUT</text>
</g>
<!-- Http Verbs&#45;&gt;PUT -->
<g id="edge10" class="edge">
<title>Http Verbs-&gt;PUT</title>
<path fill="none" stroke="#000000" d="M651.6731,-735.917C630.3619,-668.3089 587.3262,-531.7819 564.0728,-458.0125"/>
<polygon fill="#000000" stroke="#000000" points="567.2718,-456.5187 560.9273,-448.0336 560.5956,-458.6232 567.2718,-456.5187"/>
</g>
<!-- DELETE -->
<g id="node12" class="node">
<title>DELETE</title>
<polygon fill="#b2dfee" stroke="#b2dfee" points="896.3924,-448 654.2236,-448 654.2236,-368 896.3924,-368 896.3924,-448"/>
<text text-anchor="middle" x="775.308" y="-390" font-family="Times,serif" font-size="60.00" fill="#000000">DELETE</text>
</g>
<!-- Http Verbs&#45;&gt;DELETE -->
<g id="edge11" class="edge">
<title>Http Verbs-&gt;DELETE</title>
<path fill="none" stroke="#000000" d="M676.3982,-735.917C696.7909,-668.3089 737.9716,-531.7819 760.2227,-458.0125"/>
<polygon fill="#000000" stroke="#000000" points="763.6957,-458.6183 763.2327,-448.0336 756.9939,-456.5968 763.6957,-458.6183"/>
</g>
<!-- OPTIONS -->
<g id="node13" class="node">
<title>OPTIONS</title>
<polygon fill="#b2dfee" stroke="#b2dfee" points="1259.0861,-448 989.5299,-448 989.5299,-368 1259.0861,-368 1259.0861,-448"/>
<text text-anchor="middle" x="1124.308" y="-390" font-family="Times,serif" font-size="60.00" fill="#000000">OPTIONS</text>
</g>
<!-- Http Verbs&#45;&gt;OPTIONS -->
<g id="edge12" class="edge">
<title>Http Verbs-&gt;OPTIONS</title>
<path fill="none" stroke="#000000" d="M714.4117,-735.917C800.3044,-667.2029 975.1876,-527.2963 1066.2544,-454.4429"/>
<polygon fill="#000000" stroke="#000000" points="1068.6438,-457.0136 1074.266,-448.0336 1064.2709,-451.5475 1068.6438,-457.0136"/>
</g>
<!-- 2XX: Successful responses -->
<g id="node19" class="node">
<title>2XX: Successful responses</title>
<polygon fill="#b2dfee" stroke="#b2dfee" points="2413.926,-448 1744.69,-448 1744.69,-368 2413.926,-368 2413.926,-448"/>
<text text-anchor="middle" x="2079.308" y="-390" font-family="Times,serif" font-size="60.00" fill="#000000">2XX: Successful responses</text>
</g>
<!-- Http Status Codes&#45;&gt;2XX: Successful responses -->
<g id="edge18" class="edge">
<title>Http Status Codes-&gt;2XX: Successful responses</title>
<path fill="none" stroke="#000000" d="M3937.4114,-736.2679C3540.8437,-666.207 2720.9742,-521.3621 2316.1069,-449.8348"/>
<polygon fill="#000000" stroke="#000000" points="2316.4845,-446.3474 2306.0281,-448.0542 2315.2666,-453.2407 2316.4845,-446.3474"/>
</g>
<!-- 3XX: Redirection messages -->
<g id="node20" class="node">
<title>3XX: Redirection messages</title>
<polygon fill="#b2dfee" stroke="#b2dfee" points="3833.1,-448 3147.516,-448 3147.516,-368 3833.1,-368 3833.1,-448"/>
<text text-anchor="middle" x="3490.308" y="-390" font-family="Times,serif" font-size="60.00" fill="#000000">3XX: Redirection messages</text>
</g>
<!-- Http Status Codes&#45;&gt;3XX: Redirection messages -->
<g id="edge19" class="edge">
<title>Http Status Codes-&gt;3XX: Redirection messages</title>
<path fill="none" stroke="#000000" d="M4089.113,-735.917C3962.7513,-666.719 3704.5486,-525.3223 3572.3245,-452.9138"/>
<polygon fill="#000000" stroke="#000000" points="3573.8649,-449.7669 3563.4128,-448.0336 3570.5026,-455.9066 3573.8649,-449.7669"/>
</g>
<!-- 4XX: Client error responses -->
<g id="node21" class="node">
<title>4XX: Client error responses</title>
<polygon fill="#b2dfee" stroke="#b2dfee" points="4981.58,-448 4291.036,-448 4291.036,-368 4981.58,-368 4981.58,-448"/>
<text text-anchor="middle" x="4636.308" y="-390" font-family="Times,serif" font-size="60.00" fill="#000000">4XX: Client error responses</text>
</g>
<!-- Http Status Codes&#45;&gt;4XX: Client error responses -->
<g id="edge20" class="edge">
<title>Http Status Codes-&gt;4XX: Client error responses</title>
<path fill="none" stroke="#000000" d="M4213.9366,-735.917C4302.5325,-667.1337 4483.0119,-527.0147 4576.7705,-454.2232"/>
<polygon fill="#000000" stroke="#000000" points="4578.9905,-456.9307 4584.743,-448.0336 4574.6977,-451.4015 4578.9905,-456.9307"/>
</g>
<!-- 5XX: Server error responses -->
<g id="node22" class="node">
<title>5XX: Server error responses</title>
<polygon fill="#b2dfee" stroke="#b2dfee" points="6659.4801,-448 5959.1359,-448 5959.1359,-368 6659.4801,-368 6659.4801,-448"/>
<text text-anchor="middle" x="6309.308" y="-390" font-family="Times,serif" font-size="60.00" fill="#000000">5XX: Server error responses</text>
</g>
<!-- Http Status Codes&#45;&gt;5XX: Server error responses -->
<g id="edge21" class="edge">
<title>Http Status Codes-&gt;5XX: Server error responses</title>
<path fill="none" stroke="#000000" d="M4387.0068,-737.4862C4793.1397,-667.8742 5646.104,-521.6745 6065.6848,-449.7575"/>
<polygon fill="#000000" stroke="#000000" points="6066.5572,-453.1591 6075.8222,-448.0199 6065.3746,-446.2597 6066.5572,-453.1591"/>
</g>
<!-- HTTP (Special Header) -->
<g id="node5" class="node">
<title>HTTP (Special Header)</title>
<polygon fill="#b2dfee" stroke="#b2dfee" points="7281.0261,-448 6695.5899,-448 6695.5899,-368 7281.0261,-368 7281.0261,-448"/>
<text text-anchor="middle" x="6988.308" y="-390" font-family="Times,serif" font-size="60.00" fill="#000000">HTTP (Special Header)</text>
</g>
<!-- Http Headers&#45;&gt;HTTP (Special Header) -->
<g id="edge4" class="edge">
<title>Http Headers-&gt;HTTP (Special Header)</title>
<path fill="none" stroke="#000000" d="M7411.5705,-735.917C7322.7877,-667.1337 7141.9276,-527.0147 7047.9711,-454.2232"/>
<polygon fill="#000000" stroke="#000000" points="7050.0305,-451.3912 7039.9818,-448.0336 7045.7434,-456.9248 7050.0305,-451.3912"/>
</g>
<!-- Connection -->
<g id="node6" class="node">
<title>Connection</title>
<polygon fill="#b2dfee" stroke="#b2dfee" points="7609.4382,-448 7317.1778,-448 7317.1778,-368 7609.4382,-368 7609.4382,-448"/>
<text text-anchor="middle" x="7463.308" y="-390" font-family="Times,serif" font-size="60.00" fill="#000000">Connection</text>
</g>
<!-- Http Headers&#45;&gt;Connection -->
<g id="edge5" class="edge">
<title>Http Headers-&gt;Connection</title>
<path fill="none" stroke="#000000" d="M7463.308,-735.917C7463.308,-668.4472 7463.308,-532.34 7463.308,-458.4659"/>
<polygon fill="#000000" stroke="#000000" points="7466.8081,-458.0335 7463.308,-448.0336 7459.8081,-458.0336 7466.8081,-458.0335"/>
</g>
<!-- Access&#45;Control&#45;Allow&#45;Origin -->
<g id="node7" class="node">
<title>Access-Control-Allow-Origin</title>
<polygon fill="#b2dfee" stroke="#b2dfee" points="8381.062,-448 7645.554,-448 7645.554,-368 8381.062,-368 8381.062,-448"/>
<text text-anchor="middle" x="8013.308" y="-390" font-family="Times,serif" font-size="60.00" fill="#000000">Access-Control-Allow-Origin</text>
</g>
<!-- Http Headers&#45;&gt;Access&#45;Control&#45;Allow&#45;Origin -->
<g id="edge6" class="edge">
<title>Http Headers-&gt;Access-Control-Allow-Origin</title>
<path fill="none" stroke="#000000" d="M7523.2146,-735.917C7626.2224,-666.9955 7836.275,-526.4511 7944.8792,-453.7851"/>
<polygon fill="#000000" stroke="#000000" points="7947.1104,-456.5035 7953.4752,-448.0336 7943.2177,-450.6856 7947.1104,-456.5035"/>
</g>
<!-- Access&#45;* -->
<g id="node8" class="node">
<title>Access-*</title>
<polygon fill="#b2dfee" stroke="#b2dfee" points="8653.166,-448 8417.45,-448 8417.45,-368 8653.166,-368 8653.166,-448"/>
<text text-anchor="middle" x="8535.308" y="-390" font-family="Times,serif" font-size="60.00" fill="#000000">Access-*</text>
</g>
<!-- Http Headers&#45;&gt;Access&#45;* -->
<g id="edge7" class="edge">
<title>Http Headers-&gt;Access-*</title>
<path fill="none" stroke="#000000" d="M7580.0715,-735.917C7783.1587,-666.2005 8199.7272,-523.1994 8409.1793,-451.2979"/>
<polygon fill="#000000" stroke="#000000" points="8410.3667,-454.5909 8418.6885,-448.0336 8408.0938,-447.9701 8410.3667,-454.5909"/>
</g>
<!-- Reads -->
<g id="node14" class="node">
<title>Reads</title>
<polygon fill="#b2dfee" stroke="#b2dfee" points="162.4245,-80 .1915,-80 .1915,0 162.4245,0 162.4245,-80"/>
<text text-anchor="middle" x="81.308" y="-22" font-family="Times,serif" font-size="60.00" fill="#000000">Reads</text>
</g>
<!-- GET&#45;&gt;Reads -->
<g id="edge13" class="edge">
<title>GET-&gt;Reads</title>
<path fill="none" stroke="#000000" d="M99.1296,-367.917C95.4627,-300.4472 88.0656,-164.34 84.0507,-90.4659"/>
<polygon fill="#000000" stroke="#000000" points="87.5213,-89.8289 83.4837,-80.0336 80.5317,-90.2088 87.5213,-89.8289"/>
</g>
<!-- Updates -->
<g id="node15" class="node">
<title>Updates</title>
<polygon fill="#b2dfee" stroke="#b2dfee" points="411.3984,-80 199.2176,-80 199.2176,0 411.3984,0 411.3984,-80"/>
<text text-anchor="middle" x="305.308" y="-22" font-family="Times,serif" font-size="60.00" fill="#000000">Updates</text>
</g>
<!-- POST&#45;&gt;Updates -->
<g id="edge14" class="edge">
<title>POST-&gt;Updates</title>
<path fill="none" stroke="#000000" d="M335.6047,-367.917C329.3583,-300.3089 316.7444,-163.7819 309.9287,-90.0125"/>
<polygon fill="#000000" stroke="#000000" points="313.412,-89.6691 309.0068,-80.0336 306.4417,-90.3132 313.412,-89.6691"/>
</g>
<!-- Creates -->
<g id="node16" class="node">
<title>Creates</title>
<polygon fill="#b2dfee" stroke="#b2dfee" points="643.206,-80 447.41,-80 447.41,0 643.206,0 643.206,-80"/>
<text text-anchor="middle" x="545.308" y="-22" font-family="Times,serif" font-size="60.00" fill="#000000">Creates</text>
</g>
<!-- PUT&#45;&gt;Creates -->
<g id="edge15" class="edge">
<title>PUT-&gt;Creates</title>
<path fill="none" stroke="#000000" d="M547.9812,-367.917C547.4312,-300.4472 546.3216,-164.34 545.7194,-90.4659"/>
<polygon fill="#000000" stroke="#000000" points="549.2159,-90.0047 545.6344,-80.0336 542.2161,-90.0618 549.2159,-90.0047"/>
</g>
<!-- Deletes -->
<g id="node17" class="node">
<title>Deletes</title>
<polygon fill="#b2dfee" stroke="#b2dfee" points="875.206,-80 679.41,-80 679.41,0 875.206,0 875.206,-80"/>
<text text-anchor="middle" x="777.308" y="-22" font-family="Times,serif" font-size="60.00" fill="#000000">Deletes</text>
</g>
<!-- DELETE&#45;&gt;Deletes -->
<g id="edge16" class="edge">
<title>DELETE-&gt;Deletes</title>
<path fill="none" stroke="#000000" d="M775.5258,-367.917C775.8925,-300.4472 776.6322,-164.34 777.0337,-90.4659"/>
<polygon fill="#000000" stroke="#000000" points="780.5359,-90.0525 777.0904,-80.0336 773.536,-90.0144 780.5359,-90.0525"/>
</g>
<!-- Shows allowed Verbs -->
<g id="node18" class="node">
<title>Shows allowed Verbs</title>
<polygon fill="#b2dfee" stroke="#b2dfee" points="1450.996,-80 911.62,-80 911.62,0 1450.996,0 1450.996,-80"/>
<text text-anchor="middle" x="1181.308" y="-22" font-family="Times,serif" font-size="60.00" fill="#000000">Shows allowed Verbs</text>
</g>
<!-- OPTIONS&#45;&gt;Shows allowed Verbs -->
<g id="edge17" class="edge">
<title>OPTIONS-&gt;Shows allowed Verbs</title>
<path fill="none" stroke="#000000" d="M1130.5165,-367.917C1140.9884,-300.3089 1162.1353,-163.7819 1173.5615,-90.0125"/>
<polygon fill="#000000" stroke="#000000" points="1177.0352,-90.4515 1175.1071,-80.0336 1170.1176,-89.38 1177.0352,-90.4515"/>
</g>
<!-- 200 OK -->
<g id="node23" class="node">
<title>200 OK</title>
<polygon fill="#b2dfee" stroke="#b2dfee" points="1693.9363,-80 1486.6797,-80 1486.6797,0 1693.9363,0 1693.9363,-80"/>
<text text-anchor="middle" x="1590.308" y="-22" font-family="Times,serif" font-size="60.00" fill="#000000">200 OK</text>
</g>
<!-- 2XX: Successful responses&#45;&gt;200 OK -->
<g id="edge22" class="edge">
<title>2XX: Successful responses-&gt;200 OK</title>
<path fill="none" stroke="#000000" d="M2026.0456,-367.917C1934.646,-299.1337 1748.4553,-159.0147 1651.7296,-86.2232"/>
<polygon fill="#000000" stroke="#000000" points="1653.5996,-83.2501 1643.5048,-80.0336 1649.3904,-88.8432 1653.5996,-83.2501"/>
</g>
<!-- 201 Created -->
<g id="node24" class="node">
<title>201 Created</title>
<polygon fill="#b2dfee" stroke="#b2dfee" points="2037.8723,-80 1730.7437,-80 1730.7437,0 2037.8723,0 2037.8723,-80"/>
<text text-anchor="middle" x="1884.308" y="-22" font-family="Times,serif" font-size="60.00" fill="#000000">201 Created</text>
</g>
<!-- 2XX: Successful responses&#45;&gt;201 Created -->
<g id="edge23" class="edge">
<title>2XX: Successful responses-&gt;201 Created</title>
<path fill="none" stroke="#000000" d="M2058.0684,-367.917C2022.0969,-300.0324 1949.3066,-162.664 1910.3312,-89.1105"/>
<polygon fill="#000000" stroke="#000000" points="1913.2963,-87.2309 1905.5214,-80.0336 1907.111,-90.5085 1913.2963,-87.2309"/>
</g>
<!-- 204 No Content -->
<g id="node25" class="node">
<title>204 No Content</title>
<polygon fill="#b2dfee" stroke="#b2dfee" points="2473.1181,-80 2073.4979,-80 2073.4979,0 2473.1181,0 2473.1181,-80"/>
<text text-anchor="middle" x="2273.308" y="-22" font-family="Times,serif" font-size="60.00" fill="#000000">204 No Content</text>
</g>
<!-- 2XX: Successful responses&#45;&gt;204 No Content -->
<g id="edge24" class="edge">
<title>2XX: Successful responses-&gt;204 No Content</title>
<path fill="none" stroke="#000000" d="M2100.4387,-367.917C2136.2257,-300.0324 2208.6428,-162.664 2247.4182,-89.1105"/>
<polygon fill="#000000" stroke="#000000" points="2250.636,-90.5118 2252.2033,-80.0336 2244.4438,-87.2474 2250.636,-90.5118"/>
</g>
<!-- 301 Moved Permanently -->
<g id="node26" class="node">
<title>301 Moved Permanently</title>
<polygon fill="#b2dfee" stroke="#b2dfee" points="3118.028,-80 2508.588,-80 2508.588,0 3118.028,0 3118.028,-80"/>
<text text-anchor="middle" x="2813.308" y="-22" font-family="Times,serif" font-size="60.00" fill="#000000">301 Moved Permanently</text>
</g>
<!-- 3XX: Redirection messages&#45;&gt;301 Moved Permanently -->
<g id="edge25" class="edge">
<title>3XX: Redirection messages-&gt;301 Moved Permanently</title>
<path fill="none" stroke="#000000" d="M3416.5684,-367.917C3289.2665,-298.719 3029.1427,-157.3223 2895.9347,-84.9138"/>
<polygon fill="#000000" stroke="#000000" points="2897.4142,-81.7343 2886.9567,-80.0336 2894.0711,-87.8845 2897.4142,-81.7343"/>
</g>
<!-- 302 Found -->
<g id="node27" class="node">
<title>302 Found</title>
<polygon fill="#b2dfee" stroke="#b2dfee" points="3428.6622,-80 3153.9538,-80 3153.9538,0 3428.6622,0 3428.6622,-80"/>
<text text-anchor="middle" x="3291.308" y="-22" font-family="Times,serif" font-size="60.00" fill="#000000">302 Found</text>
</g>
<!-- 3XX: Redirection messages&#45;&gt;302 Found -->
<g id="edge26" class="edge">
<title>3XX: Redirection messages-&gt;302 Found</title>
<path fill="none" stroke="#000000" d="M3468.6327,-367.917C3431.9234,-300.0324 3357.6399,-162.664 3317.8651,-89.1105"/>
<polygon fill="#000000" stroke="#000000" points="3320.792,-87.165 3312.9566,-80.0336 3314.6346,-90.4947 3320.792,-87.165"/>
</g>
<!-- 304 Not Modified -->
<g id="node28" class="node">
<title>304 Not Modified</title>
<polygon fill="#b2dfee" stroke="#b2dfee" points="3914.0861,-80 3464.5299,-80 3464.5299,0 3914.0861,0 3914.0861,-80"/>
<text text-anchor="middle" x="3689.308" y="-22" font-family="Times,serif" font-size="60.00" fill="#000000">304 Not Modified</text>
</g>
<!-- 3XX: Redirection messages&#45;&gt;304 Not Modified -->
<g id="edge27" class="edge">
<title>3XX: Redirection messages-&gt;304 Not Modified</title>
<path fill="none" stroke="#000000" d="M3511.9833,-367.917C3548.6926,-300.0324 3622.9761,-162.664 3662.7509,-89.1105"/>
<polygon fill="#000000" stroke="#000000" points="3665.9814,-90.4947 3667.6594,-80.0336 3659.824,-87.165 3665.9814,-90.4947"/>
</g>
<!-- 400 Bad Request -->
<g id="node29" class="node">
<title>400 Bad Request</title>
<polygon fill="#b2dfee" stroke="#b2dfee" points="4376.246,-80 3950.37,-80 3950.37,0 4376.246,0 4376.246,-80"/>
<text text-anchor="middle" x="4163.308" y="-22" font-family="Times,serif" font-size="60.00" fill="#000000">400 Bad Request</text>
</g>
<!-- 4XX: Client error responses&#45;&gt;400 Bad Request -->
<g id="edge28" class="edge">
<title>4XX: Client error responses-&gt;400 Bad Request</title>
<path fill="none" stroke="#000000" d="M4584.7883,-367.917C4496.3794,-299.1337 4316.2807,-159.0147 4222.7199,-86.2232"/>
<polygon fill="#000000" stroke="#000000" points="4224.806,-83.4117 4214.7642,-80.0336 4220.5076,-88.9366 4224.806,-83.4117"/>
</g>
<!-- 401 Unauthorized -->
<g id="node30" class="node">
<title>401 Unauthorized</title>
<polygon fill="#b2dfee" stroke="#b2dfee" points="4859.8462,-80 4412.7698,-80 4412.7698,0 4859.8462,0 4859.8462,-80"/>
<text text-anchor="middle" x="4636.308" y="-22" font-family="Times,serif" font-size="60.00" fill="#000000">401 Unauthorized</text>
</g>
<!-- 4XX: Client error responses&#45;&gt;401 Unauthorized -->
<g id="edge29" class="edge">
<title>4XX: Client error responses-&gt;401 Unauthorized</title>
<path fill="none" stroke="#000000" d="M4636.308,-367.917C4636.308,-300.4472 4636.308,-164.34 4636.308,-90.4659"/>
<polygon fill="#000000" stroke="#000000" points="4639.8081,-90.0335 4636.308,-80.0336 4632.8081,-90.0336 4639.8081,-90.0335"/>
</g>
<!-- 403 Forbidden -->
<g id="node31" class="node">
<title>403 Forbidden</title>
<polygon fill="#b2dfee" stroke="#b2dfee" points="5263.9442,-80 4896.6718,-80 4896.6718,0 5263.9442,0 5263.9442,-80"/>
<text text-anchor="middle" x="5080.308" y="-22" font-family="Times,serif" font-size="60.00" fill="#000000">403 Forbidden</text>
</g>
<!-- 4XX: Client error responses&#45;&gt;403 Forbidden -->
<g id="edge30" class="edge">
<title>4XX: Client error responses-&gt;403 Forbidden</title>
<path fill="none" stroke="#000000" d="M4684.669,-367.917C4767.5741,-299.2029 4936.3744,-159.2963 5024.2736,-86.4429"/>
<polygon fill="#000000" stroke="#000000" points="5026.5409,-89.1097 5032.0066,-80.0336 5022.0739,-83.7202 5026.5409,-89.1097"/>
</g>
<!-- 404 Not Found -->
<g id="node32" class="node">
<title>404 Not Found</title>
<polygon fill="#b2dfee" stroke="#b2dfee" points="5679.1502,-80 5299.4658,-80 5299.4658,0 5679.1502,0 5679.1502,-80"/>
<text text-anchor="middle" x="5489.308" y="-22" font-family="Times,serif" font-size="60.00" fill="#000000">404 Not Found</text>
</g>
<!-- 4XX: Client error responses&#45;&gt;404 Not Found -->
<g id="edge31" class="edge">
<title>4XX: Client error responses-&gt;404 Not Found</title>
<path fill="none" stroke="#000000" d="M4729.2177,-367.917C4890.2552,-298.4425 5219.9847,-156.1911 5387.2051,-84.0491"/>
<polygon fill="#000000" stroke="#000000" points="5388.7173,-87.2086 5396.5128,-80.0336 5385.9444,-80.7812 5388.7173,-87.2086"/>
</g>
<!-- 500 Internal Server Error -->
<g id="node33" class="node">
<title>500 Internal Server Error</title>
<polygon fill="#b2dfee" stroke="#b2dfee" points="6335.5181,-80 5715.0979,-80 5715.0979,0 6335.5181,0 6335.5181,-80"/>
<text text-anchor="middle" x="6025.308" y="-22" font-family="Times,serif" font-size="60.00" fill="#000000">500 Internal Server Error</text>
</g>
<!-- 5XX: Server error responses&#45;&gt;500 Internal Server Error -->
<g id="edge32" class="edge">
<title>5XX: Server error responses-&gt;500 Internal Server Error</title>
<path fill="none" stroke="#000000" d="M6278.3744,-367.917C6225.7718,-299.7559 6119.108,-161.5437 6062.5173,-88.2149"/>
<polygon fill="#000000" stroke="#000000" points="6065.0839,-85.8119 6056.2035,-80.0336 6059.5423,-90.0886 6065.0839,-85.8119"/>
</g>
<!-- 502 Bad Gateway -->
<g id="node34" class="node">
<title>502 Bad Gateway</title>
<polygon fill="#b2dfee" stroke="#b2dfee" points="6817.16,-80 6371.456,-80 6371.456,0 6817.16,0 6817.16,-80"/>
<text text-anchor="middle" x="6594.308" y="-22" font-family="Times,serif" font-size="60.00" fill="#000000">502 Bad Gateway</text>
</g>
<!-- 5XX: Server error responses&#45;&gt;502 Bad Gateway -->
<g id="edge33" class="edge">
<title>5XX: Server error responses-&gt;502 Bad Gateway</title>
<path fill="none" stroke="#000000" d="M6340.3505,-367.917C6393.1383,-299.7559 6500.1777,-161.5437 6556.9677,-88.2149"/>
<polygon fill="#000000" stroke="#000000" points="6559.9479,-90.0829 6563.3037,-80.0336 6554.4135,-85.7967 6559.9479,-90.0829"/>
</g>
<!-- 503 Service Unavailable -->
<g id="node35" class="node">
<title>503 Service Unavailable</title>
<polygon fill="#b2dfee" stroke="#b2dfee" points="7459.084,-80 6853.532,-80 6853.532,0 7459.084,0 7459.084,-80"/>
<text text-anchor="middle" x="7156.308" y="-22" font-family="Times,serif" font-size="60.00" fill="#000000">503 Service Unavailable</text>
</g>
<!-- 5XX: Server error responses&#45;&gt;503 Service Unavailable -->
<g id="edge34" class="edge">
<title>5XX: Server error responses-&gt;503 Service Unavailable</title>
<path fill="none" stroke="#000000" d="M6401.5642,-367.917C6561.469,-298.4425 6888.8791,-156.1911 7054.9233,-84.0491"/>
<polygon fill="#000000" stroke="#000000" points="7056.3885,-87.2286 7064.1655,-80.0336 7053.5991,-80.8084 7056.3885,-87.2286"/>
</g>
<!-- 504 Gateway Timeout -->
<g id="node36" class="node">
<title>504 Gateway Timeout</title>
<polygon fill="#b2dfee" stroke="#b2dfee" points="8047.3222,-80 7495.2938,-80 7495.2938,0 8047.3222,0 8047.3222,-80"/>
<text text-anchor="middle" x="7771.308" y="-22" font-family="Times,serif" font-size="60.00" fill="#000000">504 Gateway Timeout</text>
</g>
<!-- 5XX: Server error responses&#45;&gt;504 Gateway Timeout -->
<g id="edge35" class="edge">
<title>5XX: Server error responses-&gt;504 Gateway Timeout</title>
<path fill="none" stroke="#000000" d="M6468.5507,-367.917C6746.4835,-297.9586 7317.5877,-154.2059 7602.2568,-82.5519"/>
<polygon fill="#000000" stroke="#000000" points="7603.4185,-85.8687 7612.2616,-80.0336 7601.7097,-79.0805 7603.4185,-85.8687"/>
</g>
</g>
</svg>