<?xml version="1.0" encoding="UTF-8" standalone="no"?><!DOCTYPE svg PUBLIC "-//W3C//DTD SVG 1.1//EN" "http://www.w3.org/Graphics/SVG/1.1/DTD/svg11.dtd"><!-- Generated by graphviz version 2.40.1 (20161225.0304)
 --><!-- Title: devskills Pages: 1 --><svg xmlns="http://www.w3.org/2000/svg" xmlns:xlink="http://www.w3.org/1999/xlink" width="864pt" height="67pt" viewBox="0.00 0.00 864.00 67.19">
<g id="graph0" class="graph" transform="scale(.3293 .3293) rotate(0) translate(4 200)">
<title>devskills</title>
<polygon fill="#ffffff" stroke="transparent" points="-4,4 -4,-200 2619.413,-200 2619.413,4 -4,4"/>
<!-- Back&#45;End -->
<g id="node1" class="node">
<title>Back-End</title>
<polygon fill="#386cb0" stroke="#386cb0" points="1742.329,-196 1486.509,-196 1486.509,-116 1742.329,-116 1742.329,-196"/>
<text text-anchor="middle" x="1614.419" y="-138" font-family="Times,serif" font-size="60.00" fill="#000000">Back-End</text>
</g>
<!-- Web Server -->
<g id="node2" class="node">
<title>Web Server</title>
<polygon fill="#b2dfee" stroke="#b2dfee" points="300.757,-80 .081,-80 .081,0 300.757,0 300.757,-80"/>
<text text-anchor="middle" x="150.419" y="-22" font-family="Times,serif" font-size="60.00" fill="#000000">Web Server</text>
</g>
<!-- Back&#45;End&#45;&gt;Web Server -->
<g id="edge1" class="edge">
<title>Back-End-&gt;Web Server</title>
<path fill="none" stroke="#000000" d="M1486.4392,-151.5876C1207.974,-141.4976 553.4027,-115.0006 311.183,-79.9917"/>
<polygon fill="#000000" stroke="#000000" points="311.4093,-76.4869 301.0032,-78.4778 310.3796,-83.4107 311.4093,-76.4869"/>
</g>
<!-- ORM -->
<g id="node3" class="node">
<title>ORM</title>
<polygon fill="#b2dfee" stroke="#b2dfee" points="471.5814,-80 319.2566,-80 319.2566,0 471.5814,0 471.5814,-80"/>
<text text-anchor="middle" x="395.419" y="-22" font-family="Times,serif" font-size="60.00" fill="#000000">ORM</text>
</g>
<!-- Back&#45;End&#45;&gt;ORM -->
<g id="edge2" class="edge">
<title>Back-End-&gt;ORM</title>
<path fill="none" stroke="#000000" d="M1486.2559,-153.3092C1231.1244,-146.9847 668.1995,-127.9249 481.419,-80 481.3193,-79.9744 481.2196,-79.9487 481.1199,-79.9229"/>
<polygon fill="#000000" stroke="#000000" points="482.3724,-76.642 471.7933,-77.2189 480.4231,-83.3651 482.3724,-76.642"/>
</g>
<!-- Language+Framework -->
<g id="node4" class="node">
<title>Language+Framework</title>
<polygon fill="#b2dfee" stroke="#b2dfee" points="1052.867,-80 489.971,-80 489.971,0 1052.867,0 1052.867,-80"/>
<text text-anchor="middle" x="771.419" y="-22" font-family="Times,serif" font-size="60.00" fill="#000000">Language+Framework</text>
</g>
<!-- Back&#45;End&#45;&gt;Language+Framework -->
<g id="edge3" class="edge">
<title>Back-End-&gt;Language+Framework</title>
<path fill="none" stroke="#000000" d="M1486.4701,-138.4338C1376.7945,-123.3721 1214.267,-101.0423 1063.0145,-80.2195"/>
<polygon fill="#000000" stroke="#000000" points="1063.4527,-76.7469 1053.0687,-78.8502 1062.4979,-83.6815 1063.4527,-76.7469"/>
</g>
<!-- OWASP -->
<g id="node5" class="node">
<title>OWASP</title>
<polygon fill="#b2dfee" stroke="#b2dfee" points="1296.389,-80 1070.449,-80 1070.449,0 1296.389,0 1296.389,-80"/>
<text text-anchor="middle" x="1183.419" y="-22" font-family="Times,serif" font-size="60.00" fill="#000000">OWASP</text>
</g>
<!-- Back&#45;End&#45;&gt;OWASP -->
<g id="edge4" class="edge">
<title>Back-End-&gt;OWASP</title>
<path fill="none" stroke="#000000" d="M1486.434,-126.8173C1433.3156,-114.1436 1370.9315,-98.5356 1306.5755,-80.2796"/>
<polygon fill="#000000" stroke="#000000" points="1307.2264,-76.8257 1296.6498,-77.4472 1305.3055,-83.557 1307.2264,-76.8257"/>
</g>
<!-- Encryption -->
<g id="node6" class="node">
<title>Encryption</title>
<polygon fill="#b2dfee" stroke="#b2dfee" points="1596.5293,-80 1314.3087,-80 1314.3087,0 1596.5293,0 1596.5293,-80"/>
<text text-anchor="middle" x="1455.419" y="-22" font-family="Times,serif" font-size="60.00" fill="#000000">Encryption</text>
</g>
<!-- Back&#45;End&#45;&gt;Encryption -->
<g id="edge5" class="edge">
<title>Back-End-&gt;Encryption</title>
<path fill="none" stroke="#000000" d="M1559.2547,-115.7544C1546.1819,-106.217 1532.1375,-95.9708 1518.7341,-86.1921"/>
<polygon fill="#000000" stroke="#000000" points="1520.6272,-83.2408 1510.4857,-80.1745 1516.5015,-88.8958 1520.6272,-83.2408"/>
</g>
<!-- Unit Testing -->
<g id="node7" class="node">
<title>Unit Testing</title>
<polygon fill="#b2dfee" stroke="#b2dfee" points="1932.0512,-80 1614.7868,-80 1614.7868,0 1932.0512,0 1932.0512,-80"/>
<text text-anchor="middle" x="1773.419" y="-22" font-family="Times,serif" font-size="60.00" fill="#000000">Unit Testing</text>
</g>
<!-- Back&#45;End&#45;&gt;Unit Testing -->
<g id="edge6" class="edge">
<title>Back-End-&gt;Unit Testing</title>
<path fill="none" stroke="#000000" d="M1669.5833,-115.7544C1682.6561,-106.217 1696.7005,-95.9708 1710.1039,-86.1921"/>
<polygon fill="#000000" stroke="#000000" points="1712.3365,-88.8958 1718.3523,-80.1745 1708.2108,-83.2408 1712.3365,-88.8958"/>
</g>
<!-- CI/CD -->
<g id="node8" class="node">
<title>CI/CD</title>
<polygon fill="#b2dfee" stroke="#b2dfee" points="2126.409,-80 1950.429,-80 1950.429,0 2126.409,0 2126.409,-80"/>
<text text-anchor="middle" x="2038.419" y="-22" font-family="Times,serif" font-size="60.00" fill="#000000">CI/CD</text>
</g>
<!-- Back&#45;End&#45;&gt;CI/CD -->
<g id="edge7" class="edge">
<title>Back-End-&gt;CI/CD</title>
<path fill="none" stroke="#000000" d="M1742.6775,-131.2461C1800.8006,-118.8056 1870.3231,-102.2219 1940.4581,-80.1736"/>
<polygon fill="#000000" stroke="#000000" points="1941.888,-83.3917 1950.3574,-77.0261 1939.7669,-76.7208 1941.888,-83.3917"/>
</g>
<!-- Librarys -->
<g id="node9" class="node">
<title>Librarys</title>
<polygon fill="#b2dfee" stroke="#b2dfee" points="2364.1631,-80 2144.6749,-80 2144.6749,0 2364.1631,0 2364.1631,-80"/>
<text text-anchor="middle" x="2254.419" y="-22" font-family="Times,serif" font-size="60.00" fill="#000000">Librarys</text>
</g>
<!-- Back&#45;End&#45;&gt;Librarys -->
<g id="edge8" class="edge">
<title>Back-End-&gt;Librarys</title>
<path fill="none" stroke="#000000" d="M1742.4955,-143.799C1846.2187,-132.4115 1995.9579,-112.5594 2134.7539,-80.0325"/>
<polygon fill="#000000" stroke="#000000" points="2135.8043,-83.3805 2144.7275,-77.6686 2134.1899,-76.5692 2135.8043,-83.3805"/>
</g>
<!-- IO -->
<g id="node10" class="node">
<title>IO</title>
<polygon fill="#b2dfee" stroke="#b2dfee" points="2461.2075,-80 2381.6305,-80 2381.6305,0 2461.2075,0 2461.2075,-80"/>
<text text-anchor="middle" x="2421.419" y="-22" font-family="Times,serif" font-size="60.00" fill="#000000">IO</text>
</g>
<!-- Back&#45;End&#45;&gt;IO -->
<g id="edge9" class="edge">
<title>Back-End-&gt;IO</title>
<path fill="none" stroke="#000000" d="M1742.4575,-152.2216C1923.6037,-145.3914 2245.8642,-127.3798 2372.211,-79.6629"/>
<polygon fill="#000000" stroke="#000000" points="2373.6974,-82.838 2381.6809,-75.8727 2371.0963,-76.3391 2373.6974,-82.838"/>
</g>
<!-- Logs -->
<g id="node11" class="node">
<title>Logs</title>
<polygon fill="#b2dfee" stroke="#b2dfee" points="2615.407,-80 2479.431,-80 2479.431,0 2615.407,0 2615.407,-80"/>
<text text-anchor="middle" x="2547.419" y="-22" font-family="Times,serif" font-size="60.00" fill="#000000">Logs</text>
</g>
<!-- Back&#45;End&#45;&gt;Logs -->
<g id="edge10" class="edge">
<title>Back-End-&gt;Logs</title>
<path fill="none" stroke="#000000" d="M1742.3694,-150.7379C1942.1599,-141.5202 2319.9429,-119.8077 2469.2075,-79.9322"/>
<polygon fill="#000000" stroke="#000000" points="2470.4433,-83.2208 2479.1296,-77.1547 2468.5562,-76.48 2470.4433,-83.2208"/>
</g>
</g>
</svg>