<?xml version="1.0" encoding="UTF-8" standalone="no"?><!DOCTYPE svg PUBLIC "-//W3C//DTD SVG 1.1//EN" "http://www.w3.org/Graphics/SVG/1.1/DTD/svg11.dtd"><!-- Generated by graphviz version 2.40.1 (20161225.0304)
 --><!-- Title: devskills Pages: 1 --><svg xmlns="http://www.w3.org/2000/svg" xmlns:xlink="http://www.w3.org/1999/xlink" width="1214pt" height="602pt" viewBox="7.20 7.20 1207.20 594.82">
<g id="graph0" class="graph" transform="scale(.493 .493) rotate(0) translate(18.6052 1202.6052)">
<title>devskills</title>
<polygon fill="#ffffff" stroke="transparent" points="-4,4 -4,-1188 2430.207,-1188 2430.207,4 -4,4"/>
<!-- Command Line -->
<g id="node1" class="node">
<title>Command Line</title>
<polygon fill="#666666" stroke="#666666" points="1495.261,-1184 1104.345,-1184 1104.345,-1104 1495.261,-1104 1495.261,-1184"/>
<text text-anchor="middle" x="1299.803" y="-1126" font-family="Times,serif" font-size="60.00" fill="#000000">Command Line</text>
</g>
<!-- Linux -->
<g id="node2" class="node">
<title>Linux</title>
<polygon fill="#b2dfee" stroke="#b2dfee" points="1260.6313,-816 1100.9747,-816 1100.9747,-736 1260.6313,-736 1260.6313,-816"/>
<text text-anchor="middle" x="1180.803" y="-758" font-family="Times,serif" font-size="60.00" fill="#000000">Linux</text>
</g>
<!-- Command Line&#45;&gt;Linux -->
<g id="edge1" class="edge">
<title>Command Line-&gt;Linux</title>
<path fill="none" stroke="#000000" d="M1286.8414,-1103.917C1264.9343,-1036.1707 1220.6496,-899.2232 1196.8294,-825.5607"/>
<polygon fill="#000000" stroke="#000000" points="1200.1557,-824.4715 1193.7486,-816.0336 1193.4953,-826.6254 1200.1557,-824.4715"/>
</g>
<!-- Windows -->
<g id="node3" class="node">
<title>Windows</title>
<polygon fill="#b2dfee" stroke="#b2dfee" points="1627.759,-816 1381.847,-816 1381.847,-736 1627.759,-736 1627.759,-816"/>
<text text-anchor="middle" x="1504.803" y="-758" font-family="Times,serif" font-size="60.00" fill="#000000">Windows</text>
</g>
<!-- Command Line&#45;&gt;Windows -->
<g id="edge2" class="edge">
<title>Command Line-&gt;Windows</title>
<path fill="none" stroke="#000000" d="M1322.1318,-1103.917C1359.948,-1036.0324 1436.4712,-898.664 1477.4452,-825.1105"/>
<polygon fill="#000000" stroke="#000000" points="1480.6927,-826.4728 1482.5017,-816.0336 1474.5775,-823.0663 1480.6927,-826.4728"/>
</g>
<!-- Bash Shell -->
<g id="node6" class="node">
<title>Bash Shell</title>
<polygon fill="#b2dfee" stroke="#b2dfee" points="1233.1212,-448 958.4848,-448 958.4848,-368 1233.1212,-368 1233.1212,-448"/>
<text text-anchor="middle" x="1095.803" y="-390" font-family="Times,serif" font-size="60.00" fill="#000000">Bash Shell</text>
</g>
<!-- Linux&#45;&gt;Bash Shell -->
<g id="edge5" class="edge">
<title>Linux-&gt;Bash Shell</title>
<path fill="none" stroke="#000000" d="M1171.5447,-735.917C1155.9287,-668.3089 1124.3939,-531.7819 1107.3548,-458.0125"/>
<polygon fill="#000000" stroke="#000000" points="1110.7107,-456.9893 1105.0499,-448.0336 1103.8903,-458.5647 1110.7107,-456.9893"/>
</g>
<!-- Powershell -->
<g id="node4" class="node">
<title>Powershell</title>
<polygon fill="#b2dfee" stroke="#b2dfee" points="1645.8953,-448 1363.7107,-448 1363.7107,-368 1645.8953,-368 1645.8953,-448"/>
<text text-anchor="middle" x="1504.803" y="-390" font-family="Times,serif" font-size="60.00" fill="#000000">Powershell</text>
</g>
<!-- Windows&#45;&gt;Powershell -->
<g id="edge3" class="edge">
<title>Windows-&gt;Powershell</title>
<path fill="none" stroke="#000000" d="M1504.803,-735.917C1504.803,-668.4472 1504.803,-532.34 1504.803,-458.4659"/>
<polygon fill="#000000" stroke="#000000" points="1508.3031,-458.0335 1504.803,-448.0336 1501.3031,-458.0336 1508.3031,-458.0335"/>
</g>
<!-- CMD -->
<g id="node5" class="node">
<title>CMD</title>
<polygon fill="#b2dfee" stroke="#b2dfee" points="1834.9654,-448 1682.6406,-448 1682.6406,-368 1834.9654,-368 1834.9654,-448"/>
<text text-anchor="middle" x="1758.803" y="-390" font-family="Times,serif" font-size="60.00" fill="#000000">CMD</text>
</g>
<!-- Windows&#45;&gt;CMD -->
<g id="edge4" class="edge">
<title>Windows-&gt;CMD</title>
<path fill="none" stroke="#000000" d="M1532.469,-735.917C1579.4195,-667.8942 1674.5246,-530.1041 1725.2157,-456.6619"/>
<polygon fill="#000000" stroke="#000000" points="1728.3711,-458.2517 1731.1711,-448.0336 1722.6101,-454.2754 1728.3711,-458.2517"/>
</g>
<!-- ls -->
<g id="node7" class="node">
<title>ls</title>
<polygon fill="#b2dfee" stroke="#b2dfee" points="1123.811,-80 1067.795,-80 1067.795,0 1123.811,0 1123.811,-80"/>
<text text-anchor="middle" x="1095.803" y="-22" font-family="Times,serif" font-size="60.00" fill="#000000">ls</text>
</g>
<!-- Powershell&#45;&gt;ls -->
<g id="edge9" class="edge">
<title>Powershell-&gt;ls</title>
<path fill="none" stroke="#000000" d="M1460.2542,-367.917C1378.5524,-294.4053 1206.2919,-139.413 1131.6026,-72.2109"/>
<polygon fill="#000000" stroke="#000000" points="1133.6109,-69.3096 1123.8359,-65.2228 1128.9288,-74.5133 1133.6109,-69.3096"/>
</g>
<!-- cd -->
<g id="node8" class="node">
<title>cd</title>
<polygon fill="#b2dfee" stroke="#b2dfee" points="1231.9379,-80 1159.6681,-80 1159.6681,0 1231.9379,0 1231.9379,-80"/>
<text text-anchor="middle" x="1195.803" y="-22" font-family="Times,serif" font-size="60.00" fill="#000000">cd</text>
</g>
<!-- Powershell&#45;&gt;cd -->
<g id="edge10" class="edge">
<title>Powershell-&gt;cd</title>
<path fill="none" stroke="#000000" d="M1471.1464,-367.917C1413.7972,-299.6176 1297.389,-160.9827 1235.9138,-87.7695"/>
<polygon fill="#000000" stroke="#000000" points="1238.529,-85.4412 1229.4181,-80.0336 1233.1682,-89.9425 1238.529,-85.4412"/>
</g>
<!-- mkdir -->
<g id="node9" class="node">
<title>mkdir</title>
<polygon fill="#b2dfee" stroke="#b2dfee" points="1427.6253,-80 1267.9807,-80 1267.9807,0 1427.6253,0 1427.6253,-80"/>
<text text-anchor="middle" x="1347.803" y="-22" font-family="Times,serif" font-size="60.00" fill="#000000">mkdir</text>
</g>
<!-- Powershell&#45;&gt;mkdir -->
<g id="edge11" class="edge">
<title>Powershell-&gt;mkdir</title>
<path fill="none" stroke="#000000" d="M1487.7024,-367.917C1458.7997,-300.1707 1400.3738,-163.2232 1368.9471,-89.5607"/>
<polygon fill="#000000" stroke="#000000" points="1372.026,-87.858 1364.8825,-80.0336 1365.5874,-90.6049 1372.026,-87.858"/>
</g>
<!-- rm -->
<g id="node10" class="node">
<title>rm</title>
<polygon fill="#b2dfee" stroke="#b2dfee" points="1545.9517,-80 1463.6543,-80 1463.6543,0 1545.9517,0 1545.9517,-80"/>
<text text-anchor="middle" x="1504.803" y="-22" font-family="Times,serif" font-size="60.00" fill="#000000">rm</text>
</g>
<!-- Powershell&#45;&gt;rm -->
<g id="edge13" class="edge">
<title>Powershell-&gt;rm</title>
<path fill="none" stroke="#000000" d="M1504.803,-367.917C1504.803,-300.4472 1504.803,-164.34 1504.803,-90.4659"/>
<polygon fill="#000000" stroke="#000000" points="1508.3031,-90.0335 1504.803,-80.0336 1501.3031,-90.0336 1508.3031,-90.0335"/>
</g>
<!-- Object Pipeline -->
<g id="node12" class="node">
<title>Object Pipeline</title>
<polygon fill="#b2dfee" stroke="#b2dfee" points="1969.3772,-80 1582.2288,-80 1582.2288,0 1969.3772,0 1969.3772,-80"/>
<text text-anchor="middle" x="1775.803" y="-22" font-family="Times,serif" font-size="60.00" fill="#000000">Object Pipeline</text>
</g>
<!-- Powershell&#45;&gt;Object Pipeline -->
<g id="edge15" class="edge">
<title>Powershell-&gt;Object Pipeline</title>
<path fill="none" stroke="#000000" d="M1516.7144,-367.917C1554.9235,-299.6176 1656.5938,-160.9827 1721.7519,-87.7695"/>
<polygon fill="#000000" stroke="#000000" points="1724.6291,-89.805 1728.7242,-80.0336 1719.4294,-85.1185 1724.6291,-89.805"/>
</g>
<!-- Powershell&#45;&gt;Object Pipeline -->
<g id="edge17" class="edge">
<title>Powershell-&gt;Object Pipeline</title>
<path fill="none" stroke="#000000" d="M1534.3206,-367.917C1584.5154,-299.7559 1686.2966,-161.5437 1740.2969,-88.2149"/>
<polygon fill="#000000" stroke="#000000" points="1743.2102,-90.1612 1746.3218,-80.0336 1737.5737,-86.0104 1743.2102,-90.1612"/>
</g>
<!-- Powershell&#45;&gt;Object Pipeline -->
<g id="edge19" class="edge">
<title>Powershell-&gt;Object Pipeline</title>
<path fill="none" stroke="#000000" d="M1551.9269,-367.917C1613.9321,-300.0324 1715.5821,-162.664 1758.7139,-89.1105"/>
<polygon fill="#000000" stroke="#000000" points="1761.9807,-90.4495 1763.9193,-80.0336 1755.9083,-86.9672 1761.9807,-90.4495"/>
</g>
<!-- Active Directory -->
<g id="node16" class="node">
<title>Active Directory</title>
<polygon fill="#b2dfee" stroke="#b2dfee" points="2426.111,-80 2005.495,-80 2005.495,0 2426.111,0 2426.111,-80"/>
<text text-anchor="middle" x="2215.803" y="-22" font-family="Times,serif" font-size="60.00" fill="#000000">Active Directory</text>
</g>
<!-- Powershell&#45;&gt;Active Directory -->
<g id="edge21" class="edge">
<title>Powershell-&gt;Active Directory</title>
<path fill="none" stroke="#000000" d="M1582.2459,-367.917C1716.0746,-298.6498 1989.6747,-157.0397 2129.4455,-84.697"/>
<polygon fill="#000000" stroke="#000000" points="2131.1834,-87.7386 2138.4555,-80.0336 2127.9658,-81.5219 2131.1834,-87.7386"/>
</g>
<!-- Bash Shell&#45;&gt;ls -->
<g id="edge6" class="edge">
<title>Bash Shell-&gt;ls</title>
<path fill="none" stroke="#000000" d="M1095.803,-367.917C1095.803,-300.4472 1095.803,-164.34 1095.803,-90.4659"/>
<polygon fill="#000000" stroke="#000000" points="1099.3031,-90.0335 1095.803,-80.0336 1092.3031,-90.0336 1099.3031,-90.0335"/>
</g>
<!-- Bash Shell&#45;&gt;cd -->
<g id="edge7" class="edge">
<title>Bash Shell-&gt;cd</title>
<path fill="none" stroke="#000000" d="M1106.6951,-367.917C1125.0669,-300.3089 1162.1666,-163.7819 1182.2126,-90.0125"/>
<polygon fill="#000000" stroke="#000000" points="1185.6795,-90.6015 1184.9243,-80.0336 1178.9244,-88.7658 1185.6795,-90.6015"/>
</g>
<!-- Bash Shell&#45;&gt;mkdir -->
<g id="edge8" class="edge">
<title>Bash Shell-&gt;mkdir</title>
<path fill="none" stroke="#000000" d="M1123.2511,-367.917C1169.832,-299.8942 1264.1882,-162.1041 1314.4802,-88.6619"/>
<polygon fill="#000000" stroke="#000000" points="1317.6264,-90.262 1320.3887,-80.0336 1311.8508,-86.3069 1317.6264,-90.262"/>
</g>
<!-- Bash Shell&#45;&gt;rm -->
<g id="edge12" class="edge">
<title>Bash Shell-&gt;rm</title>
<path fill="none" stroke="#000000" d="M1140.3518,-367.917C1217.5707,-298.4388 1375.6833,-156.1762 1455.8589,-84.0377"/>
<polygon fill="#000000" stroke="#000000" points="1458.2764,-86.5708 1463.3692,-77.2803 1453.5943,-81.3671 1458.2764,-86.5708"/>
</g>
<!-- Text Pipeline -->
<g id="node11" class="node">
<title>Text Pipeline</title>
<polygon fill="#b2dfee" stroke="#b2dfee" points="337.4092,-80 .1968,-80 .1968,0 337.4092,0 337.4092,-80"/>
<text text-anchor="middle" x="168.803" y="-22" font-family="Times,serif" font-size="60.00" fill="#000000">Text Pipeline</text>
</g>
<!-- Bash Shell&#45;&gt;Text Pipeline -->
<g id="edge14" class="edge">
<title>Bash Shell-&gt;Text Pipeline</title>
<path fill="none" stroke="#000000" d="M994.8331,-367.917C819.564,-298.3388 460.4207,-155.7663 278.951,-83.7265"/>
<polygon fill="#000000" stroke="#000000" points="280.2343,-80.4703 269.6484,-80.0336 277.6514,-86.9764 280.2343,-80.4703"/>
</g>
<!-- echo &#39;string&#39; -->
<g id="node13" class="node">
<title>echo 'string'</title>
<polygon fill="#b2dfee" stroke="#b2dfee" points="694.175,-80 373.431,-80 373.431,0 694.175,0 694.175,-80"/>
<text text-anchor="middle" x="533.803" y="-22" font-family="Times,serif" font-size="60.00" fill="#000000">echo 'string'</text>
</g>
<!-- Bash Shell&#45;&gt;echo &#39;string&#39; -->
<g id="edge16" class="edge">
<title>Bash Shell-&gt;echo 'string'</title>
<path fill="none" stroke="#000000" d="M1034.5893,-367.917C929.2286,-298.9264 714.2678,-158.1691 603.3912,-85.5667"/>
<polygon fill="#000000" stroke="#000000" points="605.2246,-82.5836 594.9412,-80.0336 601.3899,-88.4398 605.2246,-82.5836"/>
</g>
<!-- cat -->
<g id="node14" class="node">
<title>cat</title>
<polygon fill="#b2dfee" stroke="#b2dfee" points="815.745,-80 729.861,-80 729.861,0 815.745,0 815.745,-80"/>
<text text-anchor="middle" x="772.803" y="-22" font-family="Times,serif" font-size="60.00" fill="#000000">cat</text>
</g>
<!-- Bash Shell&#45;&gt;cat -->
<g id="edge18" class="edge">
<title>Bash Shell-&gt;cat</title>
<path fill="none" stroke="#000000" d="M1060.6215,-367.917C1000.6739,-299.6176 878.9916,-160.9827 814.7311,-87.7695"/>
<polygon fill="#000000" stroke="#000000" points="817.1683,-85.2404 807.9412,-80.0336 811.9073,-89.8581 817.1683,-85.2404"/>
</g>
<!-- chmod -->
<g id="node15" class="node">
<title>chmod</title>
<polygon fill="#b2dfee" stroke="#b2dfee" points="1031.6113,-80 851.9947,-80 851.9947,0 1031.6113,0 1031.6113,-80"/>
<text text-anchor="middle" x="941.803" y="-22" font-family="Times,serif" font-size="60.00" fill="#000000">chmod</text>
</g>
<!-- Bash Shell&#45;&gt;chmod -->
<g id="edge20" class="edge">
<title>Bash Shell-&gt;chmod</title>
<path fill="none" stroke="#000000" d="M1079.0291,-367.917C1050.6788,-300.1707 993.3692,-163.2232 962.5431,-89.5607"/>
<polygon fill="#000000" stroke="#000000" points="965.6453,-87.9072 958.5562,-80.0336 959.1879,-90.6096 965.6453,-87.9072"/>
</g>
</g>
</svg>