<?xml version="1.0" encoding="UTF-8" standalone="no"?><!DOCTYPE svg PUBLIC "-//W3C//DTD SVG 1.1//EN" "http://www.w3.org/Graphics/SVG/1.1/DTD/svg11.dtd"><!-- Generated by graphviz version 2.40.1 (20161225.0304)
 --><!-- Title: devskills Pages: 1 --><svg xmlns="http://www.w3.org/2000/svg" xmlns:xlink="http://www.w3.org/1999/xlink" width="1214pt" height="390pt" viewBox="7.20 7.20 1207.20 382.56">
<g id="graph0" class="graph" transform="scale(.1635 .1635) rotate(0) translate(48.0404 2336.0404)">
<title>devskills</title>
<polygon fill="#ffffff" stroke="transparent" points="-4,4 -4,-2292 7336.059,-2292 7336.059,4 -4,4"/>
<!-- Database -->
<g id="node1" class="node">
<title>Database</title>
<polygon fill="#bf5b17" stroke="#bf5b17" points="6048.823,-2288 5813.107,-2288 5813.107,-2208 6048.823,-2208 6048.823,-2288"/>
<text text-anchor="middle" x="5930.965" y="-2230" font-family="Times,serif" font-size="60.00" fill="#000000">Database</text>
</g>
<!-- SQL -->
<g id="node2" class="node">
<title>SQL</title>
<polygon fill="#b2dfee" stroke="#b2dfee" points="5583.7874,-1920 5454.1426,-1920 5454.1426,-1840 5583.7874,-1840 5583.7874,-1920"/>
<text text-anchor="middle" x="5518.965" y="-1862" font-family="Times,serif" font-size="60.00" fill="#000000">SQL</text>
</g>
<!-- Database&#45;&gt;SQL -->
<g id="edge1" class="edge">
<title>Database-&gt;SQL</title>
<path fill="none" stroke="#000000" d="M5886.0895,-2207.917C5809.3143,-2139.3411 5653.155,-1999.859 5571.4541,-1926.8835"/>
<polygon fill="#000000" stroke="#000000" points="5573.5749,-1924.0849 5563.7852,-1920.0336 5568.9117,-1929.3055 5573.5749,-1924.0849"/>
</g>
<!-- NoSQL -->
<g id="node3" class="node">
<title>NoSQL</title>
<polygon fill="#b2dfee" stroke="#b2dfee" points="6445.1013,-1920 6242.8287,-1920 6242.8287,-1840 6445.1013,-1840 6445.1013,-1920"/>
<text text-anchor="middle" x="6343.965" y="-1862" font-family="Times,serif" font-size="60.00" fill="#000000">NoSQL</text>
</g>
<!-- Database&#45;&gt;NoSQL -->
<g id="edge2" class="edge">
<title>Database-&gt;NoSQL</title>
<path fill="none" stroke="#000000" d="M5975.9494,-2207.917C6052.911,-2139.3411 6209.4493,-1999.859 6291.3485,-1926.8835"/>
<polygon fill="#000000" stroke="#000000" points="6293.8983,-1929.2994 6299.036,-1920.0336 6289.2415,-1924.0731 6293.8983,-1929.2994"/>
</g>
<!-- Syntax -->
<g id="node4" class="node">
<title>Syntax</title>
<polygon fill="#b2dfee" stroke="#b2dfee" points="2176.1273,-1552 1993.8027,-1552 1993.8027,-1472 2176.1273,-1472 2176.1273,-1552"/>
<text text-anchor="middle" x="2084.965" y="-1494" font-family="Times,serif" font-size="60.00" fill="#000000">Syntax</text>
</g>
<!-- SQL&#45;&gt;Syntax -->
<g id="edge3" class="edge">
<title>SQL-&gt;Syntax</title>
<path fill="none" stroke="#000000" d="M5454.1882,-1873.0583C5034.6025,-1828.0939 2702.6505,-1578.1934 2186.2402,-1522.853"/>
<polygon fill="#000000" stroke="#000000" points="2186.5172,-1519.3628 2176.2012,-1521.7772 2185.7713,-1526.3229 2186.5172,-1519.3628"/>
</g>
<!-- Language SubTypes -->
<g id="node10" class="node">
<title>Language SubTypes</title>
<polygon fill="#b2dfee" stroke="#b2dfee" points="5772.4972,-1552 5265.4328,-1552 5265.4328,-1472 5772.4972,-1472 5772.4972,-1552"/>
<text text-anchor="middle" x="5518.965" y="-1494" font-family="Times,serif" font-size="60.00" fill="#000000">Language SubTypes</text>
</g>
<!-- SQL&#45;&gt;Language SubTypes -->
<g id="edge9" class="edge">
<title>SQL-&gt;Language SubTypes</title>
<path fill="none" stroke="#000000" d="M5518.965,-1839.917C5518.965,-1772.4472 5518.965,-1636.34 5518.965,-1562.4659"/>
<polygon fill="#000000" stroke="#000000" points="5522.4651,-1562.0335 5518.965,-1552.0336 5515.4651,-1562.0336 5522.4651,-1562.0335"/>
</g>
<!-- Schema&#45;less -->
<g id="node49" class="node">
<title>Schema-less</title>
<polygon fill="#b2dfee" stroke="#b2dfee" points="6124.845,-1552 5809.085,-1552 5809.085,-1472 6124.845,-1472 6124.845,-1552"/>
<text text-anchor="middle" x="5966.965" y="-1494" font-family="Times,serif" font-size="60.00" fill="#000000">Schema-less</text>
</g>
<!-- NoSQL&#45;&gt;Schema&#45;less -->
<g id="edge48" class="edge">
<title>NoSQL-&gt;Schema-less</title>
<path fill="none" stroke="#000000" d="M6302.9017,-1839.917C6232.7904,-1771.4794 6090.3312,-1632.4212 6015.4481,-1559.3257"/>
<polygon fill="#000000" stroke="#000000" points="6017.5785,-1556.5141 6007.9776,-1552.0336 6012.6888,-1561.5233 6017.5785,-1556.5141"/>
</g>
<!-- Non&#45;relational -->
<g id="node50" class="node">
<title>Non-relational</title>
<polygon fill="#b2dfee" stroke="#b2dfee" points="6526.825,-1552 6161.105,-1552 6161.105,-1472 6526.825,-1472 6526.825,-1552"/>
<text text-anchor="middle" x="6343.965" y="-1494" font-family="Times,serif" font-size="60.00" fill="#000000">Non-relational</text>
</g>
<!-- NoSQL&#45;&gt;Non&#45;relational -->
<g id="edge49" class="edge">
<title>NoSQL-&gt;Non-relational</title>
<path fill="none" stroke="#000000" d="M6343.965,-1839.917C6343.965,-1772.4472 6343.965,-1636.34 6343.965,-1562.4659"/>
<polygon fill="#000000" stroke="#000000" points="6347.4651,-1562.0335 6343.965,-1552.0336 6340.4651,-1562.0336 6347.4651,-1562.0335"/>
</g>
<!-- cluster&#45;friendly -->
<g id="node51" class="node">
<title>cluster-friendly</title>
<polygon fill="#b2dfee" stroke="#b2dfee" points="6948.793,-1552 6563.137,-1552 6563.137,-1472 6948.793,-1472 6948.793,-1552"/>
<text text-anchor="middle" x="6755.965" y="-1494" font-family="Times,serif" font-size="60.00" fill="#000000">cluster-friendly</text>
</g>
<!-- NoSQL&#45;&gt;cluster&#45;friendly -->
<g id="edge50" class="edge">
<title>NoSQL-&gt;cluster-friendly</title>
<path fill="none" stroke="#000000" d="M6388.8405,-1839.917C6465.6157,-1771.3411 6621.775,-1631.859 6703.4759,-1558.8835"/>
<polygon fill="#000000" stroke="#000000" points="6706.0183,-1561.3055 6711.1448,-1552.0336 6701.3551,-1556.0849 6706.0183,-1561.3055"/>
</g>
<!-- BASE -->
<g id="node52" class="node">
<title>BASE</title>
<polygon fill="#b2dfee" stroke="#b2dfee" points="7154.8013,-1552 6985.1287,-1552 6985.1287,-1472 7154.8013,-1472 7154.8013,-1552"/>
<text text-anchor="middle" x="7069.965" y="-1494" font-family="Times,serif" font-size="60.00" fill="#000000">BASE</text>
</g>
<!-- NoSQL&#45;&gt;BASE -->
<g id="edge51" class="edge">
<title>NoSQL-&gt;BASE</title>
<path fill="none" stroke="#000000" d="M6423.0418,-1839.917C6559.6938,-1770.6498 6839.0661,-1629.0397 6981.7856,-1556.697"/>
<polygon fill="#000000" stroke="#000000" points="6983.6486,-1559.6767 6990.9857,-1552.0336 6980.4837,-1553.433 6983.6486,-1559.6767"/>
</g>
<!-- SQL Objects -->
<g id="node5" class="node">
<title>SQL Objects</title>
<polygon fill="#b2dfee" stroke="#b2dfee" points="601.5513,-1184 274.3787,-1184 274.3787,-1104 601.5513,-1104 601.5513,-1184"/>
<text text-anchor="middle" x="437.965" y="-1126" font-family="Times,serif" font-size="60.00" fill="#000000">SQL Objects</text>
</g>
<!-- Syntax&#45;&gt;SQL Objects -->
<g id="edge4" class="edge">
<title>Syntax-&gt;SQL Objects</title>
<path fill="none" stroke="#000000" d="M1993.774,-1491.6246C1729.3836,-1432.5501 959.2637,-1260.4772 611.716,-1182.8223"/>
<polygon fill="#000000" stroke="#000000" points="612.3336,-1179.3741 601.811,-1180.6092 610.8071,-1186.2056 612.3336,-1179.3741"/>
</g>
<!-- SQL Operators -->
<g id="node6" class="node">
<title>SQL Operators</title>
<polygon fill="#b2dfee" stroke="#b2dfee" points="1159.325,-1184 778.605,-1184 778.605,-1104 1159.325,-1104 1159.325,-1184"/>
<text text-anchor="middle" x="968.965" y="-1126" font-family="Times,serif" font-size="60.00" fill="#000000">SQL Operators</text>
</g>
<!-- Syntax&#45;&gt;SQL Operators -->
<g id="edge5" class="edge">
<title>Syntax-&gt;SQL Operators</title>
<path fill="none" stroke="#000000" d="M1993.638,-1481.885C1796.312,-1416.8169 1329.533,-1262.897 1100.432,-1187.3511"/>
<polygon fill="#000000" stroke="#000000" points="1101.3015,-1183.9525 1090.7085,-1184.1448 1099.1094,-1190.6004 1101.3015,-1183.9525"/>
</g>
<!-- SQL Keywords -->
<g id="node7" class="node">
<title>SQL Keywords</title>
<polygon fill="#b2dfee" stroke="#b2dfee" points="1849.357,-1184 1458.573,-1184 1458.573,-1104 1849.357,-1104 1849.357,-1184"/>
<text text-anchor="middle" x="1653.965" y="-1126" font-family="Times,serif" font-size="60.00" fill="#000000">SQL Keywords</text>
</g>
<!-- Syntax&#45;&gt;SQL Keywords -->
<g id="edge6" class="edge">
<title>Syntax-&gt;SQL Keywords</title>
<path fill="none" stroke="#000000" d="M2038.02,-1471.917C1957.6232,-1403.272 1794.0139,-1263.5777 1708.6165,-1190.663"/>
<polygon fill="#000000" stroke="#000000" points="1710.7299,-1187.8652 1700.8521,-1184.0336 1706.1845,-1193.1887 1710.7299,-1187.8652"/>
</g>
<!-- SQL Clauses -->
<g id="node8" class="node">
<title>SQL Clauses</title>
<polygon fill="#b2dfee" stroke="#b2dfee" points="2540.411,-1184 2209.519,-1184 2209.519,-1104 2540.411,-1104 2540.411,-1184"/>
<text text-anchor="middle" x="2374.965" y="-1126" font-family="Times,serif" font-size="60.00" fill="#000000">SQL Clauses</text>
</g>
<!-- Syntax&#45;&gt;SQL Clauses -->
<g id="edge7" class="edge">
<title>Syntax-&gt;SQL Clauses</title>
<path fill="none" stroke="#000000" d="M2116.5521,-1471.917C2170.2661,-1403.7559 2279.1833,-1265.5437 2336.9696,-1192.2149"/>
<polygon fill="#000000" stroke="#000000" points="2339.9763,-1194.0542 2343.4168,-1184.0336 2334.4782,-1189.7215 2339.9763,-1194.0542"/>
</g>
<!-- SQL Functions -->
<g id="node9" class="node">
<title>SQL Functions</title>
<polygon fill="#b2dfee" stroke="#b2dfee" points="3969.457,-1184 3588.473,-1184 3588.473,-1104 3969.457,-1104 3969.457,-1184"/>
<text text-anchor="middle" x="3778.965" y="-1126" font-family="Times,serif" font-size="60.00" fill="#000000">SQL Functions</text>
</g>
<!-- Syntax&#45;&gt;SQL Functions -->
<g id="edge8" class="edge">
<title>Syntax-&gt;SQL Functions</title>
<path fill="none" stroke="#000000" d="M2176.3419,-1492.1495C2442.1648,-1434.4029 3219.3679,-1265.5654 3584.8165,-1186.1763"/>
<polygon fill="#000000" stroke="#000000" points="3585.678,-1189.5709 3594.707,-1184.0277 3584.1919,-1182.7304 3585.678,-1189.5709"/>
</g>
<!-- Tables -->
<g id="node46" class="node">
<title>Tables</title>
<polygon fill="#b2dfee" stroke="#b2dfee" points="175.895,-816 .035,-816 .035,-736 175.895,-736 175.895,-816"/>
<text text-anchor="middle" x="87.965" y="-758" font-family="Times,serif" font-size="60.00" fill="#000000">Tables</text>
</g>
<!-- SQL Objects&#45;&gt;Tables -->
<g id="edge45" class="edge">
<title>SQL Objects-&gt;Tables</title>
<path fill="none" stroke="#000000" d="M399.8426,-1103.917C334.7525,-1035.4794 202.496,-896.4212 132.9758,-823.3257"/>
<polygon fill="#000000" stroke="#000000" points="135.4682,-820.8676 126.0404,-816.0336 130.3959,-825.6917 135.4682,-820.8676"/>
</g>
<!-- Views -->
<g id="node47" class="node">
<title>Views</title>
<polygon fill="#b2dfee" stroke="#b2dfee" points="381.7352,-816 212.1948,-816 212.1948,-736 381.7352,-736 381.7352,-816"/>
<text text-anchor="middle" x="296.965" y="-758" font-family="Times,serif" font-size="60.00" fill="#000000">Views</text>
</g>
<!-- SQL Objects&#45;&gt;Views -->
<g id="edge46" class="edge">
<title>SQL Objects-&gt;Views</title>
<path fill="none" stroke="#000000" d="M422.6071,-1103.917C396.65,-1036.1707 344.1782,-899.2232 315.9543,-825.5607"/>
<polygon fill="#000000" stroke="#000000" points="319.1502,-824.1193 312.3039,-816.0336 312.6136,-826.6239 319.1502,-824.1193"/>
</g>
<!-- Stored Procs -->
<g id="node48" class="node">
<title>Stored Procs</title>
<polygon fill="#b2dfee" stroke="#b2dfee" points="738.397,-816 417.533,-816 417.533,-736 738.397,-736 738.397,-816"/>
<text text-anchor="middle" x="577.965" y="-758" font-family="Times,serif" font-size="60.00" fill="#000000">Stored Procs</text>
</g>
<!-- SQL Objects&#45;&gt;Stored Procs -->
<g id="edge47" class="edge">
<title>SQL Objects-&gt;Stored Procs</title>
<path fill="none" stroke="#000000" d="M453.214,-1103.917C478.987,-1036.1707 531.0866,-899.2232 559.1104,-825.5607"/>
<polygon fill="#000000" stroke="#000000" points="562.4503,-826.6246 562.7348,-816.0336 555.9078,-824.1355 562.4503,-826.6246"/>
</g>
<!-- Like -->
<g id="node30" class="node">
<title>Like</title>
<polygon fill="#b2dfee" stroke="#b2dfee" points="899.927,-816 774.003,-816 774.003,-736 899.927,-736 899.927,-816"/>
<text text-anchor="middle" x="836.965" y="-758" font-family="Times,serif" font-size="60.00" fill="#000000">Like</text>
</g>
<!-- SQL Operators&#45;&gt;Like -->
<g id="edge29" class="edge">
<title>SQL Operators-&gt;Like</title>
<path fill="none" stroke="#000000" d="M954.5874,-1103.917C930.2871,-1036.1707 881.1646,-899.2232 854.7422,-825.5607"/>
<polygon fill="#000000" stroke="#000000" points="857.9957,-824.2646 851.3249,-816.0336 851.4068,-826.6281 857.9957,-824.2646"/>
</g>
<!-- In -->
<g id="node31" class="node">
<title>In</title>
<polygon fill="#b2dfee" stroke="#b2dfee" points="1001.939,-816 935.991,-816 935.991,-736 1001.939,-736 1001.939,-816"/>
<text text-anchor="middle" x="968.965" y="-758" font-family="Times,serif" font-size="60.00" fill="#000000">In</text>
</g>
<!-- SQL Operators&#45;&gt;In -->
<g id="edge30" class="edge">
<title>SQL Operators-&gt;In</title>
<path fill="none" stroke="#000000" d="M968.965,-1103.917C968.965,-1036.4472 968.965,-900.34 968.965,-826.4659"/>
<polygon fill="#000000" stroke="#000000" points="972.4651,-826.0335 968.965,-816.0336 965.4651,-826.0336 972.4651,-826.0335"/>
</g>
<!-- ORDER BY -->
<g id="node27" class="node">
<title>ORDER BY</title>
<polygon fill="#b2dfee" stroke="#b2dfee" points="1355.6032,-816 1038.3268,-816 1038.3268,-736 1355.6032,-736 1355.6032,-816"/>
<text text-anchor="middle" x="1196.965" y="-758" font-family="Times,serif" font-size="60.00" fill="#000000">ORDER BY</text>
</g>
<!-- SQL Keywords&#45;&gt;ORDER BY -->
<g id="edge26" class="edge">
<title>SQL Keywords-&gt;ORDER BY</title>
<path fill="none" stroke="#000000" d="M1604.188,-1103.917C1518.8555,-1035.2029 1345.1129,-895.2963 1254.64,-822.4429"/>
<polygon fill="#000000" stroke="#000000" points="1256.6645,-819.5794 1246.6806,-816.0336 1252.2741,-825.0315 1256.6645,-819.5794"/>
</g>
<!-- AS (Alias a Column) -->
<g id="node29" class="node">
<title>AS (Alias a Column)</title>
<polygon fill="#b2dfee" stroke="#b2dfee" points="1916.2071,-816 1391.7229,-816 1391.7229,-736 1916.2071,-736 1916.2071,-816"/>
<text text-anchor="middle" x="1653.965" y="-758" font-family="Times,serif" font-size="60.00" fill="#000000">AS (Alias a Column)</text>
</g>
<!-- SQL Keywords&#45;&gt;AS (Alias a Column) -->
<g id="edge28" class="edge">
<title>SQL Keywords-&gt;AS (Alias a Column)</title>
<path fill="none" stroke="#000000" d="M1653.965,-1103.917C1653.965,-1036.4472 1653.965,-900.34 1653.965,-826.4659"/>
<polygon fill="#000000" stroke="#000000" points="1657.4651,-826.0335 1653.965,-816.0336 1650.4651,-826.0336 1657.4651,-826.0335"/>
</g>
<!-- Where -->
<g id="node32" class="node">
<title>Where</title>
<polygon fill="#b2dfee" stroke="#b2dfee" points="2127.841,-816 1952.089,-816 1952.089,-736 2127.841,-736 2127.841,-816"/>
<text text-anchor="middle" x="2039.965" y="-758" font-family="Times,serif" font-size="60.00" fill="#000000">Where</text>
</g>
<!-- SQL Clauses&#45;&gt;Where -->
<g id="edge31" class="edge">
<title>SQL Clauses-&gt;Where</title>
<path fill="none" stroke="#000000" d="M2338.4764,-1103.917C2276.3017,-1035.6176 2150.0987,-896.9827 2083.4508,-823.7695"/>
<polygon fill="#000000" stroke="#000000" points="2085.7286,-821.0723 2076.4086,-816.0336 2080.5522,-825.7846 2085.7286,-821.0723"/>
</g>
<!-- Joins -->
<g id="node33" class="node">
<title>Joins</title>
<polygon fill="#b2dfee" stroke="#b2dfee" points="2303.8074,-816 2164.1226,-816 2164.1226,-736 2303.8074,-736 2303.8074,-816"/>
<text text-anchor="middle" x="2233.965" y="-758" font-family="Times,serif" font-size="60.00" fill="#000000">Joins</text>
</g>
<!-- SQL Clauses&#45;&gt;Joins -->
<g id="edge32" class="edge">
<title>SQL Clauses-&gt;Joins</title>
<path fill="none" stroke="#000000" d="M2359.6071,-1103.917C2333.65,-1036.1707 2281.1782,-899.2232 2252.9543,-825.5607"/>
<polygon fill="#000000" stroke="#000000" points="2256.1502,-824.1193 2249.3039,-816.0336 2249.6136,-826.6239 2256.1502,-824.1193"/>
</g>
<!-- Where Clause -->
<g id="node37" class="node">
<title>Where Clause</title>
<polygon fill="#b2dfee" stroke="#b2dfee" points="2694.131,-816 2339.799,-816 2339.799,-736 2694.131,-736 2694.131,-816"/>
<text text-anchor="middle" x="2516.965" y="-758" font-family="Times,serif" font-size="60.00" fill="#000000">Where Clause</text>
</g>
<!-- SQL Clauses&#45;&gt;Where Clause -->
<g id="edge36" class="edge">
<title>SQL Clauses-&gt;Where Clause</title>
<path fill="none" stroke="#000000" d="M2390.4318,-1103.917C2416.5731,-1036.1707 2469.4169,-899.2232 2497.841,-825.5607"/>
<polygon fill="#000000" stroke="#000000" points="2501.1826,-826.6231 2501.5173,-816.0336 2494.6519,-824.1031 2501.1826,-826.6231"/>
</g>
<!-- Union Clause -->
<g id="node38" class="node">
<title>Union Clause</title>
<polygon fill="#b2dfee" stroke="#b2dfee" points="3074.2431,-816 2729.6869,-816 2729.6869,-736 3074.2431,-736 3074.2431,-816"/>
<text text-anchor="middle" x="2901.965" y="-758" font-family="Times,serif" font-size="60.00" fill="#000000">Union Clause</text>
</g>
<!-- SQL Clauses&#45;&gt;Union Clause -->
<g id="edge37" class="edge">
<title>SQL Clauses-&gt;Union Clause</title>
<path fill="none" stroke="#000000" d="M2432.3664,-1103.917C2531.0666,-1034.9955 2732.3352,-894.4511 2836.3977,-821.7851"/>
<polygon fill="#000000" stroke="#000000" points="2838.4393,-824.6284 2844.6343,-816.0336 2834.4316,-818.8892 2838.4393,-824.6284"/>
</g>
<!-- Having Clause -->
<g id="node39" class="node">
<title>Having Clause</title>
<polygon fill="#b2dfee" stroke="#b2dfee" points="3481.377,-816 3110.553,-816 3110.553,-736 3481.377,-736 3481.377,-816"/>
<text text-anchor="middle" x="3295.965" y="-758" font-family="Times,serif" font-size="60.00" fill="#000000">Having Clause</text>
</g>
<!-- SQL Clauses&#45;&gt;Having Clause -->
<g id="edge38" class="edge">
<title>SQL Clauses-&gt;Having Clause</title>
<path fill="none" stroke="#000000" d="M2475.2814,-1103.917C2649.3296,-1034.3733 3005.8803,-891.9079 3186.2611,-819.8339"/>
<polygon fill="#000000" stroke="#000000" points="3187.7848,-822.9942 3195.7723,-816.0336 3185.1875,-816.4939 3187.7848,-822.9942"/>
</g>
<!-- COUNT() -->
<g id="node24" class="node">
<title>COUNT()</title>
<polygon fill="#b2dfee" stroke="#b2dfee" points="3780.0234,-816 3517.9066,-816 3517.9066,-736 3780.0234,-736 3780.0234,-816"/>
<text text-anchor="middle" x="3648.965" y="-758" font-family="Times,serif" font-size="60.00" fill="#000000">COUNT()</text>
</g>
<!-- SQL Functions&#45;&gt;COUNT() -->
<g id="edge23" class="edge">
<title>SQL Functions-&gt;COUNT()</title>
<path fill="none" stroke="#000000" d="M3764.8052,-1103.917C3740.8731,-1036.1707 3692.4949,-899.2232 3666.4729,-825.5607"/>
<polygon fill="#000000" stroke="#000000" points="3669.7384,-824.2967 3663.1073,-816.0336 3663.1381,-826.6284 3669.7384,-824.2967"/>
</g>
<!-- AVG() -->
<g id="node25" class="node">
<title>AVG()</title>
<polygon fill="#b2dfee" stroke="#b2dfee" points="4001.855,-816 3816.075,-816 3816.075,-736 4001.855,-736 4001.855,-816"/>
<text text-anchor="middle" x="3908.965" y="-758" font-family="Times,serif" font-size="60.00" fill="#000000">AVG()</text>
</g>
<!-- SQL Functions&#45;&gt;AVG() -->
<g id="edge24" class="edge">
<title>SQL Functions-&gt;AVG()</title>
<path fill="none" stroke="#000000" d="M3793.1248,-1103.917C3817.0569,-1036.1707 3865.4351,-899.2232 3891.4571,-825.5607"/>
<polygon fill="#000000" stroke="#000000" points="3894.7919,-826.6284 3894.8227,-816.0336 3888.1916,-824.2967 3894.7919,-826.6284"/>
</g>
<!-- SUM() -->
<g id="node26" class="node">
<title>SUM()</title>
<polygon fill="#b2dfee" stroke="#b2dfee" points="4223.915,-816 4038.015,-816 4038.015,-736 4223.915,-736 4223.915,-816"/>
<text text-anchor="middle" x="4130.965" y="-758" font-family="Times,serif" font-size="60.00" fill="#000000">SUM()</text>
</g>
<!-- SQL Functions&#45;&gt;SUM() -->
<g id="edge25" class="edge">
<title>SQL Functions-&gt;SUM()</title>
<path fill="none" stroke="#000000" d="M3817.3052,-1103.917C3882.7673,-1035.4794 4015.7795,-896.4212 4085.697,-823.3257"/>
<polygon fill="#000000" stroke="#000000" points="4088.289,-825.6793 4092.672,-816.0336 4083.2305,-820.8407 4088.289,-825.6793"/>
</g>
<!-- DDL -->
<g id="node11" class="node">
<title>DDL</title>
<polygon fill="#b2dfee" stroke="#b2dfee" points="4948.7473,-1184 4809.1827,-1184 4809.1827,-1104 4948.7473,-1104 4948.7473,-1184"/>
<text text-anchor="middle" x="4878.965" y="-1126" font-family="Times,serif" font-size="60.00" fill="#000000">DDL</text>
</g>
<!-- Language SubTypes&#45;&gt;DDL -->
<g id="edge10" class="edge">
<title>Language SubTypes-&gt;DDL</title>
<path fill="none" stroke="#000000" d="M5449.2555,-1471.917C5329.0313,-1402.7881 5083.4949,-1261.6047 4957.4537,-1189.131"/>
<polygon fill="#000000" stroke="#000000" points="4959.0023,-1185.9841 4948.5886,-1184.0336 4955.513,-1192.0525 4959.0023,-1185.9841"/>
</g>
<!-- DML -->
<g id="node12" class="node">
<title>DML</title>
<polygon fill="#b2dfee" stroke="#b2dfee" points="5593.7673,-1184 5444.1627,-1184 5444.1627,-1104 5593.7673,-1104 5593.7673,-1184"/>
<text text-anchor="middle" x="5518.965" y="-1126" font-family="Times,serif" font-size="60.00" fill="#000000">DML</text>
</g>
<!-- Language SubTypes&#45;&gt;DML -->
<g id="edge11" class="edge">
<title>Language SubTypes-&gt;DML</title>
<path fill="none" stroke="#000000" d="M5518.965,-1471.917C5518.965,-1404.4472 5518.965,-1268.34 5518.965,-1194.4659"/>
<polygon fill="#000000" stroke="#000000" points="5522.4651,-1194.0335 5518.965,-1184.0336 5515.4651,-1194.0336 5522.4651,-1194.0335"/>
</g>
<!-- DCL -->
<g id="node13" class="node">
<title>DCL</title>
<polygon fill="#b2dfee" stroke="#b2dfee" points="5877.947,-1184 5741.983,-1184 5741.983,-1104 5877.947,-1104 5877.947,-1184"/>
<text text-anchor="middle" x="5809.965" y="-1126" font-family="Times,serif" font-size="60.00" fill="#000000">DCL</text>
</g>
<!-- Language SubTypes&#45;&gt;DCL -->
<g id="edge12" class="edge">
<title>Language SubTypes-&gt;DCL</title>
<path fill="none" stroke="#000000" d="M5550.6611,-1471.917C5604.5602,-1403.7559 5713.853,-1265.5437 5771.8385,-1192.2149"/>
<polygon fill="#000000" stroke="#000000" points="5774.8507,-1194.0484 5778.308,-1184.0336 5769.3599,-1189.7066 5774.8507,-1194.0484"/>
</g>
<!-- TCL -->
<g id="node14" class="node">
<title>TCL</title>
<polygon fill="#b2dfee" stroke="#b2dfee" points="6448.7874,-1184 6319.1426,-1184 6319.1426,-1104 6448.7874,-1104 6448.7874,-1184"/>
<text text-anchor="middle" x="6383.965" y="-1126" font-family="Times,serif" font-size="60.00" fill="#000000">TCL</text>
</g>
<!-- Language SubTypes&#45;&gt;TCL -->
<g id="edge13" class="edge">
<title>Language SubTypes-&gt;TCL</title>
<path fill="none" stroke="#000000" d="M5613.1818,-1471.917C5786.4531,-1398.2016 6152.3114,-1242.5532 6309.5605,-1175.6542"/>
<polygon fill="#000000" stroke="#000000" points="6311.3279,-1178.7059 6319.1596,-1171.5704 6308.5875,-1172.2646 6311.3279,-1178.7059"/>
</g>
<!-- CREATE -->
<g id="node19" class="node">
<title>CREATE</title>
<polygon fill="#b2dfee" stroke="#b2dfee" points="4509.7692,-816 4260.1608,-816 4260.1608,-736 4509.7692,-736 4509.7692,-816"/>
<text text-anchor="middle" x="4384.965" y="-758" font-family="Times,serif" font-size="60.00" fill="#000000">CREATE</text>
</g>
<!-- DDL&#45;&gt;CREATE -->
<g id="edge18" class="edge">
<title>DDL-&gt;CREATE</title>
<path fill="none" stroke="#000000" d="M4825.1579,-1103.917C4732.8239,-1035.1337 4544.7293,-895.0147 4447.0147,-822.2232"/>
<polygon fill="#000000" stroke="#000000" points="4448.8161,-819.2008 4438.7057,-816.0336 4444.6343,-824.8144 4448.8161,-819.2008"/>
</g>
<!-- ALTER -->
<g id="node20" class="node">
<title>ALTER</title>
<polygon fill="#b2dfee" stroke="#b2dfee" points="4754.7552,-816 4545.1748,-816 4545.1748,-736 4754.7552,-736 4754.7552,-816"/>
<text text-anchor="middle" x="4649.965" y="-758" font-family="Times,serif" font-size="60.00" fill="#000000">ALTER</text>
</g>
<!-- DDL&#45;&gt;ALTER -->
<g id="edge19" class="edge">
<title>DDL-&gt;ALTER</title>
<path fill="none" stroke="#000000" d="M4854.0221,-1103.917C4811.6926,-1035.8942 4725.9483,-898.1041 4680.2465,-824.6619"/>
<polygon fill="#000000" stroke="#000000" points="4683.1322,-822.6747 4674.8772,-816.0336 4677.189,-826.3731 4683.1322,-822.6747"/>
</g>
<!-- DROP -->
<g id="node21" class="node">
<title>DROP</title>
<polygon fill="#b2dfee" stroke="#b2dfee" points="4966.961,-816 4790.969,-816 4790.969,-736 4966.961,-736 4966.961,-816"/>
<text text-anchor="middle" x="4878.965" y="-758" font-family="Times,serif" font-size="60.00" fill="#000000">DROP</text>
</g>
<!-- DDL&#45;&gt;DROP -->
<g id="edge20" class="edge">
<title>DDL-&gt;DROP</title>
<path fill="none" stroke="#000000" d="M4878.965,-1103.917C4878.965,-1036.4472 4878.965,-900.34 4878.965,-826.4659"/>
<polygon fill="#000000" stroke="#000000" points="4882.4651,-826.0335 4878.965,-816.0336 4875.4651,-826.0336 4882.4651,-826.0335"/>
</g>
<!-- TRUNCATE -->
<g id="node22" class="node">
<title>TRUNCATE</title>
<polygon fill="#b2dfee" stroke="#b2dfee" points="5338.897,-816 5003.033,-816 5003.033,-736 5338.897,-736 5338.897,-816"/>
<text text-anchor="middle" x="5170.965" y="-758" font-family="Times,serif" font-size="60.00" fill="#000000">TRUNCATE</text>
</g>
<!-- DDL&#45;&gt;TRUNCATE -->
<g id="edge21" class="edge">
<title>DDL-&gt;TRUNCATE</title>
<path fill="none" stroke="#000000" d="M4910.77,-1103.917C4964.8543,-1035.7559 5074.5227,-897.5437 5132.7075,-824.2149"/>
<polygon fill="#000000" stroke="#000000" points="5135.7252,-826.0427 5139.1992,-816.0336 5130.2417,-821.6916 5135.7252,-826.0427"/>
</g>
<!-- SQL Verbs -->
<g id="node23" class="node">
<title>SQL Verbs</title>
<polygon fill="#b2dfee" stroke="#b2dfee" points="5662.5433,-816 5375.3867,-816 5375.3867,-736 5662.5433,-736 5662.5433,-816"/>
<text text-anchor="middle" x="5518.965" y="-758" font-family="Times,serif" font-size="60.00" fill="#000000">SQL Verbs</text>
</g>
<!-- DML&#45;&gt;SQL Verbs -->
<g id="edge22" class="edge">
<title>DML-&gt;SQL Verbs</title>
<path fill="none" stroke="#000000" d="M5518.965,-1103.917C5518.965,-1036.4472 5518.965,-900.34 5518.965,-826.4659"/>
<polygon fill="#000000" stroke="#000000" points="5522.4651,-826.0335 5518.965,-816.0336 5515.4651,-826.0336 5522.4651,-826.0335"/>
</g>
<!-- GRANT -->
<g id="node15" class="node">
<title>GRANT</title>
<polygon fill="#b2dfee" stroke="#b2dfee" points="5921.0753,-816 5698.8547,-816 5698.8547,-736 5921.0753,-736 5921.0753,-816"/>
<text text-anchor="middle" x="5809.965" y="-758" font-family="Times,serif" font-size="60.00" fill="#000000">GRANT</text>
</g>
<!-- DCL&#45;&gt;GRANT -->
<g id="edge14" class="edge">
<title>DCL-&gt;GRANT</title>
<path fill="none" stroke="#000000" d="M5809.965,-1103.917C5809.965,-1036.4472 5809.965,-900.34 5809.965,-826.4659"/>
<polygon fill="#000000" stroke="#000000" points="5813.4651,-826.0335 5809.965,-816.0336 5806.4651,-826.0336 5813.4651,-826.0335"/>
</g>
<!-- REVOKE -->
<g id="node16" class="node">
<title>REVOKE</title>
<polygon fill="#b2dfee" stroke="#b2dfee" points="6216.7291,-816 5957.2009,-816 5957.2009,-736 6216.7291,-736 6216.7291,-816"/>
<text text-anchor="middle" x="6086.965" y="-758" font-family="Times,serif" font-size="60.00" fill="#000000">REVOKE</text>
</g>
<!-- DCL&#45;&gt;REVOKE -->
<g id="edge15" class="edge">
<title>DCL-&gt;REVOKE</title>
<path fill="none" stroke="#000000" d="M5840.1362,-1103.917C5891.4422,-1035.7559 5995.4769,-897.5437 6050.6728,-824.2149"/>
<polygon fill="#000000" stroke="#000000" points="6053.6135,-826.128 6056.831,-816.0336 6048.0208,-821.9183 6053.6135,-826.128"/>
</g>
<!-- COMMIT -->
<g id="node17" class="node">
<title>COMMIT</title>
<polygon fill="#b2dfee" stroke="#b2dfee" points="6515.0893,-816 6252.8407,-816 6252.8407,-736 6515.0893,-736 6515.0893,-816"/>
<text text-anchor="middle" x="6383.965" y="-758" font-family="Times,serif" font-size="60.00" fill="#000000">COMMIT</text>
</g>
<!-- TCL&#45;&gt;COMMIT -->
<g id="edge16" class="edge">
<title>TCL-&gt;COMMIT</title>
<path fill="none" stroke="#000000" d="M6383.965,-1103.917C6383.965,-1036.4472 6383.965,-900.34 6383.965,-826.4659"/>
<polygon fill="#000000" stroke="#000000" points="6387.4651,-826.0335 6383.965,-816.0336 6380.4651,-826.0336 6387.4651,-826.0335"/>
</g>
<!-- ROLLBACK -->
<g id="node18" class="node">
<title>ROLLBACK</title>
<polygon fill="#b2dfee" stroke="#b2dfee" points="6890.7571,-816 6551.1729,-816 6551.1729,-736 6890.7571,-736 6890.7571,-816"/>
<text text-anchor="middle" x="6720.965" y="-758" font-family="Times,serif" font-size="60.00" fill="#000000">ROLLBACK</text>
</g>
<!-- TCL&#45;&gt;ROLLBACK -->
<g id="edge17" class="edge">
<title>TCL-&gt;ROLLBACK</title>
<path fill="none" stroke="#000000" d="M6420.6714,-1103.917C6483.2173,-1035.6176 6610.1738,-896.9827 6677.2196,-823.7695"/>
<polygon fill="#000000" stroke="#000000" points="6680.1314,-825.7722 6684.3038,-816.0336 6674.969,-821.0447 6680.1314,-825.7722"/>
</g>
<!-- Select -->
<g id="node40" class="node">
<title>Select</title>
<polygon fill="#b2dfee" stroke="#b2dfee" points="5199.0695,-448 5036.8605,-448 5036.8605,-368 5199.0695,-368 5199.0695,-448"/>
<text text-anchor="middle" x="5117.965" y="-390" font-family="Times,serif" font-size="60.00" fill="#000000">Select</text>
</g>
<!-- SQL Verbs&#45;&gt;Select -->
<g id="edge39" class="edge">
<title>SQL Verbs-&gt;Select</title>
<path fill="none" stroke="#000000" d="M5475.2876,-735.917C5400.5623,-667.3411 5248.5722,-527.859 5169.0527,-454.8835"/>
<polygon fill="#000000" stroke="#000000" points="5171.3228,-452.2163 5161.5885,-448.0336 5166.5898,-457.3737 5171.3228,-452.2163"/>
</g>
<!-- Insert -->
<g id="node41" class="node">
<title>Insert</title>
<polygon fill="#b2dfee" stroke="#b2dfee" points="5388.0555,-448 5235.8745,-448 5235.8745,-368 5388.0555,-368 5388.0555,-448"/>
<text text-anchor="middle" x="5311.965" y="-390" font-family="Times,serif" font-size="60.00" fill="#000000">Insert</text>
</g>
<!-- SQL Verbs&#45;&gt;Insert -->
<g id="edge40" class="edge">
<title>SQL Verbs-&gt;Insert</title>
<path fill="none" stroke="#000000" d="M5496.4183,-735.917C5458.2332,-668.0324 5380.9635,-530.664 5339.5897,-457.1105"/>
<polygon fill="#000000" stroke="#000000" points="5342.4371,-455.0334 5334.4839,-448.0336 5336.336,-458.4653 5342.4371,-455.0334"/>
</g>
<!-- Update -->
<g id="node42" class="node">
<title>Update</title>
<polygon fill="#b2dfee" stroke="#b2dfee" points="5613.7212,-448 5424.2088,-448 5424.2088,-368 5613.7212,-368 5613.7212,-448"/>
<text text-anchor="middle" x="5518.965" y="-390" font-family="Times,serif" font-size="60.00" fill="#000000">Update</text>
</g>
<!-- SQL Verbs&#45;&gt;Update -->
<g id="edge41" class="edge">
<title>SQL Verbs-&gt;Update</title>
<path fill="none" stroke="#000000" d="M5518.965,-735.917C5518.965,-668.4472 5518.965,-532.34 5518.965,-458.4659"/>
<polygon fill="#000000" stroke="#000000" points="5522.4651,-458.0335 5518.965,-448.0336 5515.4651,-458.0336 5522.4651,-458.0335"/>
</g>
<!-- Delete -->
<g id="node43" class="node">
<title>Delete</title>
<polygon fill="#b2dfee" stroke="#b2dfee" points="5822.0295,-448 5649.9005,-448 5649.9005,-368 5822.0295,-368 5822.0295,-448"/>
<text text-anchor="middle" x="5735.965" y="-390" font-family="Times,serif" font-size="60.00" fill="#000000">Delete</text>
</g>
<!-- SQL Verbs&#45;&gt;Delete -->
<g id="edge42" class="edge">
<title>SQL Verbs-&gt;Delete</title>
<path fill="none" stroke="#000000" d="M5542.6009,-735.917C5582.7122,-667.8942 5663.9634,-530.1041 5707.2703,-456.6619"/>
<polygon fill="#000000" stroke="#000000" points="5710.2937,-458.4253 5712.3583,-448.0336 5704.2639,-454.8697 5710.2937,-458.4253"/>
</g>
<!-- Upsert -->
<g id="node44" class="node">
<title>Upsert</title>
<polygon fill="#b2dfee" stroke="#b2dfee" points="6033.895,-448 5858.035,-448 5858.035,-368 6033.895,-368 6033.895,-448"/>
<text text-anchor="middle" x="5945.965" y="-390" font-family="Times,serif" font-size="60.00" fill="#000000">Upsert</text>
</g>
<!-- SQL Verbs&#45;&gt;Upsert -->
<g id="edge43" class="edge">
<title>SQL Verbs-&gt;Upsert</title>
<path fill="none" stroke="#000000" d="M5565.4743,-735.917C5645.1249,-667.272 5807.2158,-527.5777 5891.8207,-454.663"/>
<polygon fill="#000000" stroke="#000000" points="5894.2229,-457.2132 5899.513,-448.0336 5889.653,-451.9107 5894.2229,-457.2132"/>
</g>
<!-- ASC VS DESC -->
<g id="node28" class="node">
<title>ASC VS DESC</title>
<polygon fill="#b2dfee" stroke="#b2dfee" points="1393.1511,-448 1000.7789,-448 1000.7789,-368 1393.1511,-368 1393.1511,-448"/>
<text text-anchor="middle" x="1196.965" y="-390" font-family="Times,serif" font-size="60.00" fill="#000000">ASC VS DESC</text>
</g>
<!-- ORDER BY&#45;&gt;ASC VS DESC -->
<g id="edge27" class="edge">
<title>ORDER BY-&gt;ASC VS DESC</title>
<path fill="none" stroke="#000000" d="M1196.965,-735.917C1196.965,-668.4472 1196.965,-532.34 1196.965,-458.4659"/>
<polygon fill="#000000" stroke="#000000" points="1200.4651,-458.0335 1196.965,-448.0336 1193.4651,-458.0336 1200.4651,-458.0335"/>
</g>
<!-- Left vs Right -->
<g id="node34" class="node">
<title>Left vs Right</title>
<polygon fill="#b2dfee" stroke="#b2dfee" points="2016.0972,-448 1683.8328,-448 1683.8328,-368 2016.0972,-368 2016.0972,-448"/>
<text text-anchor="middle" x="1849.965" y="-390" font-family="Times,serif" font-size="60.00" fill="#000000">Left vs Right</text>
</g>
<!-- Joins&#45;&gt;Left vs Right -->
<g id="edge33" class="edge">
<title>Joins-&gt;Left vs Right</title>
<path fill="none" stroke="#000000" d="M2192.1393,-735.917C2120.7261,-667.4794 1975.6219,-528.4212 1899.3483,-455.3257"/>
<polygon fill="#000000" stroke="#000000" points="1901.3807,-452.4257 1891.7392,-448.0336 1896.5374,-457.4796 1901.3807,-452.4257"/>
</g>
<!-- Inner vs Outer -->
<g id="node35" class="node">
<title>Inner vs Outer</title>
<polygon fill="#b2dfee" stroke="#b2dfee" points="2414.9773,-448 2052.9527,-448 2052.9527,-368 2414.9773,-368 2414.9773,-448"/>
<text text-anchor="middle" x="2233.965" y="-390" font-family="Times,serif" font-size="60.00" fill="#000000">Inner vs Outer</text>
</g>
<!-- Joins&#45;&gt;Inner vs Outer -->
<g id="edge34" class="edge">
<title>Joins-&gt;Inner vs Outer</title>
<path fill="none" stroke="#000000" d="M2233.965,-735.917C2233.965,-668.4472 2233.965,-532.34 2233.965,-458.4659"/>
<polygon fill="#000000" stroke="#000000" points="2237.4651,-458.0335 2233.965,-448.0336 2230.4651,-458.0336 2237.4651,-458.0335"/>
</g>
<!-- Self Join -->
<g id="node36" class="node">
<title>Self Join</title>
<polygon fill="#b2dfee" stroke="#b2dfee" points="2678.6093,-448 2451.3207,-448 2451.3207,-368 2678.6093,-368 2678.6093,-448"/>
<text text-anchor="middle" x="2564.965" y="-390" font-family="Times,serif" font-size="60.00" fill="#000000">Self Join</text>
</g>
<!-- Joins&#45;&gt;Self Join -->
<g id="edge35" class="edge">
<title>Joins-&gt;Self Join</title>
<path fill="none" stroke="#000000" d="M2270.0179,-735.917C2331.4502,-667.6176 2456.1463,-528.9827 2521.9984,-455.7695"/>
<polygon fill="#000000" stroke="#000000" points="2524.8713,-457.8091 2528.9565,-448.0336 2519.6669,-453.1279 2524.8713,-457.8091"/>
</g>
<!-- Distinct -->
<g id="node45" class="node">
<title>Distinct</title>
<polygon fill="#b2dfee" stroke="#b2dfee" points="5220.943,-80 5014.987,-80 5014.987,0 5220.943,0 5220.943,-80"/>
<text text-anchor="middle" x="5117.965" y="-22" font-family="Times,serif" font-size="60.00" fill="#000000">Distinct</text>
</g>
<!-- Select&#45;&gt;Distinct -->
<g id="edge44" class="edge">
<title>Select-&gt;Distinct</title>
<path fill="none" stroke="#000000" d="M5117.965,-367.917C5117.965,-300.4472 5117.965,-164.34 5117.965,-90.4659"/>
<polygon fill="#000000" stroke="#000000" points="5121.4651,-90.0335 5117.965,-80.0336 5114.4651,-90.0336 5121.4651,-90.0335"/>
</g>
<!-- Basically Available -->
<g id="node53" class="node">
<title>Basically Available</title>
<polygon fill="#b2dfee" stroke="#b2dfee" points="7313.4752,-1184 6826.4548,-1184 6826.4548,-1104 7313.4752,-1104 7313.4752,-1184"/>
<text text-anchor="middle" x="7069.965" y="-1126" font-family="Times,serif" font-size="60.00" fill="#000000">Basically Available</text>
</g>
<!-- BASE&#45;&gt;Basically Available -->
<g id="edge52" class="edge">
<title>BASE-&gt;Basically Available</title>
<path fill="none" stroke="#000000" d="M7069.965,-1471.917C7069.965,-1404.4472 7069.965,-1268.34 7069.965,-1194.4659"/>
<polygon fill="#000000" stroke="#000000" points="7073.4651,-1194.0335 7069.965,-1184.0336 7066.4651,-1194.0336 7073.4651,-1194.0335"/>
</g>
<!-- Soft state -->
<g id="node54" class="node">
<title>Soft state</title>
<polygon fill="#b2dfee" stroke="#b2dfee" points="7190.417,-816 6949.513,-816 6949.513,-736 7190.417,-736 7190.417,-816"/>
<text text-anchor="middle" x="7069.965" y="-758" font-family="Times,serif" font-size="60.00" fill="#000000">Soft state</text>
</g>
<!-- Basically Available&#45;&gt;Soft state -->
<g id="edge53" class="edge">
<title>Basically Available-&gt;Soft state</title>
<path fill="none" stroke="#000000" d="M7069.965,-1103.917C7069.965,-1036.4472 7069.965,-900.34 7069.965,-826.4659"/>
<polygon fill="#000000" stroke="#000000" points="7073.4651,-826.0335 7069.965,-816.0336 7066.4651,-826.0336 7073.4651,-826.0335"/>
</g>
<!-- Eventual consistency -->
<g id="node55" class="node">
<title>Eventual consistency</title>
<polygon fill="#b2dfee" stroke="#b2dfee" points="7332.153,-448 6807.777,-448 6807.777,-368 7332.153,-368 7332.153,-448"/>
<text text-anchor="middle" x="7069.965" y="-390" font-family="Times,serif" font-size="60.00" fill="#000000">Eventual consistency</text>
</g>
<!-- Soft state&#45;&gt;Eventual consistency -->
<g id="edge54" class="edge">
<title>Soft state-&gt;Eventual consistency</title>
<path fill="none" stroke="#000000" d="M7069.965,-735.917C7069.965,-668.4472 7069.965,-532.34 7069.965,-458.4659"/>
<polygon fill="#000000" stroke="#000000" points="7073.4651,-458.0335 7069.965,-448.0336 7066.4651,-458.0336 7073.4651,-458.0335"/>
</g>
</g>
</svg>