<?xml version="1.0" encoding="UTF-8" standalone="no"?><!DOCTYPE svg PUBLIC "-//W3C//DTD SVG 1.1//EN" "http://www.w3.org/Graphics/SVG/1.1/DTD/svg11.dtd"><!-- Generated by graphviz version 2.40.1 (20161225.0304)
 --><!-- Title: devskills Pages: 1 --><svg xmlns="http://www.w3.org/2000/svg" xmlns:xlink="http://www.w3.org/1999/xlink" width="1214pt" height="320pt" viewBox="7.20 7.20 1207.20 313.28">
<g id="graph0" class="graph" transform="scale(.1962 .1962) rotate(0) translate(40.6958 1592.6958)">
<title>devskills</title>
<polygon fill="#ffffff" stroke="transparent" points="-4,4 -4,-1556 6111.962,-1556 6111.962,4 -4,4"/>
<!-- Front&#45;End -->
<g id="node1" class="node">
<title>Front-End</title>
<polygon fill="#7fc97f" stroke="#7fc97f" points="2372.4413,-1552 2110.1807,-1552 2110.1807,-1472 2372.4413,-1472 2372.4413,-1552"/>
<text text-anchor="middle" x="2241.311" y="-1494" font-family="Times,serif" font-size="60.00" fill="#000000">Front-End</text>
</g>
<!-- HTML -->
<g id="node2" class="node">
<title>HTML</title>
<polygon fill="#b2dfee" stroke="#b2dfee" points="571.267,-1184 385.355,-1184 385.355,-1104 571.267,-1104 571.267,-1184"/>
<text text-anchor="middle" x="478.311" y="-1126" font-family="Times,serif" font-size="60.00" fill="#000000">HTML</text>
</g>
<!-- Front&#45;End&#45;&gt;HTML -->
<g id="edge1" class="edge">
<title>Front-End-&gt;HTML</title>
<path fill="none" stroke="#000000" d="M2109.8803,-1484.5658C1773.1569,-1414.2798 884.7431,-1228.8366 581.4757,-1165.5341"/>
<polygon fill="#000000" stroke="#000000" points="581.8745,-1162.042 571.3703,-1163.4247 580.4441,-1168.8943 581.8745,-1162.042"/>
</g>
<!-- CSS -->
<g id="node3" class="node">
<title>CSS</title>
<polygon fill="#b2dfee" stroke="#b2dfee" points="2302.5333,-1184 2180.0887,-1184 2180.0887,-1104 2302.5333,-1104 2302.5333,-1184"/>
<text text-anchor="middle" x="2241.311" y="-1126" font-family="Times,serif" font-size="60.00" fill="#000000">CSS</text>
</g>
<!-- Front&#45;End&#45;&gt;CSS -->
<g id="edge2" class="edge">
<title>Front-End-&gt;CSS</title>
<path fill="none" stroke="#000000" d="M2241.311,-1471.917C2241.311,-1404.4472 2241.311,-1268.34 2241.311,-1194.4659"/>
<polygon fill="#000000" stroke="#000000" points="2244.8111,-1194.0335 2241.311,-1184.0336 2237.8111,-1194.0336 2244.8111,-1194.0335"/>
</g>
<!-- JavaScript -->
<g id="node4" class="node">
<title>JavaScript</title>
<polygon fill="#b2dfee" stroke="#b2dfee" points="3842.223,-1184 3576.399,-1184 3576.399,-1104 3842.223,-1104 3842.223,-1184"/>
<text text-anchor="middle" x="3709.311" y="-1126" font-family="Times,serif" font-size="60.00" fill="#000000">JavaScript</text>
</g>
<!-- Front&#45;End&#45;&gt;JavaScript -->
<g id="edge3" class="edge">
<title>Front-End-&gt;JavaScript</title>
<path fill="none" stroke="#000000" d="M2372.5546,-1479.0997C2647.4284,-1410.194 3281.6721,-1251.201 3566.399,-1179.8253"/>
<polygon fill="#000000" stroke="#000000" points="3567.5303,-1183.1501 3576.3791,-1177.3235 3565.8281,-1176.3602 3567.5303,-1183.1501"/>
</g>
<!-- Tags -->
<g id="node5" class="node">
<title>Tags</title>
<polygon fill="#b2dfee" stroke="#b2dfee" points="132.4335,-816 .1885,-816 .1885,-736 132.4335,-736 132.4335,-816"/>
<text text-anchor="middle" x="66.311" y="-758" font-family="Times,serif" font-size="60.00" fill="#000000">Tags</text>
</g>
<!-- HTML&#45;&gt;Tags -->
<g id="edge4" class="edge">
<title>HTML-&gt;Tags</title>
<path fill="none" stroke="#000000" d="M433.4355,-1103.917C356.6603,-1035.3411 200.501,-895.859 118.8001,-822.8835"/>
<polygon fill="#000000" stroke="#000000" points="120.9209,-820.0849 111.1312,-816.0336 116.2577,-825.3055 120.9209,-820.0849"/>
</g>
<!-- Class -->
<g id="node6" class="node">
<title>Class</title>
<polygon fill="#b2dfee" stroke="#b2dfee" points="314.301,-816 168.321,-816 168.321,-736 314.301,-736 314.301,-816"/>
<text text-anchor="middle" x="241.311" y="-758" font-family="Times,serif" font-size="60.00" fill="#000000">Class</text>
</g>
<!-- HTML&#45;&gt;Class -->
<g id="edge5" class="edge">
<title>HTML-&gt;Class</title>
<path fill="none" stroke="#000000" d="M452.4967,-1103.917C408.6885,-1035.8942 319.9487,-898.1041 272.6503,-824.6619"/>
<polygon fill="#000000" stroke="#000000" points="275.4506,-822.5458 267.0935,-816.0336 269.5655,-826.336 275.4506,-822.5458"/>
</g>
<!-- Attributes -->
<g id="node7" class="node">
<title>Attributes</title>
<polygon fill="#b2dfee" stroke="#b2dfee" points="606.263,-816 350.359,-816 350.359,-736 606.263,-736 606.263,-816"/>
<text text-anchor="middle" x="478.311" y="-758" font-family="Times,serif" font-size="60.00" fill="#000000">Attributes</text>
</g>
<!-- HTML&#45;&gt;Attributes -->
<g id="edge6" class="edge">
<title>HTML-&gt;Attributes</title>
<path fill="none" stroke="#000000" d="M478.311,-1103.917C478.311,-1036.4472 478.311,-900.34 478.311,-826.4659"/>
<polygon fill="#000000" stroke="#000000" points="481.8111,-826.0335 478.311,-816.0336 474.8111,-826.0336 481.8111,-826.0335"/>
</g>
<!-- Forms and Validation -->
<g id="node8" class="node">
<title>Forms and Validation</title>
<polygon fill="#b2dfee" stroke="#b2dfee" points="1182.0591,-816 642.5629,-816 642.5629,-736 1182.0591,-736 1182.0591,-816"/>
<text text-anchor="middle" x="912.311" y="-758" font-family="Times,serif" font-size="60.00" fill="#000000">Forms and Validation</text>
</g>
<!-- HTML&#45;&gt;Forms and Validation -->
<g id="edge7" class="edge">
<title>HTML-&gt;Forms and Validation</title>
<path fill="none" stroke="#000000" d="M525.5828,-1103.917C606.5391,-1035.272 771.2873,-895.5777 857.2791,-822.663"/>
<polygon fill="#000000" stroke="#000000" points="859.7339,-825.1704 865.0975,-816.0336 855.2067,-819.8314 859.7339,-825.1704"/>
</g>
<!-- CSS Syntax -->
<g id="node9" class="node">
<title>CSS Syntax</title>
<polygon fill="#b2dfee" stroke="#b2dfee" points="1522.6952,-816 1217.9268,-816 1217.9268,-736 1522.6952,-736 1522.6952,-816"/>
<text text-anchor="middle" x="1370.311" y="-758" font-family="Times,serif" font-size="60.00" fill="#000000">CSS Syntax</text>
</g>
<!-- CSS&#45;&gt;CSS Syntax -->
<g id="edge8" class="edge">
<title>CSS-&gt;CSS Syntax</title>
<path fill="none" stroke="#000000" d="M2180.064,-1118.123C2032.8649,-1055.9309 1657.8691,-897.4941 1474.4809,-820.0121"/>
<polygon fill="#000000" stroke="#000000" points="1475.6649,-816.7128 1465.0912,-816.0449 1472.9405,-823.1609 1475.6649,-816.7128"/>
</g>
<!-- CSS Frameworks -->
<g id="node13" class="node">
<title>CSS Frameworks</title>
<polygon fill="#b2dfee" stroke="#b2dfee" points="2459.9252,-816 2022.6968,-816 2022.6968,-736 2459.9252,-736 2459.9252,-816"/>
<text text-anchor="middle" x="2241.311" y="-758" font-family="Times,serif" font-size="60.00" fill="#000000">CSS Frameworks</text>
</g>
<!-- CSS&#45;&gt;CSS Frameworks -->
<g id="edge12" class="edge">
<title>CSS-&gt;CSS Frameworks</title>
<path fill="none" stroke="#000000" d="M2241.311,-1103.917C2241.311,-1036.4472 2241.311,-900.34 2241.311,-826.4659"/>
<polygon fill="#000000" stroke="#000000" points="2244.8111,-826.0335 2241.311,-816.0336 2237.8111,-826.0336 2244.8111,-826.0335"/>
</g>
<!-- SCSS -->
<g id="node17" class="node">
<title>SCSS</title>
<polygon fill="#b2dfee" stroke="#b2dfee" points="2652.387,-816 2496.235,-816 2496.235,-736 2652.387,-736 2652.387,-816"/>
<text text-anchor="middle" x="2574.311" y="-758" font-family="Times,serif" font-size="60.00" fill="#000000">SCSS</text>
</g>
<!-- CSS&#45;&gt;SCSS -->
<g id="edge16" class="edge">
<title>CSS-&gt;SCSS</title>
<path fill="none" stroke="#000000" d="M2277.5817,-1103.917C2339.3852,-1035.6176 2464.8348,-896.9827 2531.0848,-823.7695"/>
<polygon fill="#000000" stroke="#000000" points="2533.9705,-825.7969 2538.085,-816.0336 2528.7801,-821.1001 2533.9705,-825.7969"/>
</g>
<!-- * -->
<g id="node23" class="node">
<title>*</title>
<polygon fill="#b2dfee" stroke="#b2dfee" points="5752.311,-816 5698.311,-816 5698.311,-736 5752.311,-736 5752.311,-816"/>
<text text-anchor="middle" x="5725.311" y="-758" font-family="Times,serif" font-size="60.00" fill="#000000">*</text>
</g>
<!-- JavaScript&#45;&gt;* -->
<g id="edge28" class="edge">
<title>JavaScript-&gt;*</title>
<path fill="none" stroke="#000000" d="M3842.366,-1119.7122C4248.6595,-1045.5475 5459.4222,-824.5353 5687.8955,-782.8298"/>
<polygon fill="#000000" stroke="#000000" points="5688.8167,-786.2196 5698.0256,-780.9807 5687.5596,-779.3334 5688.8167,-786.2196"/>
</g>
<!-- Syntax -->
<g id="node25" class="node">
<title>Syntax</title>
<polygon fill="#b2dfee" stroke="#b2dfee" points="3070.4733,-816 2888.1487,-816 2888.1487,-736 3070.4733,-736 3070.4733,-816"/>
<text text-anchor="middle" x="2979.311" y="-758" font-family="Times,serif" font-size="60.00" fill="#000000">Syntax</text>
</g>
<!-- JavaScript&#45;&gt;Syntax -->
<g id="edge23" class="edge">
<title>JavaScript-&gt;Syntax</title>
<path fill="none" stroke="#000000" d="M3629.7986,-1103.917C3492.3936,-1034.6498 3211.4821,-893.0397 3067.9762,-820.697"/>
<polygon fill="#000000" stroke="#000000" points="3069.2305,-817.4097 3058.7254,-816.0336 3066.0794,-823.6604 3069.2305,-817.4097"/>
</g>
<!-- DOM Manipulation -->
<g id="node26" class="node">
<title>DOM Manipulation</title>
<polygon fill="#b2dfee" stroke="#b2dfee" points="3600.5711,-816 3106.0509,-816 3106.0509,-736 3600.5711,-736 3600.5711,-816"/>
<text text-anchor="middle" x="3353.311" y="-758" font-family="Times,serif" font-size="60.00" fill="#000000">DOM Manipulation</text>
</g>
<!-- JavaScript&#45;&gt;DOM Manipulation -->
<g id="edge24" class="edge">
<title>JavaScript-&gt;DOM Manipulation</title>
<path fill="none" stroke="#000000" d="M3670.5351,-1103.917C3604.3291,-1035.4794 3469.8054,-896.4212 3399.0935,-823.3257"/>
<polygon fill="#000000" stroke="#000000" points="3401.5076,-820.7873 3392.0391,-816.0336 3396.4765,-825.6544 3401.5076,-820.7873"/>
</g>
<!-- NPM -->
<g id="node27" class="node">
<title>NPM</title>
<polygon fill="#b2dfee" stroke="#b2dfee" points="3782.313,-816 3636.309,-816 3636.309,-736 3782.313,-736 3782.313,-816"/>
<text text-anchor="middle" x="3709.311" y="-758" font-family="Times,serif" font-size="60.00" fill="#000000">NPM</text>
</g>
<!-- JavaScript&#45;&gt;NPM -->
<g id="edge25" class="edge">
<title>JavaScript-&gt;NPM</title>
<path fill="none" stroke="#000000" d="M3709.311,-1103.917C3709.311,-1036.4472 3709.311,-900.34 3709.311,-826.4659"/>
<polygon fill="#000000" stroke="#000000" points="3712.8111,-826.0335 3709.311,-816.0336 3705.8111,-826.0336 3712.8111,-826.0335"/>
</g>
<!-- Fundementals -->
<g id="node28" class="node">
<title>Fundementals</title>
<polygon fill="#b2dfee" stroke="#b2dfee" points="4170.4232,-816 3818.1988,-816 3818.1988,-736 4170.4232,-736 4170.4232,-816"/>
<text text-anchor="middle" x="3994.311" y="-758" font-family="Times,serif" font-size="60.00" fill="#000000">Fundementals</text>
</g>
<!-- JavaScript&#45;&gt;Fundementals -->
<g id="edge26" class="edge">
<title>JavaScript-&gt;Fundementals</title>
<path fill="none" stroke="#000000" d="M3740.3535,-1103.917C3793.1413,-1035.7559 3900.1807,-897.5437 3956.9707,-824.2149"/>
<polygon fill="#000000" stroke="#000000" points="3959.9509,-826.0829 3963.3067,-816.0336 3954.4165,-821.7967 3959.9509,-826.0829"/>
</g>
<!-- Browser -->
<g id="node29" class="node">
<title>Browser</title>
<polygon fill="#b2dfee" stroke="#b2dfee" points="5202.0551,-816 4982.5669,-816 4982.5669,-736 5202.0551,-736 5202.0551,-816"/>
<text text-anchor="middle" x="5092.311" y="-758" font-family="Times,serif" font-size="60.00" fill="#000000">Browser</text>
</g>
<!-- JavaScript&#45;&gt;Browser -->
<g id="edge27" class="edge">
<title>JavaScript-&gt;Browser</title>
<path fill="none" stroke="#000000" d="M3842.2326,-1108.6311C4111.081,-1037.0937 4715.6579,-876.2229 4972.8525,-807.7865"/>
<polygon fill="#000000" stroke="#000000" points="4973.8365,-811.1465 4982.6002,-805.1927 4972.0365,-804.3819 4973.8365,-811.1465"/>
</g>
<!-- Padding vs Margins -->
<g id="node10" class="node">
<title>Padding vs Margins</title>
<polygon fill="#b2dfee" stroke="#b2dfee" points="583.257,-448 87.365,-448 87.365,-368 583.257,-368 583.257,-448"/>
<text text-anchor="middle" x="335.311" y="-390" font-family="Times,serif" font-size="60.00" fill="#000000">Padding vs Margins</text>
</g>
<!-- CSS Syntax&#45;&gt;Padding vs Margins -->
<g id="edge9" class="edge">
<title>CSS Syntax-&gt;Padding vs Margins</title>
<path fill="none" stroke="#000000" d="M1257.5776,-735.917C1061.5971,-666.2351 659.708,-523.3412 457.3873,-451.4049"/>
<polygon fill="#000000" stroke="#000000" points="458.5001,-448.086 447.9054,-448.0336 456.155,-454.6815 458.5001,-448.086"/>
</g>
<!-- Box Model -->
<g id="node11" class="node">
<title>Box Model</title>
<polygon fill="#b2dfee" stroke="#b2dfee" points="906.9672,-448 619.6548,-448 619.6548,-368 906.9672,-368 906.9672,-448"/>
<text text-anchor="middle" x="763.311" y="-390" font-family="Times,serif" font-size="60.00" fill="#000000">Box Model</text>
</g>
<!-- CSS Syntax&#45;&gt;Box Model -->
<g id="edge10" class="edge">
<title>CSS Syntax-&gt;Box Model</title>
<path fill="none" stroke="#000000" d="M1304.1959,-735.917C1190.2847,-666.8572 957.7605,-525.887 838.1116,-453.3486"/>
<polygon fill="#000000" stroke="#000000" points="839.7104,-450.2249 829.3446,-448.0336 836.0814,-456.2108 839.7104,-450.2249"/>
</g>
<!-- Display -->
<g id="node12" class="node">
<title>Display</title>
<polygon fill="#b2dfee" stroke="#b2dfee" points="1145.4413,-448 943.1807,-448 943.1807,-368 1145.4413,-368 1145.4413,-448"/>
<text text-anchor="middle" x="1044.311" y="-390" font-family="Times,serif" font-size="60.00" fill="#000000">Display</text>
</g>
<!-- CSS Syntax&#45;&gt;Display -->
<g id="edge11" class="edge">
<title>CSS Syntax-&gt;Display</title>
<path fill="none" stroke="#000000" d="M1334.8027,-735.917C1274.2984,-667.6176 1151.4859,-528.9827 1086.6285,-455.7695"/>
<polygon fill="#000000" stroke="#000000" points="1089.0264,-453.198 1079.7755,-448.0336 1083.7867,-457.8398 1089.0264,-453.198"/>
</g>
<!-- Units -->
<g id="node14" class="node">
<title>Units</title>
<polygon fill="#b2dfee" stroke="#b2dfee" points="1327.307,-448 1181.315,-448 1181.315,-368 1327.307,-368 1327.307,-448"/>
<text text-anchor="middle" x="1254.311" y="-390" font-family="Times,serif" font-size="60.00" fill="#000000">Units</text>
</g>
<!-- CSS Syntax&#45;&gt;Units -->
<g id="edge13" class="edge">
<title>CSS Syntax-&gt;Units</title>
<path fill="none" stroke="#000000" d="M1357.6761,-735.917C1336.3649,-668.3089 1293.3292,-531.7819 1270.0758,-458.0125"/>
<polygon fill="#000000" stroke="#000000" points="1273.2748,-456.5187 1266.9303,-448.0336 1266.5986,-458.6232 1273.2748,-456.5187"/>
</g>
<!-- Variables -->
<g id="node15" class="node">
<title>Variables</title>
<polygon fill="#b2dfee" stroke="#b2dfee" points="1609.183,-448 1363.439,-448 1363.439,-368 1609.183,-368 1609.183,-448"/>
<text text-anchor="middle" x="1486.311" y="-390" font-family="Times,serif" font-size="60.00" fill="#000000">Variables</text>
</g>
<!-- CSS Syntax&#45;&gt;Variables -->
<g id="edge14" class="edge">
<title>CSS Syntax-&gt;Variables</title>
<path fill="none" stroke="#000000" d="M1382.9459,-735.917C1404.2571,-668.3089 1447.2928,-531.7819 1470.5462,-458.0125"/>
<polygon fill="#000000" stroke="#000000" points="1474.0234,-458.6232 1473.6917,-448.0336 1467.3472,-456.5187 1474.0234,-458.6232"/>
</g>
<!-- Media query -->
<g id="node16" class="node">
<title>Media query</title>
<polygon fill="#b2dfee" stroke="#b2dfee" points="1965.695,-448 1644.927,-448 1644.927,-368 1965.695,-368 1965.695,-448"/>
<text text-anchor="middle" x="1805.311" y="-390" font-family="Times,serif" font-size="60.00" fill="#000000">Media query</text>
</g>
<!-- CSS Syntax&#45;&gt;Media query -->
<g id="edge15" class="edge">
<title>CSS Syntax-&gt;Media query</title>
<path fill="none" stroke="#000000" d="M1417.6917,-735.917C1498.8346,-667.272 1663.9623,-527.5777 1750.1523,-454.663"/>
<polygon fill="#000000" stroke="#000000" points="1752.6147,-457.1643 1757.9887,-448.0336 1748.0936,-451.8201 1752.6147,-457.1643"/>
</g>
<!-- Grid and Flex -->
<g id="node18" class="node">
<title>Grid and Flex</title>
<polygon fill="#b2dfee" stroke="#b2dfee" points="1073.0691,-80 723.5529,-80 723.5529,0 1073.0691,0 1073.0691,-80"/>
<text text-anchor="middle" x="898.311" y="-22" font-family="Times,serif" font-size="60.00" fill="#000000">Grid and Flex</text>
</g>
<!-- Display&#45;&gt;Grid and Flex -->
<g id="edge17" class="edge">
<title>Display-&gt;Grid and Flex</title>
<path fill="none" stroke="#000000" d="M1028.4085,-367.917C1001.5309,-300.1707 947.1985,-163.2232 917.9737,-89.5607"/>
<polygon fill="#000000" stroke="#000000" points="921.135,-88.038 914.1939,-80.0336 914.6284,-90.6195 921.135,-88.038"/>
</g>
<!-- Floats -->
<g id="node19" class="node">
<title>Floats</title>
<polygon fill="#b2dfee" stroke="#b2dfee" points="1271.4813,-80 1109.1407,-80 1109.1407,0 1271.4813,0 1271.4813,-80"/>
<text text-anchor="middle" x="1190.311" y="-22" font-family="Times,serif" font-size="60.00" fill="#000000">Floats</text>
</g>
<!-- Display&#45;&gt;Floats -->
<g id="edge18" class="edge">
<title>Display-&gt;Floats</title>
<path fill="none" stroke="#000000" d="M1060.2135,-367.917C1087.0911,-300.1707 1141.4235,-163.2232 1170.6483,-89.5607"/>
<polygon fill="#000000" stroke="#000000" points="1173.9936,-90.6195 1174.4281,-80.0336 1167.487,-88.038 1173.9936,-90.6195"/>
</g>
<!-- Material UI -->
<g id="node20" class="node">
<title>Material UI</title>
<polygon fill="#b2dfee" stroke="#b2dfee" points="2298.8314,-448 2001.7906,-448 2001.7906,-368 2298.8314,-368 2298.8314,-448"/>
<text text-anchor="middle" x="2150.311" y="-390" font-family="Times,serif" font-size="60.00" fill="#000000">Material UI</text>
</g>
<!-- CSS Frameworks&#45;&gt;Material UI -->
<g id="edge19" class="edge">
<title>CSS Frameworks-&gt;Material UI</title>
<path fill="none" stroke="#000000" d="M2231.3992,-735.917C2214.6809,-668.3089 2180.9201,-531.7819 2162.6782,-458.0125"/>
<polygon fill="#000000" stroke="#000000" points="2166.0089,-456.901 2160.2106,-448.0336 2159.2135,-458.5814 2166.0089,-456.901"/>
</g>
<!-- Tailwind CSS -->
<g id="node21" class="node">
<title>Tailwind CSS</title>
<polygon fill="#b2dfee" stroke="#b2dfee" points="2689.6572,-448 2334.9648,-448 2334.9648,-368 2689.6572,-368 2689.6572,-448"/>
<text text-anchor="middle" x="2512.311" y="-390" font-family="Times,serif" font-size="60.00" fill="#000000">Tailwind CSS</text>
</g>
<!-- CSS Frameworks&#45;&gt;Tailwind CSS -->
<g id="edge20" class="edge">
<title>CSS Frameworks-&gt;Tailwind CSS</title>
<path fill="none" stroke="#000000" d="M2270.8286,-735.917C2321.0234,-667.7559 2422.8046,-529.5437 2476.8049,-456.2149"/>
<polygon fill="#000000" stroke="#000000" points="2479.7182,-458.1612 2482.8298,-448.0336 2474.0817,-454.0104 2479.7182,-458.1612"/>
</g>
<!-- Bootstrap -->
<g id="node22" class="node">
<title>Bootstrap</title>
<polygon fill="#b2dfee" stroke="#b2dfee" points="2975.1152,-448 2725.5068,-448 2725.5068,-368 2975.1152,-368 2975.1152,-448"/>
<text text-anchor="middle" x="2850.311" y="-390" font-family="Times,serif" font-size="60.00" fill="#000000">Bootstrap</text>
</g>
<!-- CSS Frameworks&#45;&gt;Bootstrap -->
<g id="edge21" class="edge">
<title>CSS Frameworks-&gt;Bootstrap</title>
<path fill="none" stroke="#000000" d="M2307.644,-735.917C2421.9304,-666.8572 2655.2208,-525.887 2775.264,-453.3486"/>
<polygon fill="#000000" stroke="#000000" points="2777.3112,-456.201 2784.0598,-448.0336 2773.6909,-450.2098 2777.3112,-456.201"/>
</g>
<!-- WAT! Video -->
<g id="node24" class="node">
<title>WAT! Video</title>
<polygon fill="#b2dfee" stroke="#b2dfee" points="5892.5091,-448 5558.1129,-448 5558.1129,-368 5892.5091,-368 5892.5091,-448"/>
<text text-anchor="middle" x="5725.311" y="-390" font-family="Times,serif" font-size="60.00" fill="#000000">WAT! Video</text>
</g>
<!-- *&#45;&gt;WAT! Video -->
<g id="edge22" class="edge">
<title>*-&gt;WAT! Video</title>
<path fill="none" stroke="#000000" d="M5725.311,-735.917C5725.311,-668.4472 5725.311,-532.34 5725.311,-458.4659"/>
<polygon fill="#000000" stroke="#000000" points="5728.8111,-458.0335 5725.311,-448.0336 5721.8111,-458.0336 5728.8111,-458.0335"/>
</g>
<!-- RegEx -->
<g id="node30" class="node">
<title>RegEx</title>
<polygon fill="#b2dfee" stroke="#b2dfee" points="6108.1133,-448 5928.5087,-448 5928.5087,-368 6108.1133,-368 6108.1133,-448"/>
<text text-anchor="middle" x="6018.311" y="-390" font-family="Times,serif" font-size="60.00" fill="#000000">RegEx</text>
</g>
<!-- *&#45;&gt;RegEx -->
<g id="edge29" class="edge">
<title>*-&gt;RegEx</title>
<path fill="none" stroke="#000000" d="M5752.3506,-742.0391C5804.634,-676.3725 5919.7278,-531.8178 5979.9193,-456.2189"/>
<polygon fill="#000000" stroke="#000000" points="5982.7839,-458.2402 5986.2746,-448.2369 5977.3076,-453.88 5982.7839,-458.2402"/>
</g>
<!-- Data Types -->
<g id="node31" class="node">
<title>Data Types</title>
<polygon fill="#b2dfee" stroke="#b2dfee" points="3301.689,-448 3010.933,-448 3010.933,-368 3301.689,-368 3301.689,-448"/>
<text text-anchor="middle" x="3156.311" y="-390" font-family="Times,serif" font-size="60.00" fill="#000000">Data Types</text>
</g>
<!-- Fundementals&#45;&gt;Data Types -->
<g id="edge30" class="edge">
<title>Fundementals-&gt;Data Types</title>
<path fill="none" stroke="#000000" d="M3903.0351,-735.917C3744.9868,-666.5116 3421.5427,-524.4741 3257.1092,-452.2646"/>
<polygon fill="#000000" stroke="#000000" points="3258.0377,-448.8498 3247.4744,-448.0336 3255.2231,-455.259 3258.0377,-448.8498"/>
</g>
<!-- Objects -->
<g id="node32" class="node">
<title>Objects</title>
<polygon fill="#b2dfee" stroke="#b2dfee" points="3537.0752,-448 3337.5468,-448 3337.5468,-368 3537.0752,-368 3537.0752,-448"/>
<text text-anchor="middle" x="3437.311" y="-390" font-family="Times,serif" font-size="60.00" fill="#000000">Objects</text>
</g>
<!-- Fundementals&#45;&gt;Objects -->
<g id="edge31" class="edge">
<title>Fundementals-&gt;Objects</title>
<path fill="none" stroke="#000000" d="M3933.6419,-735.917C3829.2186,-666.9264 3616.1703,-526.1691 3506.2801,-453.5667"/>
<polygon fill="#000000" stroke="#000000" points="3508.1781,-450.6258 3497.9053,-448.0336 3504.3194,-456.4662 3508.1781,-450.6258"/>
</g>
<!-- Arrays -->
<g id="node33" class="node">
<title>Arrays</title>
<polygon fill="#b2dfee" stroke="#b2dfee" points="3752.0411,-448 3572.5809,-448 3572.5809,-368 3752.0411,-368 3752.0411,-448"/>
<text text-anchor="middle" x="3662.311" y="-390" font-family="Times,serif" font-size="60.00" fill="#000000">Arrays</text>
</g>
<!-- Fundementals&#45;&gt;Arrays -->
<g id="edge32" class="edge">
<title>Fundementals-&gt;Arrays</title>
<path fill="none" stroke="#000000" d="M3958.1492,-735.917C3896.5313,-667.6176 3771.4585,-528.9827 3705.4074,-455.7695"/>
<polygon fill="#000000" stroke="#000000" points="3707.7256,-453.114 3698.4282,-448.0336 3702.5281,-457.803 3707.7256,-453.114"/>
</g>
<!-- Classes -->
<g id="node34" class="node">
<title>Classes</title>
<polygon fill="#b2dfee" stroke="#b2dfee" points="3984.269,-448 3788.353,-448 3788.353,-368 3984.269,-368 3984.269,-448"/>
<text text-anchor="middle" x="3886.311" y="-390" font-family="Times,serif" font-size="60.00" fill="#000000">Classes</text>
</g>
<!-- Fundementals&#45;&gt;Classes -->
<g id="edge33" class="edge">
<title>Fundementals-&gt;Classes</title>
<path fill="none" stroke="#000000" d="M3982.5475,-735.917C3962.706,-668.3089 3922.6383,-531.7819 3900.9886,-458.0125"/>
<polygon fill="#000000" stroke="#000000" points="3904.2344,-456.6433 3898.06,-448.0336 3897.5177,-458.6145 3904.2344,-456.6433"/>
</g>
<!-- Errors -->
<g id="node35" class="node">
<title>Errors</title>
<polygon fill="#b2dfee" stroke="#b2dfee" points="4186.221,-448 4020.401,-448 4020.401,-368 4186.221,-368 4186.221,-448"/>
<text text-anchor="middle" x="4103.311" y="-390" font-family="Times,serif" font-size="60.00" fill="#000000">Errors</text>
</g>
<!-- Fundementals&#45;&gt;Errors -->
<g id="edge34" class="edge">
<title>Fundementals-&gt;Errors</title>
<path fill="none" stroke="#000000" d="M4006.1834,-735.917C4026.2086,-668.3089 4066.6473,-531.7819 4088.4975,-458.0125"/>
<polygon fill="#000000" stroke="#000000" points="4091.9691,-458.6158 4091.4532,-448.0336 4085.2573,-456.6278 4091.9691,-458.6158"/>
</g>
<!-- Promises -->
<g id="node36" class="node">
<title>Promises</title>
<polygon fill="#b2dfee" stroke="#b2dfee" points="4458.289,-448 4222.333,-448 4222.333,-368 4458.289,-368 4458.289,-448"/>
<text text-anchor="middle" x="4340.311" y="-390" font-family="Times,serif" font-size="60.00" fill="#000000">Promises</text>
</g>
<!-- Fundementals&#45;&gt;Promises -->
<g id="edge35" class="edge">
<title>Fundementals-&gt;Promises</title>
<path fill="none" stroke="#000000" d="M4031.9977,-735.917C4096.344,-667.4794 4227.0889,-528.4212 4295.8146,-455.3257"/>
<polygon fill="#000000" stroke="#000000" points="4298.3707,-457.7166 4302.6707,-448.0336 4293.2708,-452.9216 4298.3707,-457.7166"/>
</g>
<!-- Debugging -->
<g id="node40" class="node">
<title>Debugging</title>
<polygon fill="#b2dfee" stroke="#b2dfee" points="4776.4333,-448 4494.1887,-448 4494.1887,-368 4776.4333,-368 4776.4333,-448"/>
<text text-anchor="middle" x="4635.311" y="-390" font-family="Times,serif" font-size="60.00" fill="#000000">Debugging</text>
</g>
<!-- Fundementals&#45;&gt;Debugging -->
<g id="edge39" class="edge">
<title>Fundementals-&gt;Debugging</title>
<path fill="none" stroke="#000000" d="M4064.1295,-735.917C4184.5415,-666.7881 4430.4615,-525.6047 4556.6997,-453.131"/>
<polygon fill="#000000" stroke="#000000" points="4558.6488,-456.0478 4565.5786,-448.0336 4555.1636,-449.9771 4558.6488,-456.0478"/>
</g>
<!-- Documents -->
<g id="node37" class="node">
<title>Documents</title>
<polygon fill="#b2dfee" stroke="#b2dfee" points="5102.0751,-448 4812.5469,-448 4812.5469,-368 5102.0751,-368 5102.0751,-448"/>
<text text-anchor="middle" x="4957.311" y="-390" font-family="Times,serif" font-size="60.00" fill="#000000">Documents</text>
</g>
<!-- Browser&#45;&gt;Documents -->
<g id="edge36" class="edge">
<title>Browser-&gt;Documents</title>
<path fill="none" stroke="#000000" d="M5077.6066,-735.917C5052.754,-668.1707 5002.5152,-531.2232 4975.4923,-457.5607"/>
<polygon fill="#000000" stroke="#000000" points="4978.7272,-456.2163 4971.9972,-448.0336 4972.1555,-458.6272 4978.7272,-456.2163"/>
</g>
<!-- Events -->
<g id="node38" class="node">
<title>Events</title>
<polygon fill="#b2dfee" stroke="#b2dfee" points="5317.1072,-448 5137.5148,-448 5137.5148,-368 5317.1072,-368 5317.1072,-448"/>
<text text-anchor="middle" x="5227.311" y="-390" font-family="Times,serif" font-size="60.00" fill="#000000">Events</text>
</g>
<!-- Browser&#45;&gt;Events -->
<g id="edge37" class="edge">
<title>Browser-&gt;Events</title>
<path fill="none" stroke="#000000" d="M5107.0154,-735.917C5131.868,-668.1707 5182.1068,-531.2232 5209.1297,-457.5607"/>
<polygon fill="#000000" stroke="#000000" points="5212.4665,-458.6272 5212.6248,-448.0336 5205.8948,-456.2163 5212.4665,-458.6272"/>
</g>
<!-- Forms -->
<g id="node39" class="node">
<title>Forms</title>
<polygon fill="#b2dfee" stroke="#b2dfee" points="5522.1473,-448 5352.4747,-448 5352.4747,-368 5522.1473,-368 5522.1473,-448"/>
<text text-anchor="middle" x="5437.311" y="-390" font-family="Times,serif" font-size="60.00" fill="#000000">Forms</text>
</g>
<!-- Browser&#45;&gt;Forms -->
<g id="edge38" class="edge">
<title>Browser-&gt;Forms</title>
<path fill="none" stroke="#000000" d="M5129.8888,-735.917C5193.9195,-667.6176 5323.8897,-528.9827 5392.5271,-455.7695"/>
<polygon fill="#000000" stroke="#000000" points="5395.4935,-457.7228 5399.7795,-448.0336 5390.3867,-452.9352 5395.4935,-457.7228"/>
</g>
</g>
</svg>