<?xml version="1.0" encoding="UTF-8" standalone="no"?><!DOCTYPE svg PUBLIC "-//W3C//DTD SVG 1.1//EN" "http://www.w3.org/Graphics/SVG/1.1/DTD/svg11.dtd"><!-- Generated by graphviz version 2.40.1 (20161225.0304)
 --><!-- Title: devskills Pages: 1 --><svg xmlns="http://www.w3.org/2000/svg" xmlns:xlink="http://www.w3.org/1999/xlink" width="587pt" height="864pt" viewBox="0.00 0.00 587.29 864.00">
<g id="graph0" class="graph" transform="scale(.2456 .2456) rotate(0) translate(4 3514)">
<title>devskills</title>
<polygon fill="#ffffff" stroke="transparent" points="-4,4 -4,-3514 2387.288,-3514 2387.288,4 -4,4"/>
<!-- Git -->
<g id="node1" class="node">
<title>Git</title>
<polygon fill="#beaed4" stroke="#beaed4" points="241.6416,-227 149.3164,-227 149.3164,-147 241.6416,-147 241.6416,-227"/>
<text text-anchor="middle" x="195.479" y="-169" font-family="Times,serif" font-size="60.00" fill="#000000">Git</text>
</g>
<!-- GitHub -->
<g id="node2" class="node">
<title>GitHub</title>
<polygon fill="#b2dfee" stroke="#b2dfee" points="806.408,-374 610.456,-374 610.456,-294 806.408,-294 806.408,-374"/>
<text text-anchor="middle" x="708.432" y="-316" font-family="Times,serif" font-size="60.00" fill="#000000">GitHub</text>
</g>
<!-- Git&#45;&gt;GitHub -->
<g id="edge1" class="edge">
<title>Git-&gt;GitHub</title>
<path fill="none" stroke="#000000" d="M241.7596,-210.3139C287.6822,-232.5477 360.6057,-265.458 426.958,-285 483.1687,-301.5551 547.4414,-313.2656 600.3651,-321.0773"/>
<polygon fill="#000000" stroke="#000000" points="600.0524,-324.5685 610.4511,-322.5393 601.0567,-317.6409 600.0524,-324.5685"/>
</g>
<!-- Commit -->
<g id="node3" class="node">
<title>Commit</title>
<polygon fill="#b2dfee" stroke="#b2dfee" points="814.6422,-276 602.2218,-276 602.2218,-196 814.6422,-196 814.6422,-276"/>
<text text-anchor="middle" x="708.432" y="-218" font-family="Times,serif" font-size="60.00" fill="#000000">Commit</text>
</g>
<!-- Git&#45;&gt;Commit -->
<g id="edge2" class="edge">
<title>Git-&gt;Commit</title>
<path fill="none" stroke="#000000" d="M241.9049,-191.4348C320.2867,-198.9223 481.1279,-214.2867 591.8502,-224.8635"/>
<polygon fill="#000000" stroke="#000000" points="591.7818,-228.3728 602.0694,-225.8397 592.4475,-221.4045 591.7818,-228.3728"/>
</g>
<!-- Branch -->
<g id="node4" class="node">
<title>Branch</title>
<polygon fill="#b2dfee" stroke="#b2dfee" points="803.1882,-178 613.6758,-178 613.6758,-98 803.1882,-98 803.1882,-178"/>
<text text-anchor="middle" x="708.432" y="-120" font-family="Times,serif" font-size="60.00" fill="#000000">Branch</text>
</g>
<!-- Git&#45;&gt;Branch -->
<g id="edge3" class="edge">
<title>Git-&gt;Branch</title>
<path fill="none" stroke="#000000" d="M241.9049,-182.5652C323.0967,-174.8093 492.7663,-158.6015 603.5592,-148.018"/>
<polygon fill="#000000" stroke="#000000" points="604.1371,-151.4788 613.7589,-147.0437 603.4714,-144.5105 604.1371,-151.4788"/>
</g>
<!-- Merge -->
<g id="node5" class="node">
<title>Merge</title>
<polygon fill="#b2dfee" stroke="#b2dfee" points="794.5085,-80 622.3555,-80 622.3555,0 794.5085,0 794.5085,-80"/>
<text text-anchor="middle" x="708.432" y="-22" font-family="Times,serif" font-size="60.00" fill="#000000">Merge</text>
</g>
<!-- Git&#45;&gt;Merge -->
<g id="edge4" class="edge">
<title>Git-&gt;Merge</title>
<path fill="none" stroke="#000000" d="M241.7596,-163.6861C287.6822,-141.4523 360.6057,-108.542 426.958,-89 487.4289,-71.1902 557.2302,-58.9871 612.1944,-51.2133"/>
<polygon fill="#000000" stroke="#000000" points="612.8556,-54.6552 622.2791,-49.813 611.8928,-47.7217 612.8556,-54.6552"/>
</g>
<!-- VS Code -->
<g id="node6" class="node">
<title>VS Code</title>
<polygon fill="#fdc086" stroke="#fdc086" points="312.7952,-595 78.1628,-595 78.1628,-515 312.7952,-515 312.7952,-595"/>
<text text-anchor="middle" x="195.479" y="-537" font-family="Times,serif" font-size="60.00" fill="#000000">VS Code</text>
</g>
<!-- .vscode -->
<g id="node7" class="node">
<title>.vscode</title>
<polygon fill="#b2dfee" stroke="#b2dfee" points="807.0344,-717 609.8296,-717 609.8296,-637 807.0344,-637 807.0344,-717"/>
<text text-anchor="middle" x="708.432" y="-659" font-family="Times,serif" font-size="60.00" fill="#000000">.vscode</text>
</g>
<!-- VS Code&#45;&gt;.vscode -->
<g id="edge5" class="edge">
<title>VS Code-&gt;.vscode</title>
<path fill="none" stroke="#000000" d="M312.8392,-582.9128C399.1769,-603.4472 515.6726,-631.1544 599.8638,-651.1783"/>
<polygon fill="#000000" stroke="#000000" points="599.1698,-654.6108 609.7083,-653.5197 600.7896,-647.8008 599.1698,-654.6108"/>
</g>
<!-- IDE -->
<g id="node8" class="node">
<title>IDE</title>
<polygon fill="#b2dfee" stroke="#b2dfee" points="766.374,-472 650.49,-472 650.49,-392 766.374,-392 766.374,-472"/>
<text text-anchor="middle" x="708.432" y="-414" font-family="Times,serif" font-size="60.00" fill="#000000">IDE</text>
</g>
<!-- VS Code&#45;&gt;IDE -->
<g id="edge6" class="edge">
<title>VS Code-&gt;IDE</title>
<path fill="none" stroke="#000000" d="M312.8392,-526.8584C414.1511,-502.5651 556.9891,-468.3142 640.4282,-448.3065"/>
<polygon fill="#000000" stroke="#000000" points="641.3943,-451.6741 650.3025,-445.9388 639.762,-444.8671 641.3943,-451.6741"/>
</g>
<!-- launch.json -->
<g id="node14" class="node">
<title>launch.json</title>
<polygon fill="#b2dfee" stroke="#b2dfee" points="1521.692,-815 1230.792,-815 1230.792,-735 1521.692,-735 1521.692,-815"/>
<text text-anchor="middle" x="1376.242" y="-757" font-family="Times,serif" font-size="60.00" fill="#000000">launch.json</text>
</g>
<!-- .vscode&#45;&gt;launch.json -->
<g id="edge12" class="edge">
<title>.vscode-&gt;launch.json</title>
<path fill="none" stroke="#000000" d="M807.0506,-692.5894C869.6983,-702.4014 952.522,-715.2054 1025.906,-726 1089.5057,-735.3553 1159.666,-745.2522 1220.3892,-753.6836"/>
<polygon fill="#000000" stroke="#000000" points="1220.0541,-757.1706 1230.4401,-755.0778 1221.0159,-750.237 1220.0541,-757.1706"/>
</g>
<!-- tasks.json -->
<g id="node15" class="node">
<title>tasks.json</title>
<polygon fill="#b2dfee" stroke="#b2dfee" points="1501.726,-717 1250.758,-717 1250.758,-637 1501.726,-637 1501.726,-717"/>
<text text-anchor="middle" x="1376.242" y="-659" font-family="Times,serif" font-size="60.00" fill="#000000">tasks.json</text>
</g>
<!-- .vscode&#45;&gt;tasks.json -->
<g id="edge13" class="edge">
<title>.vscode-&gt;tasks.json</title>
<path fill="none" stroke="#000000" d="M807.329,-677C922.0421,-677 1111.8149,-677 1240.3311,-677"/>
<polygon fill="#000000" stroke="#000000" points="1240.6348,-680.5001 1250.6347,-677 1240.6347,-673.5001 1240.6348,-680.5001"/>
</g>
<!-- debugging -->
<g id="node9" class="node">
<title>debugging</title>
<polygon fill="#b2dfee" stroke="#b2dfee" points="1511.0502,-619 1241.4338,-619 1241.4338,-539 1511.0502,-539 1511.0502,-619"/>
<text text-anchor="middle" x="1376.242" y="-561" font-family="Times,serif" font-size="60.00" fill="#000000">debugging</text>
</g>
<!-- IDE&#45;&gt;debugging -->
<g id="edge7" class="edge">
<title>IDE-&gt;debugging</title>
<path fill="none" stroke="#000000" d="M766.4801,-453.0046C829.5652,-475.1014 933.7096,-509.4619 1025.906,-530 1092.7645,-544.8937 1167.8643,-556.1106 1231.3337,-564.0275"/>
<polygon fill="#000000" stroke="#000000" points="1231.0643,-567.5207 1241.4172,-565.2698 1231.9203,-560.5732 1231.0643,-567.5207"/>
</g>
<!-- search -->
<g id="node10" class="node">
<title>search</title>
<polygon fill="#b2dfee" stroke="#b2dfee" points="1460.9521,-521 1291.5319,-521 1291.5319,-441 1460.9521,-441 1460.9521,-521"/>
<text text-anchor="middle" x="1376.242" y="-463" font-family="Times,serif" font-size="60.00" fill="#000000">search</text>
</g>
<!-- IDE&#45;&gt;search -->
<g id="edge8" class="edge">
<title>IDE-&gt;search</title>
<path fill="none" stroke="#000000" d="M766.5275,-436.2627C881.8479,-444.7242 1140.6287,-463.7121 1281.1237,-474.0208"/>
<polygon fill="#000000" stroke="#000000" points="1281.2157,-477.5368 1291.445,-474.7781 1281.728,-470.5556 1281.2157,-477.5368"/>
</g>
<!-- settings -->
<g id="node11" class="node">
<title>settings</title>
<polygon fill="#b2dfee" stroke="#b2dfee" points="1476.0663,-423 1276.4177,-423 1276.4177,-343 1476.0663,-343 1476.0663,-423"/>
<text text-anchor="middle" x="1376.242" y="-365" font-family="Times,serif" font-size="60.00" fill="#000000">settings</text>
</g>
<!-- IDE&#45;&gt;settings -->
<g id="edge9" class="edge">
<title>IDE-&gt;settings</title>
<path fill="none" stroke="#000000" d="M766.5275,-427.7373C877.9347,-419.5629 1123.2313,-401.5644 1266.423,-391.0579"/>
<polygon fill="#000000" stroke="#000000" points="1266.836,-394.5371 1276.5531,-390.3146 1266.3237,-387.5558 1266.836,-394.5371"/>
</g>
<!-- extensions -->
<g id="node12" class="node">
<title>extensions</title>
<polygon fill="#b2dfee" stroke="#b2dfee" points="1511.0261,-325 1241.4579,-325 1241.4579,-245 1511.0261,-245 1511.0261,-325"/>
<text text-anchor="middle" x="1376.242" y="-267" font-family="Times,serif" font-size="60.00" fill="#000000">extensions</text>
</g>
<!-- IDE&#45;&gt;extensions -->
<g id="edge10" class="edge">
<title>IDE-&gt;extensions</title>
<path fill="none" stroke="#000000" d="M766.5066,-434.1542C826.7365,-433.7312 921.4965,-425.3915 989.906,-383 1012.8767,-368.7656 1002.7008,-347.8489 1025.906,-334 1086.9777,-297.5524 1164.4865,-284.0529 1231.064,-280.1982"/>
<polygon fill="#000000" stroke="#000000" points="1231.4187,-283.6847 1241.2271,-279.679 1231.0615,-276.6938 1231.4187,-283.6847"/>
</g>
<!-- shortcuts -->
<g id="node13" class="node">
<title>shortcuts</title>
<polygon fill="#b2dfee" stroke="#b2dfee" points="1492.3663,-227 1260.1177,-227 1260.1177,-147 1492.3663,-147 1492.3663,-227"/>
<text text-anchor="middle" x="1376.242" y="-169" font-family="Times,serif" font-size="60.00" fill="#000000">shortcuts</text>
</g>
<!-- IDE&#45;&gt;shortcuts -->
<g id="edge11" class="edge">
<title>IDE-&gt;shortcuts</title>
<path fill="none" stroke="#000000" d="M766.6028,-438.9713C829.8572,-443.1055 929.9243,-439.046 989.906,-383 1039.0539,-337.0769 975.9982,-281.0961 1025.906,-236 1085.529,-182.1252 1175.7251,-170.5223 1249.6656,-172.0537"/>
<polygon fill="#000000" stroke="#000000" points="1249.8886,-175.5616 1259.9862,-172.3539 1250.0922,-168.5645 1249.8886,-175.5616"/>
</g>
<!-- APIs -->
<g id="node16" class="node">
<title>APIs</title>
<polygon fill="#ffff99" stroke="#ffff99" points="263.455,-1452 127.503,-1452 127.503,-1372 263.455,-1372 263.455,-1452"/>
<text text-anchor="middle" x="195.479" y="-1394" font-family="Times,serif" font-size="60.00" fill="#000000">APIs</text>
</g>
<!-- Http Verbs -->
<g id="node17" class="node">
<title>Http Verbs</title>
<polygon fill="#b2dfee" stroke="#b2dfee" points="848.85,-1550 568.014,-1550 568.014,-1470 848.85,-1470 848.85,-1550"/>
<text text-anchor="middle" x="708.432" y="-1492" font-family="Times,serif" font-size="60.00" fill="#000000">Http Verbs</text>
</g>
<!-- APIs&#45;&gt;Http Verbs -->
<g id="edge14" class="edge">
<title>APIs-&gt;Http Verbs</title>
<path fill="none" stroke="#000000" d="M263.4632,-1427.0684C309.5185,-1437.1096 371.8,-1450.3646 426.958,-1461 469.3426,-1469.1725 515.4372,-1477.451 557.8216,-1484.819"/>
<polygon fill="#000000" stroke="#000000" points="557.4891,-1488.3135 567.94,-1486.573 558.6848,-1481.4164 557.4891,-1488.3135"/>
</g>
<!-- Http Status Codes -->
<g id="node18" class="node">
<title>Http Status Codes</title>
<polygon fill="#b2dfee" stroke="#b2dfee" points="933.2461,-1452 483.6179,-1452 483.6179,-1372 933.2461,-1372 933.2461,-1452"/>
<text text-anchor="middle" x="708.432" y="-1394" font-family="Times,serif" font-size="60.00" fill="#000000">Http Status Codes</text>
</g>
<!-- APIs&#45;&gt;Http Status Codes -->
<g id="edge15" class="edge">
<title>APIs-&gt;Http Status Codes</title>
<path fill="none" stroke="#000000" d="M263.5952,-1412C317.7145,-1412 396.7714,-1412 473.2799,-1412"/>
<polygon fill="#000000" stroke="#000000" points="473.5673,-1415.5001 483.5672,-1412 473.5672,-1408.5001 473.5673,-1415.5001"/>
</g>
<!-- Http Headers -->
<g id="node19" class="node">
<title>Http Headers</title>
<polygon fill="#b2dfee" stroke="#b2dfee" points="875.6181,-1354 541.2459,-1354 541.2459,-1274 875.6181,-1274 875.6181,-1354"/>
<text text-anchor="middle" x="708.432" y="-1296" font-family="Times,serif" font-size="60.00" fill="#000000">Http Headers</text>
</g>
<!-- APIs&#45;&gt;Http Headers -->
<g id="edge16" class="edge">
<title>APIs-&gt;Http Headers</title>
<path fill="none" stroke="#000000" d="M263.4632,-1396.9316C309.5185,-1386.8904 371.8,-1373.6354 426.958,-1363 460.5372,-1356.5253 496.445,-1349.9842 530.9917,-1343.8819"/>
<polygon fill="#000000" stroke="#000000" points="531.9374,-1347.2693 541.1789,-1342.0881 530.7234,-1340.3753 531.9374,-1347.2693"/>
</g>
<!-- 2XX: Successful responses -->
<g id="node20" class="node">
<title>2XX: Successful responses</title>
<polygon fill="#b2dfee" stroke="#b2dfee" points="1710.86,-1844 1041.624,-1844 1041.624,-1764 1710.86,-1764 1710.86,-1844"/>
<text text-anchor="middle" x="1376.242" y="-1786" font-family="Times,serif" font-size="60.00" fill="#000000">2XX: Successful responses</text>
</g>
<!-- Http Status Codes&#45;&gt;2XX: Successful responses -->
<g id="edge17" class="edge">
<title>Http Status Codes-&gt;2XX: Successful responses</title>
<path fill="none" stroke="#000000" d="M933.3481,-1428.3814C953.8406,-1436.3888 973.1511,-1447.0144 989.906,-1461 1025.5283,-1490.7345 997.593,-1522.2378 1025.906,-1559 1094.3681,-1647.8927 1204.1415,-1717.2348 1282.5618,-1759.118"/>
<polygon fill="#000000" stroke="#000000" points="1281.0087,-1762.2559 1291.4848,-1763.8377 1284.2816,-1756.0682 1281.0087,-1762.2559"/>
</g>
<!-- 3XX: Redirection messages -->
<g id="node21" class="node">
<title>3XX: Redirection messages</title>
<polygon fill="#b2dfee" stroke="#b2dfee" points="1719.034,-1550 1033.45,-1550 1033.45,-1470 1719.034,-1470 1719.034,-1550"/>
<text text-anchor="middle" x="1376.242" y="-1492" font-family="Times,serif" font-size="60.00" fill="#000000">3XX: Redirection messages</text>
</g>
<!-- Http Status Codes&#45;&gt;3XX: Redirection messages -->
<g id="edge18" class="edge">
<title>Http Status Codes-&gt;3XX: Redirection messages</title>
<path fill="none" stroke="#000000" d="M933.1258,-1444.9734C984.5644,-1452.522 1039.8887,-1460.6407 1093.4191,-1468.4962"/>
<polygon fill="#000000" stroke="#000000" points="1092.9899,-1471.9706 1103.3922,-1469.9597 1094.0063,-1465.0448 1092.9899,-1471.9706"/>
</g>
<!-- 4XX: Client error responses -->
<g id="node22" class="node">
<title>4XX: Client error responses</title>
<polygon fill="#b2dfee" stroke="#b2dfee" points="1721.514,-1305 1030.97,-1305 1030.97,-1225 1721.514,-1225 1721.514,-1305"/>
<text text-anchor="middle" x="1376.242" y="-1247" font-family="Times,serif" font-size="60.00" fill="#000000">4XX: Client error responses</text>
</g>
<!-- Http Status Codes&#45;&gt;4XX: Client error responses -->
<g id="edge19" class="edge">
<title>Http Status Codes-&gt;4XX: Client error responses</title>
<path fill="none" stroke="#000000" d="M933.421,-1374.409C952.5623,-1370.7332 971.5942,-1366.9105 989.906,-1363 1065.8472,-1346.7827 1149.4484,-1325.9515 1219.4007,-1307.6679"/>
<polygon fill="#000000" stroke="#000000" points="1220.3923,-1311.0263 1229.1785,-1305.1057 1218.6179,-1304.2549 1220.3923,-1311.0263"/>
</g>
<!-- 5XX: Server error responses -->
<g id="node23" class="node">
<title>5XX: Server error responses</title>
<polygon fill="#b2dfee" stroke="#b2dfee" points="1726.4141,-913 1026.0699,-913 1026.0699,-833 1726.4141,-833 1726.4141,-913"/>
<text text-anchor="middle" x="1376.242" y="-855" font-family="Times,serif" font-size="60.00" fill="#000000">5XX: Server error responses</text>
</g>
<!-- Http Status Codes&#45;&gt;5XX: Server error responses -->
<g id="edge20" class="edge">
<title>Http Status Codes-&gt;5XX: Server error responses</title>
<path fill="none" stroke="#000000" d="M933.2884,-1398.2076C954.1097,-1389.7613 973.5062,-1378.3238 989.906,-1363 1039.0539,-1317.0769 992.5963,-1274.4372 1025.906,-1216 1097.9938,-1089.532 1230.114,-978.9619 1309.8871,-919.4889"/>
<polygon fill="#000000" stroke="#000000" points="1312.4376,-921.9555 1318.3933,-913.193 1308.2732,-916.329 1312.4376,-921.9555"/>
</g>
<!-- 200 OK -->
<g id="node24" class="node">
<title>200 OK</title>
<polygon fill="#b2dfee" stroke="#b2dfee" points="2176.5613,-1991 1969.3047,-1991 1969.3047,-1911 2176.5613,-1911 2176.5613,-1991"/>
<text text-anchor="middle" x="2072.933" y="-1933" font-family="Times,serif" font-size="60.00" fill="#000000">200 OK</text>
</g>
<!-- 2XX: Successful responses&#45;&gt;200 OK -->
<g id="edge21" class="edge">
<title>2XX: Successful responses-&gt;200 OK</title>
<path fill="none" stroke="#000000" d="M1520.9034,-1844.051C1593.1405,-1863.192 1682.0863,-1885.4732 1762.578,-1902 1827.2329,-1915.2751 1900.1033,-1926.9479 1958.9787,-1935.5673"/>
<polygon fill="#000000" stroke="#000000" points="1958.6523,-1939.0566 1969.052,-1937.0323 1959.6598,-1932.1295 1958.6523,-1939.0566"/>
</g>
<!-- 201 Created -->
<g id="node25" class="node">
<title>201 Created</title>
<polygon fill="#b2dfee" stroke="#b2dfee" points="2226.4973,-1893 1919.3687,-1893 1919.3687,-1813 2226.4973,-1813 2226.4973,-1893"/>
<text text-anchor="middle" x="2072.933" y="-1835" font-family="Times,serif" font-size="60.00" fill="#000000">201 Created</text>
</g>
<!-- 2XX: Successful responses&#45;&gt;201 Created -->
<g id="edge22" class="edge">
<title>2XX: Successful responses-&gt;201 Created</title>
<path fill="none" stroke="#000000" d="M1710.8134,-1827.5312C1779.7472,-1832.3795 1849.4015,-1837.2785 1908.9557,-1841.4671"/>
<polygon fill="#000000" stroke="#000000" points="1908.9671,-1844.9764 1919.188,-1842.1867 1909.4582,-1837.9937 1908.9671,-1844.9764"/>
</g>
<!-- 204 No Content -->
<g id="node26" class="node">
<title>204 No Content</title>
<polygon fill="#b2dfee" stroke="#b2dfee" points="2272.7431,-1795 1873.1229,-1795 1873.1229,-1715 2272.7431,-1715 2272.7431,-1795"/>
<text text-anchor="middle" x="2072.933" y="-1737" font-family="Times,serif" font-size="60.00" fill="#000000">204 No Content</text>
</g>
<!-- 2XX: Successful responses&#45;&gt;204 No Content -->
<g id="edge23" class="edge">
<title>2XX: Successful responses-&gt;204 No Content</title>
<path fill="none" stroke="#000000" d="M1710.8134,-1780.4688C1762.6058,-1776.8261 1814.8048,-1773.1548 1862.8212,-1769.7777"/>
<polygon fill="#000000" stroke="#000000" points="1863.2725,-1773.2547 1873.0023,-1769.0616 1862.7813,-1766.2719 1863.2725,-1773.2547"/>
</g>
<!-- 301 Moved Permanently -->
<g id="node27" class="node">
<title>301 Moved Permanently</title>
<polygon fill="#b2dfee" stroke="#b2dfee" points="2377.653,-1697 1768.213,-1697 1768.213,-1617 2377.653,-1617 2377.653,-1697"/>
<text text-anchor="middle" x="2072.933" y="-1639" font-family="Times,serif" font-size="60.00" fill="#000000">301 Moved Permanently</text>
</g>
<!-- 3XX: Redirection messages&#45;&gt;301 Moved Permanently -->
<g id="edge24" class="edge">
<title>3XX: Redirection messages-&gt;301 Moved Permanently</title>
<path fill="none" stroke="#000000" d="M1520.9034,-1550.051C1593.1405,-1569.192 1682.0863,-1591.4732 1762.578,-1608 1774.2666,-1610.3999 1786.2238,-1612.7475 1798.3182,-1615.0341"/>
<polygon fill="#000000" stroke="#000000" points="1798.0338,-1618.5416 1808.507,-1616.9404 1799.3212,-1611.661 1798.0338,-1618.5416"/>
</g>
<!-- 302 Found -->
<g id="node28" class="node">
<title>302 Found</title>
<polygon fill="#b2dfee" stroke="#b2dfee" points="2210.2872,-1599 1935.5788,-1599 1935.5788,-1519 2210.2872,-1519 2210.2872,-1599"/>
<text text-anchor="middle" x="2072.933" y="-1541" font-family="Times,serif" font-size="60.00" fill="#000000">302 Found</text>
</g>
<!-- 3XX: Redirection messages&#45;&gt;302 Found -->
<g id="edge25" class="edge">
<title>3XX: Redirection messages-&gt;302 Found</title>
<path fill="none" stroke="#000000" d="M1719.2298,-1534.1232C1791.9817,-1539.24 1865.0453,-1544.3787 1925.7233,-1548.6464"/>
<polygon fill="#000000" stroke="#000000" points="1925.5189,-1552.1406 1935.7398,-1549.3509 1926.0101,-1545.1578 1925.5189,-1552.1406"/>
</g>
<!-- 304 Not Modified -->
<g id="node29" class="node">
<title>304 Not Modified</title>
<polygon fill="#b2dfee" stroke="#b2dfee" points="2297.7111,-1501 1848.1549,-1501 1848.1549,-1421 2297.7111,-1421 2297.7111,-1501"/>
<text text-anchor="middle" x="2072.933" y="-1443" font-family="Times,serif" font-size="60.00" fill="#000000">304 Not Modified</text>
</g>
<!-- 3XX: Redirection messages&#45;&gt;304 Not Modified -->
<g id="edge26" class="edge">
<title>3XX: Redirection messages-&gt;304 Not Modified</title>
<path fill="none" stroke="#000000" d="M1719.2298,-1485.8768C1759.449,-1483.0481 1799.7634,-1480.2127 1838.0279,-1477.5215"/>
<polygon fill="#000000" stroke="#000000" points="1838.5056,-1480.9966 1848.2354,-1476.8035 1838.0144,-1474.0138 1838.5056,-1480.9966"/>
</g>
<!-- 400 Bad Request -->
<g id="node30" class="node">
<title>400 Bad Request</title>
<polygon fill="#b2dfee" stroke="#b2dfee" points="2285.871,-1403 1859.995,-1403 1859.995,-1323 2285.871,-1323 2285.871,-1403"/>
<text text-anchor="middle" x="2072.933" y="-1345" font-family="Times,serif" font-size="60.00" fill="#000000">400 Bad Request</text>
</g>
<!-- 4XX: Client error responses&#45;&gt;400 Bad Request -->
<g id="edge27" class="edge">
<title>4XX: Client error responses-&gt;400 Bad Request</title>
<path fill="none" stroke="#000000" d="M1660.6177,-1305.0017C1723.7029,-1313.8756 1789.6868,-1323.1572 1849.9057,-1331.6279"/>
<polygon fill="#000000" stroke="#000000" points="1849.5177,-1335.1077 1859.9078,-1333.0348 1850.4928,-1328.1759 1849.5177,-1335.1077"/>
</g>
<!-- 401 Unauthorized -->
<g id="node31" class="node">
<title>401 Unauthorized</title>
<polygon fill="#b2dfee" stroke="#b2dfee" points="2296.4712,-1305 1849.3948,-1305 1849.3948,-1225 2296.4712,-1225 2296.4712,-1305"/>
<text text-anchor="middle" x="2072.933" y="-1247" font-family="Times,serif" font-size="60.00" fill="#000000">401 Unauthorized</text>
</g>
<!-- 4XX: Client error responses&#45;&gt;401 Unauthorized -->
<g id="edge28" class="edge">
<title>4XX: Client error responses-&gt;401 Unauthorized</title>
<path fill="none" stroke="#000000" d="M1721.5259,-1265C1761.4159,-1265 1801.3595,-1265 1839.264,-1265"/>
<polygon fill="#000000" stroke="#000000" points="1839.3753,-1268.5001 1849.3753,-1265 1839.3753,-1261.5001 1839.3753,-1268.5001"/>
</g>
<!-- 403 Forbidden -->
<g id="node32" class="node">
<title>403 Forbidden</title>
<polygon fill="#b2dfee" stroke="#b2dfee" points="2256.5692,-1207 1889.2968,-1207 1889.2968,-1127 2256.5692,-1127 2256.5692,-1207"/>
<text text-anchor="middle" x="2072.933" y="-1149" font-family="Times,serif" font-size="60.00" fill="#000000">403 Forbidden</text>
</g>
<!-- 4XX: Client error responses&#45;&gt;403 Forbidden -->
<g id="edge29" class="edge">
<title>4XX: Client error responses-&gt;403 Forbidden</title>
<path fill="none" stroke="#000000" d="M1660.6177,-1224.9983C1734.1345,-1214.6571 1811.5877,-1203.7621 1879.2663,-1194.2421"/>
<polygon fill="#000000" stroke="#000000" points="1879.7642,-1197.7066 1889.1791,-1192.8477 1878.7891,-1190.7749 1879.7642,-1197.7066"/>
</g>
<!-- 404 Not Found -->
<g id="node33" class="node">
<title>404 Not Found</title>
<polygon fill="#b2dfee" stroke="#b2dfee" points="2262.7752,-1109 1883.0908,-1109 1883.0908,-1029 2262.7752,-1029 2262.7752,-1109"/>
<text text-anchor="middle" x="2072.933" y="-1051" font-family="Times,serif" font-size="60.00" fill="#000000">404 Not Found</text>
</g>
<!-- 4XX: Client error responses&#45;&gt;404 Not Found -->
<g id="edge30" class="edge">
<title>4XX: Client error responses-&gt;404 Not Found</title>
<path fill="none" stroke="#000000" d="M1465.4396,-1224.9966C1542.6466,-1191.8506 1658.033,-1145.8209 1762.578,-1118 1797.9025,-1108.5997 1835.9993,-1100.7631 1872.9966,-1094.3159"/>
<polygon fill="#000000" stroke="#000000" points="1873.6211,-1097.76 1882.886,-1092.6206 1872.4383,-1090.8606 1873.6211,-1097.76"/>
</g>
<!-- 500 Internal Server Error -->
<g id="node34" class="node">
<title>500 Internal Server Error</title>
<polygon fill="#b2dfee" stroke="#b2dfee" points="2383.1431,-1011 1762.7229,-1011 1762.7229,-931 2383.1431,-931 2383.1431,-1011"/>
<text text-anchor="middle" x="2072.933" y="-953" font-family="Times,serif" font-size="60.00" fill="#000000">500 Internal Server Error</text>
</g>
<!-- 5XX: Server error responses&#45;&gt;500 Internal Server Error -->
<g id="edge31" class="edge">
<title>5XX: Server error responses-&gt;500 Internal Server Error</title>
<path fill="none" stroke="#000000" d="M1660.6177,-913.0017C1699.3015,-918.4431 1739.0751,-924.0379 1777.9411,-929.505"/>
<polygon fill="#000000" stroke="#000000" points="1777.9473,-933.0402 1788.3374,-930.9674 1778.9224,-926.1085 1777.9473,-933.0402"/>
</g>
<!-- 502 Bad Gateway -->
<g id="node35" class="node">
<title>502 Bad Gateway</title>
<polygon fill="#b2dfee" stroke="#b2dfee" points="2295.785,-913 1850.081,-913 1850.081,-833 2295.785,-833 2295.785,-913"/>
<text text-anchor="middle" x="2072.933" y="-855" font-family="Times,serif" font-size="60.00" fill="#000000">502 Bad Gateway</text>
</g>
<!-- 5XX: Server error responses&#45;&gt;502 Bad Gateway -->
<g id="edge32" class="edge">
<title>5XX: Server error responses-&gt;502 Bad Gateway</title>
<path fill="none" stroke="#000000" d="M1726.6286,-873C1764.8799,-873 1803.0984,-873 1839.4391,-873"/>
<polygon fill="#000000" stroke="#000000" points="1839.6378,-876.5001 1849.6378,-873 1839.6377,-869.5001 1839.6378,-876.5001"/>
</g>
<!-- 503 Service Unavailable -->
<g id="node36" class="node">
<title>503 Service Unavailable</title>
<polygon fill="#b2dfee" stroke="#b2dfee" points="2375.709,-815 1770.157,-815 1770.157,-735 2375.709,-735 2375.709,-815"/>
<text text-anchor="middle" x="2072.933" y="-757" font-family="Times,serif" font-size="60.00" fill="#000000">503 Service Unavailable</text>
</g>
<!-- 5XX: Server error responses&#45;&gt;503 Service Unavailable -->
<g id="edge33" class="edge">
<title>5XX: Server error responses-&gt;503 Service Unavailable</title>
<path fill="none" stroke="#000000" d="M1662.5574,-832.992C1684.222,-829.9532 1705.7487,-826.93 1726.578,-824 1744.0837,-821.5375 1762.0866,-819.0014 1780.2472,-816.4404"/>
<polygon fill="#000000" stroke="#000000" points="1780.9374,-819.8778 1790.3505,-815.0154 1779.9596,-812.9464 1780.9374,-819.8778"/>
</g>
<!-- 504 Gateway Timeout -->
<g id="node37" class="node">
<title>504 Gateway Timeout</title>
<polygon fill="#b2dfee" stroke="#b2dfee" points="2348.9472,-717 1796.9188,-717 1796.9188,-637 2348.9472,-637 2348.9472,-717"/>
<text text-anchor="middle" x="2072.933" y="-659" font-family="Times,serif" font-size="60.00" fill="#000000">504 Gateway Timeout</text>
</g>
<!-- 5XX: Server error responses&#45;&gt;504 Gateway Timeout -->
<g id="edge34" class="edge">
<title>5XX: Server error responses-&gt;504 Gateway Timeout</title>
<path fill="none" stroke="#000000" d="M1714.8072,-832.8261C1718.8272,-830.025 1722.7542,-827.085 1726.578,-824 1762.6917,-794.8644 1726.7225,-755.4528 1762.578,-726 1770.4813,-719.508 1778.8918,-713.7041 1787.6928,-708.5223"/>
<polygon fill="#000000" stroke="#000000" points="1789.5896,-711.4721 1796.6195,-703.5455 1786.1809,-705.3581 1789.5896,-711.4721"/>
</g>
<!-- Command Line -->
<g id="node38" class="node">
<title>Command Line</title>
<polygon fill="#666666" stroke="#666666" points="390.937,-1697 .021,-1697 .021,-1617 390.937,-1617 390.937,-1697"/>
<text text-anchor="middle" x="195.479" y="-1639" font-family="Times,serif" font-size="60.00" fill="#000000">Command Line</text>
</g>
<!-- Bash Shell -->
<g id="node39" class="node">
<title>Bash Shell</title>
<polygon fill="#b2dfee" stroke="#b2dfee" points="845.7502,-1746 571.1138,-1746 571.1138,-1666 845.7502,-1666 845.7502,-1746"/>
<text text-anchor="middle" x="708.432" y="-1688" font-family="Times,serif" font-size="60.00" fill="#000000">Bash Shell</text>
</g>
<!-- Command Line&#45;&gt;Bash Shell -->
<g id="edge35" class="edge">
<title>Command Line-&gt;Bash Shell</title>
<path fill="none" stroke="#000000" d="M391.234,-1675.6996C447.593,-1681.0833 508.1024,-1686.8634 561.0052,-1691.917"/>
<polygon fill="#000000" stroke="#000000" points="560.8484,-1695.4179 571.1359,-1692.8847 561.5141,-1688.4496 560.8484,-1695.4179"/>
</g>
<!-- Powershell -->
<g id="node40" class="node">
<title>Powershell</title>
<polygon fill="#b2dfee" stroke="#b2dfee" points="849.5243,-1648 567.3397,-1648 567.3397,-1568 849.5243,-1568 849.5243,-1648"/>
<text text-anchor="middle" x="708.432" y="-1590" font-family="Times,serif" font-size="60.00" fill="#000000">Powershell</text>
</g>
<!-- Command Line&#45;&gt;Powershell -->
<g id="edge36" class="edge">
<title>Command Line-&gt;Powershell</title>
<path fill="none" stroke="#000000" d="M391.234,-1638.3004C446.2637,-1633.0437 505.2504,-1627.409 557.2496,-1622.4418"/>
<polygon fill="#000000" stroke="#000000" points="557.5916,-1625.9251 567.2134,-1621.4899 556.9259,-1618.9568 557.5916,-1625.9251"/>
</g>
<!-- Front&#45;End -->
<g id="node41" class="node">
<title>Front-End</title>
<polygon fill="#7fc97f" stroke="#7fc97f" points="326.6093,-1942 64.3487,-1942 64.3487,-1862 326.6093,-1862 326.6093,-1942"/>
<text text-anchor="middle" x="195.479" y="-1884" font-family="Times,serif" font-size="60.00" fill="#000000">Front-End</text>
</g>
<!-- HTML -->
<g id="node42" class="node">
<title>HTML</title>
<polygon fill="#b2dfee" stroke="#b2dfee" points="801.388,-2040 615.476,-2040 615.476,-1960 801.388,-1960 801.388,-2040"/>
<text text-anchor="middle" x="708.432" y="-1982" font-family="Times,serif" font-size="60.00" fill="#000000">HTML</text>
</g>
<!-- Front&#45;End&#45;&gt;HTML -->
<g id="edge37" class="edge">
<title>Front-End-&gt;HTML</title>
<path fill="none" stroke="#000000" d="M326.9068,-1930.6846C359.5503,-1937.5708 394.4884,-1944.7393 426.958,-1951 485.8687,-1962.359 551.9465,-1973.9228 605.2678,-1982.9621"/>
<polygon fill="#000000" stroke="#000000" points="604.9694,-1986.4613 615.413,-1984.6777 606.1366,-1979.5593 604.9694,-1986.4613"/>
</g>
<!-- CSS -->
<g id="node43" class="node">
<title>CSS</title>
<polygon fill="#b2dfee" stroke="#b2dfee" points="769.6543,-1942 647.2097,-1942 647.2097,-1862 769.6543,-1862 769.6543,-1942"/>
<text text-anchor="middle" x="708.432" y="-1884" font-family="Times,serif" font-size="60.00" fill="#000000">CSS</text>
</g>
<!-- Front&#45;End&#45;&gt;CSS -->
<g id="edge38" class="edge">
<title>Front-End-&gt;CSS</title>
<path fill="none" stroke="#000000" d="M326.911,-1902C425.4877,-1902 556.6936,-1902 636.7301,-1902"/>
<polygon fill="#000000" stroke="#000000" points="637.1935,-1905.5001 647.1935,-1902 637.1935,-1898.5001 637.1935,-1905.5001"/>
</g>
<!-- JavaScript -->
<g id="node44" class="node">
<title>JavaScript</title>
<polygon fill="#b2dfee" stroke="#b2dfee" points="841.344,-1844 575.52,-1844 575.52,-1764 841.344,-1764 841.344,-1844"/>
<text text-anchor="middle" x="708.432" y="-1786" font-family="Times,serif" font-size="60.00" fill="#000000">JavaScript</text>
</g>
<!-- Front&#45;End&#45;&gt;JavaScript -->
<g id="edge39" class="edge">
<title>Front-End-&gt;JavaScript</title>
<path fill="none" stroke="#000000" d="M326.9068,-1873.3154C359.5503,-1866.4292 394.4884,-1859.2607 426.958,-1853 471.8987,-1844.3347 521.0102,-1835.5501 565.4476,-1827.8581"/>
<polygon fill="#000000" stroke="#000000" points="566.1872,-1831.2823 575.446,-1826.1321 564.9964,-1824.3843 566.1872,-1831.2823"/>
</g>
<!-- Back&#45;End -->
<g id="node45" class="node">
<title>Back-End</title>
<polygon fill="#386cb0" stroke="#386cb0" points="323.389,-2579 67.569,-2579 67.569,-2499 323.389,-2499 323.389,-2579"/>
<text text-anchor="middle" x="195.479" y="-2521" font-family="Times,serif" font-size="60.00" fill="#000000">Back-End</text>
</g>
<!-- Web Server -->
<g id="node46" class="node">
<title>Web Server</title>
<polygon fill="#b2dfee" stroke="#b2dfee" points="858.77,-3020 558.094,-3020 558.094,-2940 858.77,-2940 858.77,-3020"/>
<text text-anchor="middle" x="708.432" y="-2962" font-family="Times,serif" font-size="60.00" fill="#000000">Web Server</text>
</g>
<!-- Back&#45;End&#45;&gt;Web Server -->
<g id="edge40" class="edge">
<title>Back-End-&gt;Web Server</title>
<path fill="none" stroke="#000000" d="M206.7616,-2579.2993C231.7126,-2660.3912 299.696,-2843.0223 426.958,-2931 462.1814,-2955.3504 505.6576,-2968.85 547.8149,-2976.048"/>
<polygon fill="#000000" stroke="#000000" points="547.4972,-2979.5415 557.9236,-2977.66 548.5996,-2972.6288 547.4972,-2979.5415"/>
</g>
<!-- ORM -->
<g id="node47" class="node">
<title>ORM</title>
<polygon fill="#b2dfee" stroke="#b2dfee" points="784.5944,-2922 632.2696,-2922 632.2696,-2842 784.5944,-2842 784.5944,-2922"/>
<text text-anchor="middle" x="708.432" y="-2864" font-family="Times,serif" font-size="60.00" fill="#000000">ORM</text>
</g>
<!-- Back&#45;End&#45;&gt;ORM -->
<g id="edge41" class="edge">
<title>Back-End-&gt;ORM</title>
<path fill="none" stroke="#000000" d="M214.6626,-2579.0339C248.0194,-2643.9336 323.2005,-2771.074 426.958,-2833 485.9439,-2868.2048 563.4835,-2879.6599 622.2407,-2882.7584"/>
<polygon fill="#000000" stroke="#000000" points="622.0931,-2886.2552 632.2424,-2883.2152 622.4126,-2879.2625 622.0931,-2886.2552"/>
</g>
<!-- Language+Framework -->
<g id="node48" class="node">
<title>Language+Framework</title>
<polygon fill="#b2dfee" stroke="#b2dfee" points="989.88,-2824 426.984,-2824 426.984,-2744 989.88,-2744 989.88,-2824"/>
<text text-anchor="middle" x="708.432" y="-2766" font-family="Times,serif" font-size="60.00" fill="#000000">Language+Framework</text>
</g>
<!-- Back&#45;End&#45;&gt;Language+Framework -->
<g id="edge42" class="edge">
<title>Back-End-&gt;Language+Framework</title>
<path fill="none" stroke="#000000" d="M230.3245,-2579.2719C272.1756,-2624.8231 346.8232,-2697.5211 426.958,-2735 430.6437,-2736.7238 434.3822,-2738.3874 438.1664,-2739.993"/>
<polygon fill="#000000" stroke="#000000" points="437.0814,-2743.3303 447.6627,-2743.8656 439.7247,-2736.8486 437.0814,-2743.3303"/>
</g>
<!-- OWASP -->
<g id="node49" class="node">
<title>OWASP</title>
<polygon fill="#b2dfee" stroke="#b2dfee" points="821.402,-2726 595.462,-2726 595.462,-2646 821.402,-2646 821.402,-2726"/>
<text text-anchor="middle" x="708.432" y="-2668" font-family="Times,serif" font-size="60.00" fill="#000000">OWASP</text>
</g>
<!-- Back&#45;End&#45;&gt;OWASP -->
<g id="edge43" class="edge">
<title>Back-End-&gt;OWASP</title>
<path fill="none" stroke="#000000" d="M277.371,-2579.079C320.9199,-2598.9962 375.8856,-2621.9582 426.958,-2637 477.9271,-2652.0113 535.5247,-2663.0395 585.2795,-2670.7895"/>
<polygon fill="#000000" stroke="#000000" points="585.0321,-2674.2923 595.4464,-2672.3449 586.0907,-2667.3728 585.0321,-2674.2923"/>
</g>
<!-- Encryption -->
<g id="node50" class="node">
<title>Encryption</title>
<polygon fill="#b2dfee" stroke="#b2dfee" points="849.5423,-2628 567.3217,-2628 567.3217,-2548 849.5423,-2548 849.5423,-2628"/>
<text text-anchor="middle" x="708.432" y="-2570" font-family="Times,serif" font-size="60.00" fill="#000000">Encryption</text>
</g>
<!-- Back&#45;End&#45;&gt;Encryption -->
<g id="edge44" class="edge">
<title>Back-End-&gt;Encryption</title>
<path fill="none" stroke="#000000" d="M323.5955,-2551.2384C394.3073,-2557.9931 482.5581,-2566.4233 556.7052,-2573.5062"/>
<polygon fill="#000000" stroke="#000000" points="556.7832,-2577.0296 567.0708,-2574.4964 557.4489,-2570.0613 556.7832,-2577.0296"/>
</g>
<!-- Unit Testing -->
<g id="node51" class="node">
<title>Unit Testing</title>
<polygon fill="#b2dfee" stroke="#b2dfee" points="867.0642,-2530 549.7998,-2530 549.7998,-2450 867.0642,-2450 867.0642,-2530"/>
<text text-anchor="middle" x="708.432" y="-2472" font-family="Times,serif" font-size="60.00" fill="#000000">Unit Testing</text>
</g>
<!-- Back&#45;End&#45;&gt;Unit Testing -->
<g id="edge45" class="edge">
<title>Back-End-&gt;Unit Testing</title>
<path fill="none" stroke="#000000" d="M323.5955,-2526.7616C388.7888,-2520.534 468.8905,-2512.8823 539.1029,-2506.1752"/>
<polygon fill="#000000" stroke="#000000" points="539.7655,-2509.6279 549.3874,-2505.1928 539.0998,-2502.6597 539.7655,-2509.6279"/>
</g>
<!-- CI/CD -->
<g id="node52" class="node">
<title>CI/CD</title>
<polygon fill="#b2dfee" stroke="#b2dfee" points="796.422,-2432 620.442,-2432 620.442,-2352 796.422,-2352 796.422,-2432"/>
<text text-anchor="middle" x="708.432" y="-2374" font-family="Times,serif" font-size="60.00" fill="#000000">CI/CD</text>
</g>
<!-- Back&#45;End&#45;&gt;CI/CD -->
<g id="edge46" class="edge">
<title>Back-End-&gt;CI/CD</title>
<path fill="none" stroke="#000000" d="M277.371,-2498.921C320.9199,-2479.0038 375.8856,-2456.0418 426.958,-2441 486.757,-2423.3881 555.6802,-2411.259 610.3568,-2403.4741"/>
<polygon fill="#000000" stroke="#000000" points="610.9759,-2406.9217 620.3949,-2402.0707 610.0066,-2399.9891 610.9759,-2406.9217"/>
</g>
<!-- Librarys -->
<g id="node53" class="node">
<title>Librarys</title>
<polygon fill="#b2dfee" stroke="#b2dfee" points="818.1761,-2334 598.6879,-2334 598.6879,-2254 818.1761,-2254 818.1761,-2334"/>
<text text-anchor="middle" x="708.432" y="-2276" font-family="Times,serif" font-size="60.00" fill="#000000">Librarys</text>
</g>
<!-- Back&#45;End&#45;&gt;Librarys -->
<g id="edge47" class="edge">
<title>Back-End-&gt;Librarys</title>
<path fill="none" stroke="#000000" d="M230.3245,-2498.7281C272.1756,-2453.1769 346.8232,-2380.4789 426.958,-2343 476.9785,-2319.6055 536.725,-2307.2917 588.2787,-2300.8454"/>
<polygon fill="#000000" stroke="#000000" points="588.9582,-2304.2893 598.4749,-2299.6328 588.1315,-2297.3383 588.9582,-2304.2893"/>
</g>
<!-- IO -->
<g id="node54" class="node">
<title>IO</title>
<polygon fill="#b2dfee" stroke="#b2dfee" points="748.2205,-2236 668.6435,-2236 668.6435,-2156 748.2205,-2156 748.2205,-2236"/>
<text text-anchor="middle" x="708.432" y="-2178" font-family="Times,serif" font-size="60.00" fill="#000000">IO</text>
</g>
<!-- Back&#45;End&#45;&gt;IO -->
<g id="edge48" class="edge">
<title>Back-End-&gt;IO</title>
<path fill="none" stroke="#000000" d="M214.6626,-2498.9661C248.0194,-2434.0664 323.2005,-2306.926 426.958,-2245 499.0815,-2201.9542 598.9438,-2194.4156 658.293,-2194.2448"/>
<polygon fill="#000000" stroke="#000000" points="658.5158,-2197.7457 668.5304,-2194.2876 658.5451,-2190.7457 658.5158,-2197.7457"/>
</g>
<!-- Logs -->
<g id="node55" class="node">
<title>Logs</title>
<polygon fill="#b2dfee" stroke="#b2dfee" points="776.42,-2138 640.444,-2138 640.444,-2058 776.42,-2058 776.42,-2138"/>
<text text-anchor="middle" x="708.432" y="-2080" font-family="Times,serif" font-size="60.00" fill="#000000">Logs</text>
</g>
<!-- Back&#45;End&#45;&gt;Logs -->
<g id="edge49" class="edge">
<title>Back-End-&gt;Logs</title>
<path fill="none" stroke="#000000" d="M206.7616,-2498.7007C231.7126,-2417.6088 299.696,-2234.9777 426.958,-2147 486.4523,-2105.8709 569.4908,-2095.698 629.9508,-2094.5603"/>
<polygon fill="#000000" stroke="#000000" points="630.2467,-2098.0574 640.2082,-2094.4493 630.1709,-2091.0578 630.2467,-2098.0574"/>
</g>
<!-- Database -->
<g id="node56" class="node">
<title>Database</title>
<polygon fill="#bf5b17" stroke="#bf5b17" points="313.337,-3167 77.621,-3167 77.621,-3087 313.337,-3087 313.337,-3167"/>
<text text-anchor="middle" x="195.479" y="-3109" font-family="Times,serif" font-size="60.00" fill="#000000">Database</text>
</g>
<!-- SQL -->
<g id="node57" class="node">
<title>SQL</title>
<polygon fill="#b2dfee" stroke="#b2dfee" points="773.2544,-3216 643.6096,-3216 643.6096,-3136 773.2544,-3136 773.2544,-3216"/>
<text text-anchor="middle" x="708.432" y="-3158" font-family="Times,serif" font-size="60.00" fill="#000000">SQL</text>
</g>
<!-- Database&#45;&gt;SQL -->
<g id="edge50" class="edge">
<title>Database-&gt;SQL</title>
<path fill="none" stroke="#000000" d="M313.4827,-3138.2723C411.9834,-3147.6817 549.4012,-3160.8085 633.461,-3168.8384"/>
<polygon fill="#000000" stroke="#000000" points="633.154,-3172.3249 643.4415,-3169.7918 633.8197,-3165.3566 633.154,-3172.3249"/>
</g>
<!-- NoSQL -->
<g id="node58" class="node">
<title>NoSQL</title>
<polygon fill="#b2dfee" stroke="#b2dfee" points="809.5683,-3118 607.2957,-3118 607.2957,-3038 809.5683,-3038 809.5683,-3118"/>
<text text-anchor="middle" x="708.432" y="-3060" font-family="Times,serif" font-size="60.00" fill="#000000">NoSQL</text>
</g>
<!-- Database&#45;&gt;NoSQL -->
<g id="edge51" class="edge">
<title>Database-&gt;NoSQL</title>
<path fill="none" stroke="#000000" d="M313.4827,-3115.7277C398.7647,-3107.5811 513.2194,-3096.6477 596.9589,-3088.6485"/>
<polygon fill="#000000" stroke="#000000" points="597.393,-3092.1231 607.0148,-3087.6879 596.7273,-3085.1548 597.393,-3092.1231"/>
</g>
<!-- SQL Verbs -->
<g id="node59" class="node">
<title>SQL Verbs</title>
<polygon fill="#b2dfee" stroke="#b2dfee" points="1519.8203,-3314 1232.6637,-3314 1232.6637,-3234 1519.8203,-3234 1519.8203,-3314"/>
<text text-anchor="middle" x="1376.242" y="-3256" font-family="Times,serif" font-size="60.00" fill="#000000">SQL Verbs</text>
</g>
<!-- SQL&#45;&gt;SQL Verbs -->
<g id="edge52" class="edge">
<title>SQL-&gt;SQL Verbs</title>
<path fill="none" stroke="#000000" d="M773.3755,-3185.5303C876.443,-3200.6553 1080.3107,-3230.5726 1222.2854,-3251.4071"/>
<polygon fill="#000000" stroke="#000000" points="1221.9961,-3254.9021 1232.3983,-3252.8912 1223.0125,-3247.9763 1221.9961,-3254.9021"/>
</g>
<!-- SQL Objects -->
<g id="node60" class="node">
<title>SQL Objects</title>
<polygon fill="#b2dfee" stroke="#b2dfee" points="1539.8283,-3069 1212.6557,-3069 1212.6557,-2989 1539.8283,-2989 1539.8283,-3069"/>
<text text-anchor="middle" x="1376.242" y="-3011" font-family="Times,serif" font-size="60.00" fill="#000000">SQL Objects</text>
</g>
<!-- SQL&#45;&gt;SQL Objects -->
<g id="edge53" class="edge">
<title>SQL-&gt;SQL Objects</title>
<path fill="none" stroke="#000000" d="M773.2622,-3166.1504C830.4868,-3157.1149 916.0523,-3142.7715 989.906,-3127 1065.8472,-3110.7827 1149.4484,-3089.9515 1219.4007,-3071.6679"/>
<polygon fill="#000000" stroke="#000000" points="1220.3923,-3075.0263 1229.1785,-3069.1057 1218.6179,-3068.2549 1220.3923,-3075.0263"/>
</g>
<!-- Select -->
<g id="node61" class="node">
<title>Select</title>
<polygon fill="#b2dfee" stroke="#b2dfee" points="2154.0375,-3510 1991.8285,-3510 1991.8285,-3430 2154.0375,-3430 2154.0375,-3510"/>
<text text-anchor="middle" x="2072.933" y="-3452" font-family="Times,serif" font-size="60.00" fill="#000000">Select</text>
</g>
<!-- SQL Verbs&#45;&gt;Select -->
<g id="edge54" class="edge">
<title>SQL Verbs-&gt;Select</title>
<path fill="none" stroke="#000000" d="M1465.4396,-3314.0034C1542.6466,-3347.1494 1658.033,-3393.1791 1762.578,-3421 1834.9824,-3440.2678 1919.0341,-3452.9656 1981.3914,-3460.5968"/>
<polygon fill="#000000" stroke="#000000" points="1981.2518,-3464.1051 1991.5982,-3461.8244 1982.0878,-3457.1552 1981.2518,-3464.1051"/>
</g>
<!-- Insert -->
<g id="node62" class="node">
<title>Insert</title>
<polygon fill="#b2dfee" stroke="#b2dfee" points="2149.0235,-3412 1996.8425,-3412 1996.8425,-3332 2149.0235,-3332 2149.0235,-3412"/>
<text text-anchor="middle" x="2072.933" y="-3354" font-family="Times,serif" font-size="60.00" fill="#000000">Insert</text>
</g>
<!-- SQL Verbs&#45;&gt;Insert -->
<g id="edge55" class="edge">
<title>SQL Verbs-&gt;Insert</title>
<path fill="none" stroke="#000000" d="M1520.1742,-3294.2462C1660.7155,-3314.0154 1869.9518,-3343.4477 1986.5347,-3359.8468"/>
<polygon fill="#000000" stroke="#000000" points="1986.0982,-3363.3198 1996.4882,-3361.2469 1987.0733,-3356.388 1986.0982,-3363.3198"/>
</g>
<!-- Update -->
<g id="node63" class="node">
<title>Update</title>
<polygon fill="#b2dfee" stroke="#b2dfee" points="2167.6892,-3314 1978.1768,-3314 1978.1768,-3234 2167.6892,-3234 2167.6892,-3314"/>
<text text-anchor="middle" x="2072.933" y="-3256" font-family="Times,serif" font-size="60.00" fill="#000000">Update</text>
</g>
<!-- SQL Verbs&#45;&gt;Update -->
<g id="edge56" class="edge">
<title>SQL Verbs-&gt;Update</title>
<path fill="none" stroke="#000000" d="M1520.1742,-3274C1653.5529,-3274 1848.8031,-3274 1968.0094,-3274"/>
<polygon fill="#000000" stroke="#000000" points="1968.2353,-3277.5001 1978.2353,-3274 1968.2352,-3270.5001 1968.2353,-3277.5001"/>
</g>
<!-- Delete -->
<g id="node64" class="node">
<title>Delete</title>
<polygon fill="#b2dfee" stroke="#b2dfee" points="2158.9975,-3216 1986.8685,-3216 1986.8685,-3136 2158.9975,-3136 2158.9975,-3216"/>
<text text-anchor="middle" x="2072.933" y="-3158" font-family="Times,serif" font-size="60.00" fill="#000000">Delete</text>
</g>
<!-- SQL Verbs&#45;&gt;Delete -->
<g id="edge57" class="edge">
<title>SQL Verbs-&gt;Delete</title>
<path fill="none" stroke="#000000" d="M1520.1742,-3253.7538C1656.8438,-3234.5292 1858.4757,-3206.1666 1976.6921,-3189.5377"/>
<polygon fill="#000000" stroke="#000000" points="1977.3974,-3192.973 1986.8124,-3188.1141 1976.4223,-3186.0413 1977.3974,-3192.973"/>
</g>
<!-- Tables -->
<g id="node65" class="node">
<title>Tables</title>
<polygon fill="#b2dfee" stroke="#b2dfee" points="2160.863,-3118 1985.003,-3118 1985.003,-3038 2160.863,-3038 2160.863,-3118"/>
<text text-anchor="middle" x="2072.933" y="-3060" font-family="Times,serif" font-size="60.00" fill="#000000">Tables</text>
</g>
<!-- SQL Objects&#45;&gt;Tables -->
<g id="edge58" class="edge">
<title>SQL Objects-&gt;Tables</title>
<path fill="none" stroke="#000000" d="M1540.0253,-3040.5193C1674.9277,-3050.0073 1861.7537,-3063.1472 1974.597,-3071.0838"/>
<polygon fill="#000000" stroke="#000000" points="1974.3877,-3074.5776 1984.6086,-3071.7879 1974.8788,-3067.5949 1974.3877,-3074.5776"/>
</g>
<!-- Views -->
<g id="node66" class="node">
<title>Views</title>
<polygon fill="#b2dfee" stroke="#b2dfee" points="2157.7032,-3020 1988.1628,-3020 1988.1628,-2940 2157.7032,-2940 2157.7032,-3020"/>
<text text-anchor="middle" x="2072.933" y="-2962" font-family="Times,serif" font-size="60.00" fill="#000000">Views</text>
</g>
<!-- SQL Objects&#45;&gt;Views -->
<g id="edge59" class="edge">
<title>SQL Objects-&gt;Views</title>
<path fill="none" stroke="#000000" d="M1540.0253,-3017.4807C1676.1573,-3007.9062 1865.1635,-2994.6129 1977.6639,-2986.7005"/>
<polygon fill="#000000" stroke="#000000" points="1978.2428,-2990.1685 1987.9725,-2985.9755 1977.7516,-2983.1858 1978.2428,-2990.1685"/>
</g>
<!-- Stored Procs -->
<g id="node67" class="node">
<title>Stored Procs</title>
<polygon fill="#b2dfee" stroke="#b2dfee" points="2233.365,-2922 1912.501,-2922 1912.501,-2842 2233.365,-2842 2233.365,-2922"/>
<text text-anchor="middle" x="2072.933" y="-2864" font-family="Times,serif" font-size="60.00" fill="#000000">Stored Procs</text>
</g>
<!-- SQL Objects&#45;&gt;Stored Procs -->
<g id="edge60" class="edge">
<title>SQL Objects-&gt;Stored Procs</title>
<path fill="none" stroke="#000000" d="M1520.9034,-2988.949C1593.1405,-2969.808 1682.0863,-2947.5268 1762.578,-2931 1807.6299,-2921.7498 1856.6707,-2913.2776 1902.1861,-2906.0744"/>
<polygon fill="#000000" stroke="#000000" points="1902.8099,-2909.5194 1912.1453,-2904.5094 1901.7232,-2902.6042 1902.8099,-2909.5194"/>
</g>
</g>
</svg>