<?xml version="1.0" encoding="UTF-8" standalone="no"?><!DOCTYPE svg PUBLIC "-//W3C//DTD SVG 1.1//EN" "http://www.w3.org/Graphics/SVG/1.1/DTD/svg11.dtd"><!-- Generated by graphviz version 2.40.1 (20161225.0304)
 --><!-- Title: devskills Pages: 1 --><svg xmlns="http://www.w3.org/2000/svg" xmlns:xlink="http://www.w3.org/1999/xlink" width="1214pt" height="534pt" viewBox="7.20 7.20 1207.20 526.31">
<g id="graph0" class="graph" transform="scale(.63 .63) rotate(0) translate(15.4287 831.4287)">
<title>devskills</title>
<polygon fill="#ffffff" stroke="transparent" points="-4,4 -4,-820 1900.787,-820 1900.787,4 -4,4"/>
<!-- VS Code -->
<g id="node1" class="node">
<title>VS Code</title>
<polygon fill="#fdc086" stroke="#fdc086" points="844.7912,-816 610.1588,-816 610.1588,-736 844.7912,-736 844.7912,-816"/>
<text text-anchor="middle" x="727.475" y="-758" font-family="Times,serif" font-size="60.00" fill="#000000">VS Code</text>
</g>
<!-- .vscode -->
<g id="node2" class="node">
<title>.vscode</title>
<polygon fill="#b2dfee" stroke="#b2dfee" points="551.0774,-448 353.8726,-448 353.8726,-368 551.0774,-368 551.0774,-448"/>
<text text-anchor="middle" x="452.475" y="-390" font-family="Times,serif" font-size="60.00" fill="#000000">.vscode</text>
</g>
<!-- VS Code&#45;&gt;.vscode -->
<g id="edge1" class="edge">
<title>VS Code-&gt;.vscode</title>
<path fill="none" stroke="#000000" d="M697.5217,-735.917C646.5861,-667.7559 543.3025,-529.5437 488.5052,-456.2149"/>
<polygon fill="#000000" stroke="#000000" points="491.1811,-453.9489 482.3914,-448.0336 485.5738,-458.1392 491.1811,-453.9489"/>
</g>
<!-- IDE -->
<g id="node3" class="node">
<title>IDE</title>
<polygon fill="#b2dfee" stroke="#b2dfee" points="1171.417,-448 1055.533,-448 1055.533,-368 1171.417,-368 1171.417,-448"/>
<text text-anchor="middle" x="1113.475" y="-390" font-family="Times,serif" font-size="60.00" fill="#000000">IDE</text>
</g>
<!-- VS Code&#45;&gt;IDE -->
<g id="edge2" class="edge">
<title>VS Code-&gt;IDE</title>
<path fill="none" stroke="#000000" d="M769.5186,-735.917C841.3037,-667.4794 987.1637,-528.4212 1063.8345,-455.3257"/>
<polygon fill="#000000" stroke="#000000" points="1066.6605,-457.4671 1071.4833,-448.0336 1061.8303,-452.4006 1066.6605,-457.4671"/>
</g>
<!-- launch.json -->
<g id="node9" class="node">
<title>launch.json</title>
<polygon fill="#b2dfee" stroke="#b2dfee" points="290.925,-80 .025,-80 .025,0 290.925,0 290.925,-80"/>
<text text-anchor="middle" x="145.475" y="-22" font-family="Times,serif" font-size="60.00" fill="#000000">launch.json</text>
</g>
<!-- .vscode&#45;&gt;launch.json -->
<g id="edge8" class="edge">
<title>.vscode-&gt;launch.json</title>
<path fill="none" stroke="#000000" d="M419.0362,-367.917C362.0582,-299.6176 246.4035,-160.9827 185.3262,-87.7695"/>
<polygon fill="#000000" stroke="#000000" points="187.9661,-85.4703 178.8726,-80.0336 182.591,-89.9545 187.9661,-85.4703"/>
</g>
<!-- tasks.json -->
<g id="node10" class="node">
<title>tasks.json</title>
<polygon fill="#b2dfee" stroke="#b2dfee" points="577.959,-80 326.991,-80 326.991,0 577.959,0 577.959,-80"/>
<text text-anchor="middle" x="452.475" y="-22" font-family="Times,serif" font-size="60.00" fill="#000000">tasks.json</text>
</g>
<!-- .vscode&#45;&gt;tasks.json -->
<g id="edge9" class="edge">
<title>.vscode-&gt;tasks.json</title>
<path fill="none" stroke="#000000" d="M452.475,-367.917C452.475,-300.4472 452.475,-164.34 452.475,-90.4659"/>
<polygon fill="#000000" stroke="#000000" points="455.9751,-90.0335 452.475,-80.0336 448.9751,-90.0336 455.9751,-90.0335"/>
</g>
<!-- debugging -->
<g id="node4" class="node">
<title>debugging</title>
<polygon fill="#b2dfee" stroke="#b2dfee" points="883.2832,-80 613.6668,-80 613.6668,0 883.2832,0 883.2832,-80"/>
<text text-anchor="middle" x="748.475" y="-22" font-family="Times,serif" font-size="60.00" fill="#000000">debugging</text>
</g>
<!-- IDE&#45;&gt;debugging -->
<g id="edge3" class="edge">
<title>IDE-&gt;debugging</title>
<path fill="none" stroke="#000000" d="M1073.7188,-367.917C1005.8391,-299.4794 867.9145,-160.4212 795.4149,-87.3257"/>
<polygon fill="#000000" stroke="#000000" points="797.7093,-84.6688 788.1822,-80.0336 792.7393,-89.5983 797.7093,-84.6688"/>
</g>
<!-- search -->
<g id="node5" class="node">
<title>search</title>
<polygon fill="#b2dfee" stroke="#b2dfee" points="1088.1851,-80 918.7649,-80 918.7649,0 1088.1851,0 1088.1851,-80"/>
<text text-anchor="middle" x="1003.475" y="-22" font-family="Times,serif" font-size="60.00" fill="#000000">search</text>
</g>
<!-- IDE&#45;&gt;search -->
<g id="edge4" class="edge">
<title>IDE-&gt;search</title>
<path fill="none" stroke="#000000" d="M1101.4937,-367.917C1081.2847,-300.3089 1040.475,-163.7819 1018.4244,-90.0125"/>
<polygon fill="#000000" stroke="#000000" points="1021.6589,-88.6123 1015.4416,-80.0336 1014.9522,-90.6171 1021.6589,-88.6123"/>
</g>
<!-- settings -->
<g id="node6" class="node">
<title>settings</title>
<polygon fill="#b2dfee" stroke="#b2dfee" points="1323.2993,-80 1123.6507,-80 1123.6507,0 1323.2993,0 1323.2993,-80"/>
<text text-anchor="middle" x="1223.475" y="-22" font-family="Times,serif" font-size="60.00" fill="#000000">settings</text>
</g>
<!-- IDE&#45;&gt;settings -->
<g id="edge5" class="edge">
<title>IDE-&gt;settings</title>
<path fill="none" stroke="#000000" d="M1125.4563,-367.917C1145.6653,-300.3089 1186.475,-163.7819 1208.5256,-90.0125"/>
<polygon fill="#000000" stroke="#000000" points="1211.9978,-90.6171 1211.5084,-80.0336 1205.2911,-88.6123 1211.9978,-90.6171"/>
</g>
<!-- extensions -->
<g id="node7" class="node">
<title>extensions</title>
<polygon fill="#b2dfee" stroke="#b2dfee" points="1628.2591,-80 1358.6909,-80 1358.6909,0 1628.2591,0 1628.2591,-80"/>
<text text-anchor="middle" x="1493.475" y="-22" font-family="Times,serif" font-size="60.00" fill="#000000">extensions</text>
</g>
<!-- IDE&#45;&gt;extensions -->
<g id="edge6" class="edge">
<title>IDE-&gt;extensions</title>
<path fill="none" stroke="#000000" d="M1154.865,-367.917C1225.5343,-299.4794 1369.1271,-160.4212 1444.6061,-87.3257"/>
<polygon fill="#000000" stroke="#000000" points="1447.3872,-89.5046 1452.136,-80.0336 1442.5175,-84.4761 1447.3872,-89.5046"/>
</g>
<!-- shortcuts -->
<g id="node8" class="node">
<title>shortcuts</title>
<polygon fill="#b2dfee" stroke="#b2dfee" points="1896.5993,-80 1664.3507,-80 1664.3507,0 1896.5993,0 1896.5993,-80"/>
<text text-anchor="middle" x="1780.475" y="-22" font-family="Times,serif" font-size="60.00" fill="#000000">shortcuts</text>
</g>
<!-- IDE&#45;&gt;shortcuts -->
<g id="edge7" class="edge">
<title>IDE-&gt;shortcuts</title>
<path fill="none" stroke="#000000" d="M1171.5001,-375.9862C1290.5155,-310.3225 1562.5177,-160.2523 1699.0859,-84.9044"/>
<polygon fill="#000000" stroke="#000000" points="1700.8174,-87.9464 1707.8824,-80.0511 1697.4359,-81.8174 1700.8174,-87.9464"/>
</g>
</g>
</svg>